<svg viewBox="0 0 68 24" xmlns="http://www.w3.org/2000/svg" xmlns:xlink="http://www.w3.org/1999/xlink" width="68.000000" height="24.000000" fill="none">
	<defs>
		<clipPath id="clipPath_105">
			<rect width="16.000002" height="16.000002" x="10.000000" y="4.000000" fill="rgb(255,255,255)" />
		</clipPath>
	</defs>
	<rect id="类型=Connect Stats, 状态=按下" width="68.000000" height="24.000000" x="0.000000" y="0.000000" fill="rgb(230,230,230)" />
	<g id="信号 1" clip-path="url(#clipPath_105)" customFrame="url(#clipPath_105)">
		<rect id="信号 1" width="16.000002" height="16.000002" x="10.000000" y="4.000000" />
		<path id="矢量 12" d="M23.3334 6L23.3334 18" stroke="rgb(51,51,51)" stroke-linecap="round" stroke-linejoin="round" stroke-width="2" />
		<path id="矢量 13" d="M19.6666 9.33337L19.6666 18" stroke="rgb(51,51,51)" stroke-linecap="round" stroke-linejoin="round" stroke-width="2" />
		<path id="矢量 14" d="M16.3334 12.6666L16.3334 18" stroke="rgb(51,51,51)" stroke-linecap="round" stroke-linejoin="round" stroke-width="2" />
		<path id="矢量 15" d="M12.6666 16L12.6666 18" stroke="rgb(51,51,51)" stroke-linecap="round" stroke-linejoin="round" stroke-width="2" />
	</g>
	<path id="" d="M30.75 14.7949C31.0273 15.0371 31.3984 15.2363 31.8633 15.3926C32.3281 15.5488 32.7695 15.627 33.1875 15.627C34.4609 15.627 35.0977 15.1738 35.0977 14.2676C35.0977 14.0137 35.0293 13.7852 34.8926 13.582C34.7559 13.3789 34.5684 13.1992 34.3301 13.043C34.0918 12.8867 33.6445 12.6465 32.9883 12.3223C32.0781 11.8691 31.4785 11.4482 31.1895 11.0596C30.9004 10.6709 30.7559 10.2266 30.7559 9.72656C30.7559 8.97266 31.0586 8.375 31.6641 7.93359C32.2695 7.49219 33.0332 7.27148 33.9551 7.27148C34.8574 7.27148 35.5195 7.38086 35.9414 7.59961L35.9414 8.87695C35.3945 8.49805 34.7031 8.30859 33.8672 8.30859C33.3125 8.30859 32.8604 8.4248 32.5107 8.65723C32.1611 8.88965 31.9863 9.21289 31.9863 9.62695C31.9863 9.99414 32.1074 10.293 32.3496 10.5234C32.5918 10.7539 33.1172 11.0684 33.9258 11.4668C34.8164 11.8926 35.4395 12.3184 35.7949 12.7441C36.1504 13.1699 36.3281 13.6484 36.3281 14.1797C36.3281 14.9766 36.0391 15.5879 35.4609 16.0137C34.8828 16.4395 34.0801 16.6523 33.0527 16.6523C32.6934 16.6523 32.2744 16.6025 31.7959 16.5029C31.3174 16.4033 30.9688 16.2793 30.75 16.1309L30.75 14.7949ZM40.6465 16.4355C40.3965 16.5723 40.0586 16.6406 39.6328 16.6406C38.4727 16.6406 37.8926 15.998 37.8926 14.7129L37.8926 10.9688L36.7793 10.9688L36.7793 10.0195L37.8926 10.0195L37.8926 8.46094L39.0352 8.09766L39.0352 10.0195L40.6465 10.0195L40.6465 10.9688L39.0352 10.9688L39.0352 14.5078C39.0352 14.9336 39.1074 15.2383 39.252 15.4219C39.3965 15.6055 39.6367 15.6973 39.9727 15.6973C40.2305 15.6973 40.4551 15.625 40.6465 15.4805L40.6465 16.4355ZM42.1582 10.4707C42.8027 10.0684 43.5469 9.86719 44.3906 9.86719C45.9531 9.86719 46.7344 10.6875 46.7344 12.3281L46.7344 16.5L45.5977 16.5L45.5977 15.498L45.5684 15.498C45.1191 16.2676 44.457 16.6523 43.582 16.6523C42.9531 16.6523 42.4531 16.4824 42.082 16.1426C41.7109 15.8027 41.5254 15.3438 41.5254 14.7656C41.5254 13.5547 42.2422 12.8496 43.6758 12.6504L45.5977 12.3809C45.5977 11.3223 45.1602 10.793 44.2852 10.793C43.5078 10.793 42.7988 11.0547 42.1582 11.5781L42.1582 10.4707ZM44.0801 13.4531C43.5488 13.5234 43.1826 13.6562 42.9814 13.8516C42.7803 14.0469 42.6797 14.3203 42.6797 14.6719C42.6797 14.9805 42.7891 15.2324 43.0078 15.4277C43.2266 15.623 43.5156 15.7207 43.875 15.7207C44.375 15.7207 44.7871 15.5449 45.1113 15.1934C45.4355 14.8418 45.5977 14.4004 45.5977 13.8691L45.5977 13.248L44.0801 13.4531ZM51.75 16.4355C51.5 16.5723 51.1621 16.6406 50.7363 16.6406C49.5762 16.6406 48.9961 15.998 48.9961 14.7129L48.9961 10.9688L47.8828 10.9688L47.8828 10.0195L48.9961 10.0195L48.9961 8.46094L50.1387 8.09766L50.1387 10.0195L51.75 10.0195L51.75 10.9688L50.1387 10.9688L50.1387 14.5078C50.1387 14.9336 50.2109 15.2383 50.3555 15.4219C50.5 15.6055 50.7402 15.6973 51.0762 15.6973C51.334 15.6973 51.5586 15.625 51.75 15.4805L51.75 16.4355ZM52.7461 15.0996C53.3242 15.5176 53.9473 15.7266 54.6152 15.7266C55.5098 15.7266 55.957 15.4336 55.957 14.8477C55.957 14.5977 55.8594 14.3916 55.6641 14.2295C55.4688 14.0674 55.0723 13.875 54.4746 13.6523C53.7559 13.3633 53.2891 13.0771 53.0742 12.7939C52.8594 12.5107 52.752 12.168 52.752 11.7656C52.752 11.1914 52.9951 10.7314 53.4814 10.3857C53.9678 10.04 54.5664 9.86719 55.2773 9.86719C55.8281 9.86719 56.3398 9.96289 56.8125 10.1543L56.8125 11.2617C56.3281 10.9492 55.7793 10.793 55.166 10.793C54.7988 10.793 54.5 10.873 54.2695 11.0332C54.0391 11.1934 53.9238 11.4043 53.9238 11.666C53.9238 11.9238 54.0068 12.125 54.1729 12.2695C54.3389 12.4141 54.707 12.5996 55.2773 12.8262C56 13.0957 56.4883 13.375 56.7422 13.6641C56.9961 13.9531 57.123 14.3105 57.123 14.7363C57.123 15.3301 56.8799 15.7979 56.3936 16.1396C55.9072 16.4814 55.2773 16.6523 54.5039 16.6523C53.832 16.6523 53.2461 16.5254 52.7461 16.2715L52.7461 15.0996Z" fill="rgb(51,51,51)" fill-rule="nonzero" />
</svg>
