<svg viewBox="0 0 68 24.0001" xmlns="http://www.w3.org/2000/svg" xmlns:xlink="http://www.w3.org/1999/xlink" width="68.000000" height="24.000122" fill="none">
	<defs>
		<clipPath id="clipPath_88">
			<rect width="16.000002" height="16.000002" x="10.000000" y="4.000000" fill="rgb(255,255,255)" />
		</clipPath>
	</defs>
	<rect id="类型=Connect Stats, 状态=选中" width="68.000000" height="24.000000" x="0.000000" y="0.000000" />
	<g id="信号 1" clip-path="url(#clipPath_88)" customFrame="url(#clipPath_88)">
		<rect id="信号 1" width="16.000002" height="16.000002" x="10.000000" y="4.000000" />
		<path id="矢量 12" d="M23.3334 6L23.3334 18" stroke="rgb(22,152,217)" stroke-linecap="round" stroke-linejoin="round" stroke-width="2" />
		<path id="矢量 13" d="M19.6666 9.33337L19.6666 18" stroke="rgb(22,152,217)" stroke-linecap="round" stroke-linejoin="round" stroke-width="2" />
		<path id="矢量 14" d="M16.3334 12.6666L16.3334 18" stroke="rgb(22,152,217)" stroke-linecap="round" stroke-linejoin="round" stroke-width="2" />
		<path id="矢量 15" d="M12.6666 16.0001L12.6666 18.0001" stroke="rgb(22,152,217)" stroke-linecap="round" stroke-linejoin="round" stroke-width="2" />
	</g>
	<path id="" d="M30.75 14.795C31.0273 15.0372 31.3984 15.2365 31.8633 15.3927C32.3281 15.549 32.7695 15.6271 33.1875 15.6271C34.4609 15.6271 35.0977 15.174 35.0977 14.2677C35.0977 14.0138 35.0293 13.7853 34.8926 13.5822C34.7559 13.379 34.5684 13.1993 34.3301 13.0431C34.0918 12.8868 33.6445 12.6466 32.9883 12.3224C32.0781 11.8693 31.4785 11.4484 31.1895 11.0597C30.9004 10.671 30.7559 10.2267 30.7559 9.72668C30.7559 8.97278 31.0586 8.37512 31.6641 7.93372C32.2695 7.49231 33.0332 7.27161 33.9551 7.27161C34.8574 7.27161 35.5195 7.38098 35.9414 7.59973L35.9414 8.87708C35.3945 8.49817 34.7031 8.30872 33.8672 8.30872C33.3125 8.30872 32.8604 8.42493 32.5107 8.65735C32.1611 8.88977 31.9863 9.21301 31.9863 9.62708C31.9863 9.99426 32.1074 10.2931 32.3496 10.5236C32.5918 10.754 33.1172 11.0685 33.9258 11.4669C34.8164 11.8927 35.4395 12.3185 35.7949 12.7443C36.1504 13.17 36.3281 13.6486 36.3281 14.1798C36.3281 14.9767 36.0391 15.588 35.4609 16.0138C34.8828 16.4396 34.0801 16.6525 33.0527 16.6525C32.6934 16.6525 32.2744 16.6027 31.7959 16.5031C31.3174 16.4034 30.9688 16.2794 30.75 16.131L30.75 14.795ZM40.6465 16.4357C40.3965 16.5724 40.0586 16.6407 39.6328 16.6407C38.4727 16.6407 37.8926 15.9982 37.8926 14.713L37.8926 10.9689L36.7793 10.9689L36.7793 10.0197L37.8926 10.0197L37.8926 8.46106L39.0352 8.09778L39.0352 10.0197L40.6465 10.0197L40.6465 10.9689L39.0352 10.9689L39.0352 14.5079C39.0352 14.9337 39.1074 15.2384 39.252 15.422C39.3965 15.6056 39.6367 15.6974 39.9727 15.6974C40.2305 15.6974 40.4551 15.6251 40.6465 15.4806L40.6465 16.4357ZM42.1582 10.4708C42.8027 10.0685 43.5469 9.86731 44.3906 9.86731C45.9531 9.86731 46.7344 10.6876 46.7344 12.3282L46.7344 16.5001L45.5977 16.5001L45.5977 15.4982L45.5684 15.4982C45.1191 16.2677 44.457 16.6525 43.582 16.6525C42.9531 16.6525 42.4531 16.4825 42.082 16.1427C41.7109 15.8029 41.5254 15.3439 41.5254 14.7657C41.5254 13.5548 42.2422 12.8497 43.6758 12.6505L45.5977 12.381C45.5977 11.3224 45.1602 10.7931 44.2852 10.7931C43.5078 10.7931 42.7988 11.0548 42.1582 11.5782L42.1582 10.4708ZM44.0801 13.4532C43.5488 13.5236 43.1826 13.6564 42.9814 13.8517C42.7803 14.047 42.6797 14.3204 42.6797 14.672C42.6797 14.9806 42.7891 15.2325 43.0078 15.4279C43.2266 15.6232 43.5156 15.7208 43.875 15.7208C44.375 15.7208 44.7871 15.545 45.1113 15.1935C45.4355 14.8419 45.5977 14.4005 45.5977 13.8693L45.5977 13.2482L44.0801 13.4532ZM51.75 16.4357C51.5 16.5724 51.1621 16.6407 50.7363 16.6407C49.5762 16.6407 48.9961 15.9982 48.9961 14.713L48.9961 10.9689L47.8828 10.9689L47.8828 10.0197L48.9961 10.0197L48.9961 8.46106L50.1387 8.09778L50.1387 10.0197L51.75 10.0197L51.75 10.9689L50.1387 10.9689L50.1387 14.5079C50.1387 14.9337 50.2109 15.2384 50.3555 15.422C50.5 15.6056 50.7402 15.6974 51.0762 15.6974C51.334 15.6974 51.5586 15.6251 51.75 15.4806L51.75 16.4357ZM52.7461 15.0997C53.3242 15.5177 53.9473 15.7267 54.6152 15.7267C55.5098 15.7267 55.957 15.4337 55.957 14.8478C55.957 14.5978 55.8594 14.3917 55.6641 14.2296C55.4688 14.0675 55.0723 13.8751 54.4746 13.6525C53.7559 13.3634 53.2891 13.0773 53.0742 12.7941C52.8594 12.5109 52.752 12.1681 52.752 11.7657C52.752 11.1915 52.9951 10.7316 53.4814 10.3859C53.9678 10.0402 54.5664 9.86731 55.2773 9.86731C55.8281 9.86731 56.3398 9.96301 56.8125 10.1544L56.8125 11.2618C56.3281 10.9493 55.7793 10.7931 55.166 10.7931C54.7988 10.7931 54.5 10.8732 54.2695 11.0333C54.0391 11.1935 53.9238 11.4044 53.9238 11.6661C53.9238 11.924 54.0068 12.1251 54.1729 12.2697C54.3389 12.4142 54.707 12.5997 55.2773 12.8263C56 13.0958 56.4883 13.3751 56.7422 13.6642C56.9961 13.9532 57.123 14.3107 57.123 14.7365C57.123 15.3302 56.8799 15.798 56.3936 16.1398C55.9072 16.4816 55.2773 16.6525 54.5039 16.6525C53.832 16.6525 53.2461 16.5255 52.7461 16.2716L52.7461 15.0997Z" fill="rgb(51,51,51)" fill-rule="nonzero" />
</svg>
