<svg viewBox="0 0 90 24" xmlns="http://www.w3.org/2000/svg" xmlns:xlink="http://www.w3.org/1999/xlink" width="90.000000" height="24.000000" fill="none">
	<defs>
		<clipPath id="clipPath_104">
			<rect width="16.000002" height="16.000002" x="10.000000" y="4.000000" fill="rgb(255,255,255)" />
		</clipPath>
	</defs>
	<rect id="类型=Disabled, 状态=按下" width="90.000000" height="24.000000" x="0.000000" y="0.000000" fill="rgb(230,230,230)" />
	<g id="数据接口 3" clip-path="url(#clipPath_104)" customFrame="url(#clipPath_104)">
		<rect id="数据接口 3" width="16.000002" height="16.000002" x="10.000000" y="4.000000" />
		<path id="矢量 12" d="M24 11L12 11L12 18L24 18L24 11Z" fill="rgb(51,51,51)" fill-rule="nonzero" />
		<path id="矢量 12" d="M12 11L12 18L24 18L24 11L12 11Z" fill-rule="nonzero" stroke="rgb(51,51,51)" stroke-linejoin="round" stroke-width="1" />
		<path id="矢量 13" d="M14.6667 11L14.6667 6L21.3334 6L21.3334 11" fill-rule="nonzero" stroke="rgb(51,51,51)" stroke-linecap="round" stroke-linejoin="round" stroke-width="1" />
		<path id="矢量 14" d="M16.6667 8L16.6667 8.66667" stroke="rgb(51,51,51)" stroke-linecap="round" stroke-linejoin="round" stroke-width="1" />
		<path id="矢量 15" d="M19.3333 8L19.3333 8.66667" stroke="rgb(51,51,51)" stroke-linecap="round" stroke-linejoin="round" stroke-width="1" />
	</g>
	<path id="" d="M31.1719 16.5L31.1719 7.42383L33.7617 7.42383C35.1367 7.42383 36.2803 7.82422 37.1924 8.625C38.1045 9.42578 38.5605 10.5 38.5605 11.8477C38.5605 13.2539 38.1045 14.3809 37.1924 15.2285C36.2803 16.0762 35.1055 16.5 33.668 16.5L31.1719 16.5ZM32.3438 8.4668L32.3438 15.4629L33.6621 15.4629C34.8145 15.4629 35.7139 15.1484 36.3604 14.5195C37.0068 13.8906 37.3301 13.0098 37.3301 11.877C37.3301 10.7441 36.998 9.89258 36.334 9.32227C35.6699 8.75195 34.7969 8.4668 33.7148 8.4668L32.3438 8.4668ZM40.0254 7.73438C40.0254 7.53125 40.0947 7.36035 40.2334 7.22168C40.3721 7.08301 40.543 7.01367 40.7461 7.01367C40.9531 7.01367 41.1279 7.08203 41.2705 7.21875C41.4131 7.35547 41.4844 7.52734 41.4844 7.73438C41.4844 7.9375 41.4131 8.10645 41.2705 8.24121C41.1279 8.37598 40.9531 8.44336 40.7461 8.44336C40.5391 8.44336 40.3672 8.37598 40.2305 8.24121C40.0938 8.10645 40.0254 7.9375 40.0254 7.73438ZM40.1602 16.5L40.1602 10.0195L41.3086 10.0195L41.3086 16.5L40.1602 16.5ZM42.9961 15.0996C43.5742 15.5176 44.1973 15.7266 44.8652 15.7266C45.7598 15.7266 46.207 15.4336 46.207 14.8477C46.207 14.5977 46.1094 14.3916 45.9141 14.2295C45.7188 14.0674 45.3223 13.875 44.7246 13.6523C44.0059 13.3633 43.5391 13.0771 43.3242 12.7939C43.1094 12.5107 43.002 12.168 43.002 11.7656C43.002 11.1914 43.2451 10.7314 43.7314 10.3857C44.2178 10.04 44.8164 9.86719 45.5273 9.86719C46.0781 9.86719 46.5898 9.96289 47.0625 10.1543L47.0625 11.2617C46.5781 10.9492 46.0293 10.793 45.416 10.793C45.0488 10.793 44.75 10.873 44.5195 11.0332C44.2891 11.1934 44.1738 11.4043 44.1738 11.666C44.1738 11.9238 44.2568 12.125 44.4229 12.2695C44.5889 12.4141 44.957 12.5996 45.5273 12.8262C46.25 13.0957 46.7383 13.375 46.9922 13.6641C47.2461 13.9531 47.373 14.3105 47.373 14.7363C47.373 15.3301 47.1299 15.7979 46.6436 16.1396C46.1572 16.4814 45.5273 16.6523 44.7539 16.6523C44.082 16.6523 43.4961 16.5254 42.9961 16.2715L42.9961 15.0996ZM49.0664 10.4707C49.7109 10.0684 50.4551 9.86719 51.2988 9.86719C52.8613 9.86719 53.6426 10.6875 53.6426 12.3281L53.6426 16.5L52.5059 16.5L52.5059 15.498L52.4766 15.498C52.0273 16.2676 51.3652 16.6523 50.4902 16.6523C49.8613 16.6523 49.3613 16.4824 48.9902 16.1426C48.6191 15.8027 48.4336 15.3438 48.4336 14.7656C48.4336 13.5547 49.1504 12.8496 50.584 12.6504L52.5059 12.3809C52.5059 11.3223 52.0684 10.793 51.1934 10.793C50.416 10.793 49.707 11.0547 49.0664 11.5781L49.0664 10.4707ZM50.9883 13.4531C50.457 13.5234 50.0908 13.6562 49.8896 13.8516C49.6885 14.0469 49.5879 14.3203 49.5879 14.6719C49.5879 14.9805 49.6973 15.2324 49.916 15.4277C50.1348 15.623 50.4238 15.7207 50.7832 15.7207C51.2832 15.7207 51.6953 15.5449 52.0195 15.1934C52.3438 14.8418 52.5059 14.4004 52.5059 13.8691L52.5059 13.248L50.9883 13.4531ZM56.6953 15.5859L56.6953 16.5L55.5469 16.5L55.5469 6.9082L56.6953 6.9082L56.6953 11.1387L56.7188 11.1387C57.2266 10.291 57.9688 9.86719 58.9453 9.86719C59.7578 9.86719 60.4033 10.1533 60.8818 10.7256C61.3604 11.2979 61.5996 12.0801 61.5996 13.0723C61.5996 14.166 61.3311 15.0361 60.7939 15.6826C60.2568 16.3291 59.541 16.6523 58.6465 16.6523C57.8027 16.6523 57.1602 16.2969 56.7188 15.5859L56.6953 15.5859ZM56.6895 13.834C56.6895 14.3574 56.8594 14.7998 57.1992 15.1611C57.5391 15.5225 57.9648 15.7031 58.4766 15.7031C59.0859 15.7031 59.5625 15.4688 59.9062 15C60.25 14.5312 60.4219 13.8828 60.4219 13.0547C60.4219 12.3711 60.2617 11.8271 59.9414 11.4229C59.6211 11.0186 59.1836 10.8164 58.6289 10.8164C58.0664 10.8164 57.6025 11.0176 57.2373 11.4199C56.8721 11.8223 56.6895 12.334 56.6895 12.9551L56.6895 13.834ZM63.2051 16.5L63.2051 6.9082L64.3535 6.9082L64.3535 16.5L63.2051 16.5ZM71.6836 13.5527L67.1484 13.5527C67.168 14.2441 67.3574 14.7783 67.7168 15.1553C68.0762 15.5322 68.5781 15.7207 69.2227 15.7207C69.9492 15.7207 70.6152 15.4883 71.2207 15.0234L71.2207 16.0488C70.6504 16.4512 69.8945 16.6523 68.9531 16.6523C68.0156 16.6523 67.2842 16.3555 66.7588 15.7617C66.2334 15.168 65.9707 14.3438 65.9707 13.2891C65.9707 12.2969 66.2588 11.4785 66.835 10.834C67.4111 10.1895 68.127 9.86719 68.9824 9.86719C69.8301 9.86719 70.4922 10.1396 70.9688 10.6846C71.4453 11.2295 71.6836 11.9922 71.6836 12.9727L71.6836 13.5527ZM70.5352 12.6328C70.5312 12.0469 70.3926 11.5938 70.1191 11.2734C69.8457 10.9531 69.4609 10.793 68.9648 10.793C68.5078 10.793 68.1123 10.9629 67.7783 11.3027C67.4443 11.6426 67.2344 12.0859 67.1484 12.6328L70.5352 12.6328ZM78.8379 16.5L77.6895 16.5L77.6895 15.4219L77.666 15.4219C77.1934 16.2422 76.459 16.6523 75.4629 16.6523C74.6426 16.6523 73.9902 16.3604 73.5059 15.7764C73.0215 15.1924 72.7793 14.4043 72.7793 13.4121C72.7793 12.3418 73.0527 11.4834 73.5996 10.8369C74.1465 10.1904 74.8613 9.86719 75.7441 9.86719C76.627 9.86719 77.2676 10.2109 77.666 10.8984L77.6895 10.8984L77.6895 6.9082L78.8379 6.9082L78.8379 16.5ZM77.6953 12.6445C77.6953 12.125 77.5244 11.6904 77.1826 11.3408C76.8408 10.9912 76.4199 10.8164 75.9199 10.8164C75.3105 10.8164 74.8301 11.0439 74.4785 11.499C74.127 11.9541 73.9512 12.5742 73.9512 13.3594C73.9512 14.082 74.1201 14.6533 74.458 15.0732C74.7959 15.4932 75.2461 15.7031 75.8086 15.7031C76.3633 15.7031 76.8164 15.4971 77.168 15.085C77.5195 14.6729 77.6953 14.1602 77.6953 13.5469L77.6953 12.6445Z" fill="rgb(51,51,51)" fill-rule="nonzero" />
</svg>
