<svg viewBox="0 0 16 16" xmlns="http://www.w3.org/2000/svg" xmlns:xlink="http://www.w3.org/1999/xlink" width="16.000000" height="16.000000" fill="none">
	<rect id="芯片 1" width="16.000002" height="16.000002" x="0.000000" y="0.000000" />
	<path id="矢量 34" d="M3.33332 2.66675C2.96513 2.66675 2.66666 2.96522 2.66666 3.33341L2.66666 12.6667C2.66666 13.0349 2.96513 13.3334 3.33332 13.3334L12.6667 13.3334C13.0349 13.3334 13.3333 13.0349 13.3333 12.6667L13.3333 3.33341C13.3333 2.96522 13.0349 2.66675 12.6667 2.66675L3.33332 2.66675Z" fill-rule="nonzero" stroke="currentColor" stroke-linejoin="round" stroke-width="1" />
	<path id="矢量 35" d="M6 6L6 10L10 10L10 6L6 6Z" fill-rule="nonzero" stroke="currentColor" stroke-linejoin="round" stroke-width="1" />
	<path id="矢量 36" d="M4.96973 0.666748L4.96973 2.66675L4.96973 0.666748Z" fill-rule="evenodd" />
	<path id="矢量 37" d="M4.96973 0.666748L4.96973 2.66675" stroke="currentColor" stroke-linecap="round" stroke-linejoin="round" stroke-width="1" />
	<path id="矢量 38" d="M4.96973 13.3333L4.96973 15.3333L4.96973 13.3333Z" fill-rule="evenodd" />
	<path id="矢量 39" d="M4.96973 13.3333L4.96973 15.3333" stroke="currentColor" stroke-linecap="round" stroke-linejoin="round" stroke-width="1" />
	<path id="矢量 40" d="M8 0.666748L8 2.66675L8 0.666748Z" fill-rule="evenodd" />
	<path id="矢量 41" d="M8 0.666748L8 2.66675" stroke="currentColor" stroke-linecap="round" stroke-linejoin="round" stroke-width="1" />
	<path id="矢量 42" d="M8 13.3333L8 15.3333L8 13.3333Z" fill-rule="evenodd" />
	<path id="矢量 43" d="M8 13.3333L8 15.3333" stroke="currentColor" stroke-linecap="round" stroke-linejoin="round" stroke-width="1" />
	<path id="矢量 44" d="M11.0303 0.666748L11.0303 2.66675L11.0303 0.666748Z" fill-rule="evenodd" />
	<path id="矢量 45" d="M11.0303 0.666748L11.0303 2.66675" stroke="currentColor" stroke-linecap="round" stroke-linejoin="round" stroke-width="1" />
	<path id="矢量 46" d="M11.0303 13.3333L11.0303 15.3333L11.0303 13.3333Z" fill-rule="evenodd" />
	<path id="矢量 47" d="M11.0303 13.3333L11.0303 15.3333" stroke="currentColor" stroke-linecap="round" stroke-linejoin="round" stroke-width="1" />
	<path id="矢量 48" />
	<path id="矢量 49" d="M0.666656 4.96973L2.66666 4.96973" stroke="currentColor" stroke-linecap="round" stroke-linejoin="round" stroke-width="1" />
	<path id="矢量 50" />
	<path id="矢量 51" d="M13.3333 4.96973L15.3333 4.96973" stroke="currentColor" stroke-linecap="round" stroke-linejoin="round" stroke-width="1" />
	<path id="矢量 52" />
	<path id="矢量 53" d="M0.666656 8L2.66666 8" stroke="currentColor" stroke-linecap="round" stroke-linejoin="round" stroke-width="1" />
	<path id="矢量 54" />
	<path id="矢量 55" d="M13.3333 8L15.3333 8" stroke="currentColor" stroke-linecap="round" stroke-linejoin="round" stroke-width="1" />
	<path id="矢量 56" />
	<path id="矢量 57" d="M0.666656 11.0303L2.66666 11.0303" stroke="currentColor" stroke-linecap="round" stroke-linejoin="round" stroke-width="1" />
	<path id="矢量 58" />
	<path id="矢量 59" d="M13.3333 11.0303L15.3333 11.0303" stroke="currentColor" stroke-linecap="round" stroke-linejoin="round" stroke-width="1" />
</svg>
