<svg viewBox="0 0 48 48" xmlns="http://www.w3.org/2000/svg" xmlns:xlink="http://www.w3.org/1999/xlink" width="48.000000" height="48.000000" fill="none">
	<rect id="hdmi-cord 2" width="48.000000" height="48.000000" x="0.000000" y="0.000000" fill="none" />
	<g id="组合 186">
		<path id="矩形 8" d="M16.9289 45L16.9289 36.3333L7.5 36.3333C6.39543 36.3333 5.5 35.4379 5.5 34.3333L5.5 19L37.5 19L37.5 30M26.1289 45L26.1289 36.3333L28.5 36.3333" stroke="currentColor" stroke-linecap="round" stroke-linejoin="round" stroke-width="2" />
		<path id="矩形 9" d="M8.5 19L8.5 4L34.5 4L34.5 19" stroke="currentColor" stroke-linecap="round" stroke-linejoin="round" stroke-width="2" />
		<path id="矢量 99" d="M12.5 4L12.5 19" stroke="currentColor" stroke-linecap="round" stroke-width="2" />
		<path id="矢量 100" d="M30.5 4L30.5 19" stroke="currentColor" stroke-linecap="round" stroke-width="2" />
		<rect id="矩形 10" width="2.000000" height="2.000000" x="17.000000" y="11.000000" stroke="currentColor" stroke-linejoin="round" stroke-width="2" />
		<rect id="矩形 11" width="2.000000" height="2.000000" x="24.000000" y="11.000000" stroke="currentColor" stroke-linejoin="round" stroke-width="2" />
		<path id="矢量 105" d="M0.001 0L0 15.5565" stroke="rgb(230,23,23)" stroke-linecap="round" stroke-linejoin="round" stroke-width="2" transform="matrix(0.707107,-0.707107,0.707107,0.707107,33,34.0007)" />
		<path id="矢量 106" d="M0 0L0.001 15.5568" stroke="rgb(230,23,23)" stroke-linecap="round" stroke-linejoin="round" stroke-width="2" transform="matrix(0.707107,0.707107,0.707107,-0.707107,33,45.0007)" />
	</g>
</svg>
