<svg viewBox="0 0 16 16" xmlns="http://www.w3.org/2000/svg" xmlns:xlink="http://www.w3.org/1999/xlink" width="16.000000" height="16.000000" fill="none">
	<rect id="HDMI线 2" width="16.000002" height="16.000002" x="0.000000" y="0.000000" />
	<path id="矢量 11" d="M1.33301 5.33317C1.33301 4.96497 1.63148 4.6665 1.99967 4.6665L13.9997 4.6665C14.3679 4.6665 14.6663 4.96497 14.6663 5.33317L14.6663 8.21514C14.6663 8.48774 14.4991 8.7338 14.2733 8.88654C13.8668 9.16157 13.2642 9.71621 13.0657 10.6705C12.9907 11.0309 12.7012 11.3332 12.333 11.3332L3.66634 11.3332C3.29815 11.3332 3.0086 11.0309 2.93361 10.6705C2.7351 9.71621 2.13255 9.16157 1.72607 8.88654C1.50029 8.7338 1.33301 8.48774 1.33301 8.21514L1.33301 5.33317Z" fill="rgb(0,205,27)" fill-rule="nonzero" />
	<path id="矢量 11" d="M1.99967 4.6665L13.9997 4.6665C14.3679 4.6665 14.6663 4.96497 14.6663 5.33317L14.6663 8.21514C14.6663 8.48774 14.4991 8.7338 14.2733 8.88654C13.8668 9.16157 13.2642 9.71621 13.0657 10.6705C12.9907 11.0309 12.7012 11.3332 12.333 11.3332L3.66634 11.3332C3.29815 11.3332 3.0086 11.0309 2.93361 10.6705C2.7351 9.71621 2.13255 9.16157 1.72607 8.88654C1.50029 8.7338 1.33301 8.48774 1.33301 8.21514L1.33301 5.33317C1.33301 4.96497 1.63148 4.6665 1.99967 4.6665Z" fill-rule="nonzero" stroke="rgb(0,205,27)" stroke-linecap="round" stroke-linejoin="round" stroke-width="1" />
	<path id="矢量 12" d="M4.66699 9.3335L11.3337 9.3335" stroke="rgb(255,255,255)" stroke-linecap="round" stroke-linejoin="round" stroke-width="1" />
	<path id="矢量 13" d="M4.66699 9.3335L4.66699 8.3335" stroke="rgb(255,255,255)" stroke-linecap="round" stroke-linejoin="round" stroke-width="1" />
	<path id="矢量 14" d="M7 9.3335L7 8.3335" stroke="rgb(255,255,255)" stroke-linecap="round" stroke-linejoin="round" stroke-width="1" />
	<path id="矢量 15" d="M9 9.3335L9 8.3335" stroke="rgb(255,255,255)" stroke-linecap="round" stroke-linejoin="round" stroke-width="1" />
	<path id="矢量 16" d="M11.333 9.3335L11.333 8.3335" stroke="rgb(255,255,255)" stroke-linecap="round" stroke-linejoin="round" stroke-width="1" />
	<path id="矢量 17" d="M3.66699 6.6665L4.33366 6.6665" stroke="rgb(255,255,255)" stroke-linecap="round" stroke-linejoin="round" stroke-width="1" />
	<path id="矢量 18" d="M6.33301 6.6665L6.99967 6.6665" stroke="rgb(255,255,255)" stroke-linecap="round" stroke-linejoin="round" stroke-width="1" />
	<path id="矢量 19" d="M9 6.6665L9.66667 6.6665" stroke="rgb(255,255,255)" stroke-linecap="round" stroke-linejoin="round" stroke-width="1" />
	<path id="矢量 20" d="M11.667 6.6665L12.3337 6.6665" stroke="rgb(255,255,255)" stroke-linecap="round" stroke-linejoin="round" stroke-width="1" />
</svg>
