<svg viewBox="0 0 16 16" xmlns="http://www.w3.org/2000/svg" xmlns:xlink="http://www.w3.org/1999/xlink" width="16.000000" height="16.000000" fill="none">
	<rect id="HDMI线 2" width="16.000002" height="16.000002" x="0.000000" y="0.000000" />
	<path id="矢量 11" d="M1.33331 5.33329C1.33331 4.96509 1.63179 4.66663 1.99998 4.66663L14 4.66663C14.3682 4.66663 14.6666 4.96509 14.6666 5.33329L14.6666 8.21526C14.6666 8.48786 14.4994 8.73393 14.2736 8.88666C13.8671 9.16169 13.2645 9.71633 13.066 10.6706C12.991 11.0311 12.7015 11.3333 12.3333 11.3333L3.66665 11.3333C3.29846 11.3333 3.00891 11.0311 2.93392 10.6706C2.73541 9.71633 2.13286 9.16169 1.72637 8.88666C1.50059 8.73393 1.33331 8.48786 1.33331 8.21526L1.33331 5.33329Z" fill="rgb(205,205,205)" fill-rule="nonzero" />
	<path id="矢量 11" d="M1.99998 4.66663L14 4.66663C14.3682 4.66663 14.6666 4.96509 14.6666 5.33329L14.6666 8.21526C14.6666 8.48786 14.4994 8.73393 14.2736 8.88666C13.8671 9.16169 13.2645 9.71633 13.066 10.6706C12.991 11.0311 12.7015 11.3333 12.3333 11.3333L3.66665 11.3333C3.29846 11.3333 3.00891 11.0311 2.93392 10.6706C2.73541 9.71633 2.13286 9.16169 1.72637 8.88666C1.50059 8.73393 1.33331 8.48786 1.33331 8.21526L1.33331 5.33329C1.33331 4.96509 1.63179 4.66663 1.99998 4.66663Z" fill-rule="nonzero" stroke="rgb(205,205,205)" stroke-linecap="round" stroke-linejoin="round" stroke-width="1" />
	<path id="矢量 12" d="M4.66669 9.33337L11.3334 9.33337" stroke="rgb(255,255,255)" stroke-linecap="round" stroke-linejoin="round" stroke-width="1" />
	<path id="矢量 13" d="M4.66669 9.33337L4.66669 8.33337" stroke="rgb(255,255,255)" stroke-linecap="round" stroke-linejoin="round" stroke-width="1" />
	<path id="矢量 14" d="M7 9.33337L7 8.33337" stroke="rgb(255,255,255)" stroke-linecap="round" stroke-linejoin="round" stroke-width="1" />
	<path id="矢量 15" d="M9 9.33337L9 8.33337" stroke="rgb(255,255,255)" stroke-linecap="round" stroke-linejoin="round" stroke-width="1" />
	<path id="矢量 16" d="M11.3333 9.33337L11.3333 8.33337" stroke="rgb(255,255,255)" stroke-linecap="round" stroke-linejoin="round" stroke-width="1" />
	<path id="矢量 17" d="M3.66669 6.66663L4.33335 6.66663" stroke="rgb(255,255,255)" stroke-linecap="round" stroke-linejoin="round" stroke-width="1" />
	<path id="矢量 18" d="M6.33331 6.66663L6.99998 6.66663" stroke="rgb(255,255,255)" stroke-linecap="round" stroke-linejoin="round" stroke-width="1" />
	<path id="矢量 19" d="M9 6.66663L9.66667 6.66663" stroke="rgb(255,255,255)" stroke-linecap="round" stroke-linejoin="round" stroke-width="1" />
	<path id="矢量 20" d="M11.6667 6.66663L12.3334 6.66663" stroke="rgb(255,255,255)" stroke-linecap="round" stroke-linejoin="round" stroke-width="1" />
</svg>
