<svg viewBox="0 0 36 36" xmlns="http://www.w3.org/2000/svg" xmlns:xlink="http://www.w3.org/1999/xlink" width="36.000000" height="36.000000" fill="none">
	<rect id="IMG" width="36.000000" height="36.000000" x="0.000000" y="0.000000" />
	<path id="矢量 109" d="M29.8086 8.44189L29.8086 32.6294C29.8086 33.5631 29.056 34.3169 28.1211 34.3169L7.87109 34.3169C6.93734 34.3169 6.18359 33.5631 6.18359 32.6294L6.18359 3.37939C6.18359 2.44452 6.93734 1.69189 7.87109 1.69189L23.0586 1.69189L29.8086 8.44189Z" fill="rgb(242,242,242)" fill-rule="nonzero" />
	<path id="矢量 109" d="M29.8086 32.6294L29.8086 8.44189L23.0586 1.69189L7.87109 1.69189C6.93734 1.69189 6.18359 2.44452 6.18359 3.37939L6.18359 32.6294C6.18359 33.5631 6.93734 34.3169 7.87109 34.3169L28.1211 34.3169C29.056 34.3169 29.8086 33.5631 29.8086 32.6294ZM22.6444 2.69189L7.87109 2.69189C7.7723 2.69189 7.68118 2.70978 7.59771 2.74554C7.51985 2.77891 7.44866 2.82784 7.38413 2.89234C7.31975 2.95669 7.27086 3.02771 7.23749 3.10539C7.20156 3.189 7.18359 3.28034 7.18359 3.37939L7.18359 32.6294C7.18359 32.7273 7.20124 32.8178 7.23653 32.9007C7.26996 32.9793 7.31921 33.0511 7.38429 33.1162C7.44938 33.1813 7.52121 33.2305 7.59977 33.264C7.6827 33.2993 7.77315 33.3169 7.87109 33.3169L28.1211 33.3169C28.2201 33.3169 28.3115 33.2989 28.3951 33.263C28.4728 33.2296 28.5438 33.1807 28.6082 33.1164C28.6726 33.0518 28.7216 32.9806 28.7549 32.9028C28.7907 32.8193 28.8086 32.7282 28.8086 32.6294L28.8086 8.85611L22.6444 2.69189Z" fill="rgb(229,229,229)" fill-rule="evenodd" />
	<path id="矢量 110" d="M5.625 25.0044L5.625 32.6294C5.625 33.8759 6.6285 34.8794 7.875 34.8794L28.125 34.8794C29.3715 34.8794 30.375 33.8759 30.375 32.6294L30.375 25.0044L5.625 25.0044Z" fill="rgb(153,153,153)" fill-rule="nonzero" />
	<path id="" d="M11.5625 26.9492L11.5625 33L10.7812 33L10.7812 26.9492L11.5625 26.9492ZM18.6055 33L18.6055 28.9922C18.6055 28.6615 18.625 28.2643 18.6641 27.8008L18.6445 27.8008C18.5768 28.0924 18.5169 28.2956 18.4648 28.4102L16.4688 33L16.0352 33L14.043 28.4453C13.9961 28.3411 13.9362 28.1263 13.8633 27.8008L13.8398 27.8008C13.8659 28.082 13.8789 28.4909 13.8789 29.0273L13.8789 33L13.1328 33L13.1328 26.9492L14.1914 26.9492L15.9766 31.0977C16.112 31.4154 16.2018 31.6628 16.2461 31.8398L16.2734 31.8398C16.4089 31.4674 16.5039 31.2148 16.5586 31.082L18.375 26.9492L19.3828 26.9492L19.3828 33L18.6055 33ZM25.5234 32.5859C24.9193 32.9297 24.237 33.1016 23.4766 33.1016C22.6016 33.1016 21.8965 32.8249 21.3613 32.2715C20.8262 31.7181 20.5586 30.9792 20.5586 30.0547C20.5586 29.1198 20.8542 28.3516 21.4453 27.75C22.0365 27.1484 22.7943 26.8477 23.7188 26.8477C24.3724 26.8477 24.9258 26.9518 25.3789 27.1602L25.3789 28.0039C24.8945 27.6992 24.3177 27.5469 23.6484 27.5469C22.9896 27.5469 22.4466 27.7721 22.0195 28.2227C21.5924 28.6732 21.3789 29.2669 21.3789 30.0039C21.3789 30.7617 21.5755 31.3516 21.9688 31.7734C22.362 32.1953 22.8932 32.4062 23.5625 32.4062C24.0234 32.4062 24.4154 32.3177 24.7383 32.1406L24.7383 30.5039L23.4258 30.5039L23.4258 29.8125L25.5234 29.8125L25.5234 32.5859Z" fill="rgb(255,255,255)" fill-rule="nonzero" />
	<path id="矢量 111" d="M29.8086 8.44189L24.7461 8.44189C23.8123 8.44189 23.0586 7.68814 23.0586 6.75439L23.0586 1.69189" fill="rgb(153,153,153)" fill-rule="nonzero" />
	<path id="矢量 112" d="M17.9961 9.125C14.2746 9.125 11.2461 12.1535 11.2461 15.875C11.2461 19.5965 14.2746 22.625 17.9961 22.625C21.7176 22.625 24.7461 19.5965 24.7461 15.875C24.7461 12.1535 21.7176 9.125 17.9961 9.125ZM17.9961 10.25C21.109 10.25 23.6211 12.7621 23.6211 15.875C23.6211 18.9879 21.109 21.5 17.9961 21.5C14.8832 21.5 12.3711 18.9879 12.3711 15.875C12.3711 12.7621 14.8832 10.25 17.9961 10.25ZM17.9961 13.625C16.7597 13.625 15.7461 14.6386 15.7461 15.875C15.7461 17.1114 16.7597 18.125 17.9961 18.125C19.2325 18.125 20.2461 17.1114 20.2461 15.875C20.2461 14.6386 19.2325 13.625 17.9961 13.625ZM17.9961 14.75C18.6238 14.75 19.1211 15.2473 19.1211 15.875C19.1211 16.5028 18.6238 17 17.9961 17C17.3683 17 16.8711 16.5028 16.8711 15.875C16.8711 15.2473 17.3683 14.75 17.9961 14.75Z" fill="rgb(153,153,153)" fill-rule="nonzero" />
</svg>
