<svg viewBox="0 0 221 24" xmlns="http://www.w3.org/2000/svg" xmlns:xlink="http://www.w3.org/1999/xlink" width="221.000000" height="24.000000" fill="none" customFrame="#000000">
	<defs>
		<clipPath id="clipPath_108">
			<rect width="16.000002" height="16.000002" x="10.000000" y="4.000000" fill="rgb(255,255,255)" />
		</clipPath>
		<clipPath id="clipPath_109">
			<rect width="57.000000" height="16.000000" x="30.000000" y="4.000000" rx="4.000000" fill="rgb(255,255,255)" />
		</clipPath>
		<clipPath id="clipPath_110">
			<rect width="16.000002" height="16.000002" x="34.000000" y="4.000000" fill="rgb(255,255,255)" />
		</clipPath>
		<clipPath id="clipPath_111">
			<rect width="56.000000" height="16.000000" x="91.000000" y="4.000000" rx="4.000000" fill="rgb(255,255,255)" />
		</clipPath>
		<clipPath id="clipPath_112">
			<rect width="16.000002" height="16.000002" x="95.000000" y="4.000000" fill="rgb(255,255,255)" />
		</clipPath>
		<clipPath id="clipPath_113">
			<rect width="60.000000" height="16.000000" x="151.000000" y="4.000000" rx="4.000000" fill="rgb(255,255,255)" />
		</clipPath>
		<clipPath id="clipPath_114">
			<rect width="16.000002" height="16.000002" x="155.000000" y="4.000000" fill="rgb(255,255,255)" />
		</clipPath>
	</defs>
	<rect id="类型=键盘, 状态=按下" width="221.000000" height="24.000000" x="0.000000" y="0.000000" fill="rgb(230,230,230)" />
	<g id="键盘 1" clip-path="url(#clipPath_108)" customFrame="url(#clipPath_108)">
		<rect id="键盘 1" width="16.000002" height="16.000002" x="10.000000" y="4.000000" />
		<rect id="矩形 7" width="13.333334" height="8.000001" x="11.333313" y="10.000000" rx="0.666667" fill="rgb(51,51,51)" />
		<rect id="矩形 7" width="13.333334" height="8.000001" x="11.333313" y="10.000000" rx="0.666667" stroke="rgb(51,51,51)" stroke-linejoin="round" stroke-width="1" />
		<circle id="椭圆 11" cx="14.666667" cy="12.000041" r="0.666666746" fill="rgb(255,255,255)" />
		<circle id="椭圆 11" cx="14.666667" cy="12.000041" r="0.166666746" stroke="rgb(255,255,255)" stroke-width="1" />
		<circle id="椭圆 12" cx="15.333354" cy="14.000041" r="0.666666985" fill="rgb(255,255,255)" />
		<circle id="椭圆 12" cx="15.333354" cy="14.000041" r="0.166666985" stroke="rgb(255,255,255)" stroke-width="1" />
		<circle id="椭圆 13" cx="13.333354" cy="14.000041" r="0.666666746" fill="rgb(255,255,255)" />
		<circle id="椭圆 13" cx="13.333354" cy="14.000041" r="0.166666746" stroke="rgb(255,255,255)" stroke-width="1" />
		<circle id="椭圆 14" cx="16.666666" cy="12.000041" r="0.666666508" fill="rgb(255,255,255)" />
		<circle id="椭圆 14" cx="16.666666" cy="12.000041" r="0.166666508" stroke="rgb(255,255,255)" stroke-width="1" />
		<circle id="椭圆 15" cx="17.333353" cy="14.000041" r="0.666666746" fill="rgb(255,255,255)" />
		<circle id="椭圆 15" cx="17.333353" cy="14.000041" r="0.166666746" stroke="rgb(255,255,255)" stroke-width="1" />
		<circle id="椭圆 16" cx="18.666666" cy="12.000041" r="0.666666508" fill="rgb(255,255,255)" />
		<circle id="椭圆 16" cx="18.666666" cy="12.000041" r="0.166666508" stroke="rgb(255,255,255)" stroke-width="1" />
		<circle id="椭圆 17" cx="19.333353" cy="14.000041" r="0.666666508" fill="rgb(255,255,255)" />
		<circle id="椭圆 17" cx="19.333353" cy="14.000041" r="0.166666508" stroke="rgb(255,255,255)" stroke-width="1" />
		<circle id="椭圆 18" cx="20.6666679" cy="12.000041" r="0.666666985" fill="rgb(255,255,255)" />
		<circle id="椭圆 18" cx="20.6666679" cy="12.000041" r="0.166666985" stroke="rgb(255,255,255)" stroke-width="1" />
		<circle id="椭圆 19" cx="21.3333549" cy="14.000041" r="0.666666985" fill="rgb(255,255,255)" />
		<circle id="椭圆 19" cx="21.3333549" cy="14.000041" r="0.166666985" stroke="rgb(255,255,255)" stroke-width="1" />
		<circle id="椭圆 20" cx="22.666666" cy="12.000041" r="0.666666508" fill="rgb(255,255,255)" />
		<circle id="椭圆 20" cx="22.666666" cy="12.000041" r="0.166666508" stroke="rgb(255,255,255)" stroke-width="1" />
		<path id="矢量 95" d="M15.6667 16L20.3334 16" stroke="rgb(255,255,255)" stroke-linecap="round" stroke-linejoin="round" stroke-width="1" />
		<path id="矢量 96" d="M18 10L18 8.375C18 8.1909 18.1492 8.04167 18.3333 8.04167L20 8.04167C20.1841 8.04167 20.3333 7.89243 20.3333 7.70833L20.3333 6" fill-rule="nonzero" stroke="rgb(51,51,51)" stroke-linecap="round" stroke-linejoin="round" stroke-width="1" />
	</g>
	<g id="状态栏按键" clip-path="url(#clipPath_109)" customFrame="url(#clipPath_109)">
		<rect id="状态栏按键" width="57.000000" height="16.000000" x="30.000000" y="4.000000" rx="4.000000" fill="rgb(255,255,255)" fill-opacity="0" />
		<g id="点 1" clip-path="url(#clipPath_110)" customFrame="url(#clipPath_110)">
			<rect id="点 1" width="16.000002" height="16.000002" x="34.000000" y="4.000000" />
			<path id="矢量 11" d="M42 15C43.6569 15 45 13.6569 45 12C45 10.3431 43.6569 9 42 9C40.3431 9 39 10.3431 39 12C39 13.6569 40.3431 15 42 15Z" fill="rgb(0,205,27)" fill-rule="nonzero" />
			<path id="矢量 11" d="M45 12C45 10.3431 43.6569 9 42 9C40.3431 9 39 10.3431 39 12C39 13.6569 40.3431 15 42 15C43.6569 15 45 13.6569 45 12Z" fill-rule="nonzero" stroke="rgb(0,205,27)" stroke-width="1" />
		</g>
		<path id="" d="M62.584 16.5L61.1953 16.5L56.6309 9.43945C56.502 9.24023 56.3984 9.04297 56.3203 8.84766L56.2852 8.84766C56.3164 9.05078 56.332 9.47461 56.332 10.1191L56.332 16.5L55.1719 16.5L55.1719 7.42383L56.6426 7.42383L61.084 14.3613C61.2949 14.6895 61.4199 14.8984 61.459 14.9883L61.4824 14.9883C61.4434 14.7305 61.4238 14.2891 61.4238 13.6641L61.4238 7.42383L62.584 7.42383L62.584 16.5ZM70.1309 16.5L68.9766 16.5L68.9766 15.4805L68.9531 15.4805C68.5195 16.2617 67.8535 16.6523 66.9551 16.6523C65.4199 16.6523 64.6523 15.7344 64.6523 13.8984L64.6523 10.0195L65.7891 10.0195L65.7891 13.7285C65.7891 15.0449 66.293 15.7031 67.3008 15.7031C67.8008 15.7031 68.2051 15.5186 68.5137 15.1494C68.8223 14.7803 68.9766 14.3145 68.9766 13.752L68.9766 10.0195L70.1309 10.0195L70.1309 16.5ZM81.5039 16.5L80.3555 16.5L80.3555 12.7793C80.3555 12.0762 80.2461 11.5732 80.0273 11.2705C79.8086 10.9678 79.4492 10.8164 78.9492 10.8164C78.5273 10.8164 78.166 11.0137 77.8652 11.4082C77.5645 11.8027 77.4141 12.2695 77.4141 12.8086L77.4141 16.5L76.2656 16.5L76.2656 12.6621C76.2656 11.4316 75.791 10.8164 74.8418 10.8164C74.4043 10.8164 74.042 11.0039 73.7549 11.3789C73.4678 11.7539 73.3242 12.2324 73.3242 12.8145L73.3242 16.5L72.1758 16.5L72.1758 10.0195L73.3242 10.0195L73.3242 11.0449L73.3477 11.0449C73.8086 10.2598 74.4824 9.86719 75.3691 9.86719C75.8027 9.86719 76.1855 9.98633 76.5176 10.2246C76.8496 10.4629 77.0801 10.7852 77.209 11.1914C77.6895 10.3086 78.4082 9.86719 79.3652 9.86719C80.791 9.86719 81.5039 10.7461 81.5039 12.5039L81.5039 16.5Z" fill="rgb(51,51,51)" fill-rule="nonzero" />
	</g>
	<g id="状态栏按键" clip-path="url(#clipPath_111)" customFrame="url(#clipPath_111)">
		<rect id="状态栏按键" width="56.000000" height="16.000000" x="91.000000" y="4.000000" rx="4.000000" fill="rgb(255,255,255)" fill-opacity="0" />
		<g id="点 1" clip-path="url(#clipPath_112)" customFrame="url(#clipPath_112)">
			<rect id="点 1" width="16.000002" height="16.000002" x="95.000000" y="4.000000" />
			<path id="矢量 11" d="M103 15C104.657 15 106 13.6569 106 12C106 10.3431 104.657 9 103 9C101.343 9 100 10.3431 100 12C100 13.6569 101.343 15 103 15Z" fill="rgb(205,205,205)" fill-rule="nonzero" />
			<path id="矢量 11" d="M106 12C106 10.3431 104.657 9 103 9C101.343 9 100 10.3431 100 12C100 13.6569 101.343 15 103 15C104.657 15 106 13.6569 106 12Z" fill-rule="nonzero" stroke="rgb(205,205,205)" stroke-width="1" />
		</g>
		<path id="" d="M122.383 16.125C121.715 16.4766 120.877 16.6523 119.869 16.6523C118.568 16.6523 117.529 16.2393 116.752 15.4131C115.975 14.5869 115.586 13.4941 115.586 12.1348C115.586 10.6738 116.023 9.49805 116.898 8.60742C117.773 7.7168 118.885 7.27148 120.232 7.27148C121.1 7.27148 121.816 7.39453 122.383 7.64062L122.383 8.86523C121.734 8.50586 121.021 8.32617 120.244 8.32617C119.232 8.32617 118.408 8.66309 117.771 9.33691C117.135 10.0107 116.816 10.9199 116.816 12.0645C116.816 13.1504 117.113 14.0127 117.707 14.6514C118.301 15.29 119.078 15.6094 120.039 15.6094C120.938 15.6094 121.719 15.4062 122.383 15L122.383 16.125ZM124.205 10.4707C124.85 10.0684 125.594 9.86719 126.438 9.86719C128 9.86719 128.781 10.6875 128.781 12.3281L128.781 16.5L127.645 16.5L127.645 15.498L127.615 15.498C127.166 16.2676 126.504 16.6523 125.629 16.6523C125 16.6523 124.5 16.4824 124.129 16.1426C123.758 15.8027 123.572 15.3438 123.572 14.7656C123.572 13.5547 124.289 12.8496 125.723 12.6504L127.645 12.3809C127.645 11.3223 127.207 10.793 126.332 10.793C125.555 10.793 124.846 11.0547 124.205 11.5781L124.205 10.4707ZM126.127 13.4531C125.596 13.5234 125.229 13.6562 125.028 13.8516C124.827 14.0469 124.727 14.3203 124.727 14.6719C124.727 14.9805 124.836 15.2324 125.055 15.4277C125.273 15.623 125.562 15.7207 125.922 15.7207C126.422 15.7207 126.834 15.5449 127.158 15.1934C127.482 14.8418 127.645 14.4004 127.645 13.8691L127.645 13.248L126.127 13.4531ZM131.834 15.5859L131.834 19.4824L130.686 19.4824L130.686 10.0195L131.834 10.0195L131.834 11.1387L131.857 11.1387C132.365 10.291 133.107 9.86719 134.084 9.86719C134.912 9.86719 135.562 10.1572 136.032 10.7373C136.503 11.3174 136.738 12.0957 136.738 13.0723C136.738 14.1504 136.472 15.0166 135.938 15.6709C135.405 16.3252 134.688 16.6523 133.785 16.6523C132.953 16.6523 132.311 16.2969 131.857 15.5859L131.834 15.5859ZM131.828 13.8281C131.828 14.3555 131.998 14.7998 132.338 15.1611C132.678 15.5225 133.104 15.7031 133.615 15.7031C134.225 15.7031 134.701 15.4688 135.045 15C135.389 14.5312 135.561 13.8828 135.561 13.0547C135.561 12.3555 135.4 11.8076 135.08 11.4111C134.76 11.0146 134.322 10.8164 133.768 10.8164C133.201 10.8164 132.736 11.0176 132.373 11.4199C132.01 11.8223 131.828 12.3379 131.828 12.9668L131.828 13.8281ZM137.986 15.0996C138.564 15.5176 139.188 15.7266 139.855 15.7266C140.75 15.7266 141.197 15.4336 141.197 14.8477C141.197 14.5977 141.1 14.3916 140.904 14.2295C140.709 14.0674 140.312 13.875 139.715 13.6523C138.996 13.3633 138.529 13.0771 138.314 12.7939C138.1 12.5107 137.992 12.168 137.992 11.7656C137.992 11.1914 138.235 10.7314 138.722 10.3857C139.208 10.04 139.807 9.86719 140.518 9.86719C141.068 9.86719 141.58 9.96289 142.053 10.1543L142.053 11.2617C141.568 10.9492 141.02 10.793 140.406 10.793C140.039 10.793 139.74 10.873 139.51 11.0332C139.279 11.1934 139.164 11.4043 139.164 11.666C139.164 11.9238 139.247 12.125 139.413 12.2695C139.579 12.4141 139.947 12.5996 140.518 12.8262C141.24 13.0957 141.729 13.375 141.982 13.6641C142.236 13.9531 142.363 14.3105 142.363 14.7363C142.363 15.3301 142.12 15.7979 141.634 16.1396C141.147 16.4814 140.518 16.6523 139.744 16.6523C139.072 16.6523 138.486 16.5254 137.986 16.2715L137.986 15.0996Z" fill="rgb(51,51,51)" fill-rule="nonzero" />
	</g>
	<g id="状态栏按键" clip-path="url(#clipPath_113)" customFrame="url(#clipPath_113)">
		<rect id="状态栏按键" width="60.000000" height="16.000000" x="151.000000" y="4.000000" rx="4.000000" fill="rgb(255,255,255)" fill-opacity="0" />
		<g id="点 1" clip-path="url(#clipPath_114)" customFrame="url(#clipPath_114)">
			<rect id="点 1" width="16.000002" height="16.000002" x="155.000000" y="4.000000" />
			<path id="矢量 11" d="M163 15C164.657 15 166 13.6569 166 12C166 10.3431 164.657 9 163 9C161.343 9 160 10.3431 160 12C160 13.6569 161.343 15 163 15Z" fill="rgb(0,205,27)" fill-rule="nonzero" />
			<path id="矢量 11" d="M166 12C166 10.3431 164.657 9 163 9C161.343 9 160 10.3431 160 12C160 13.6569 161.343 15 163 15C164.657 15 166 13.6569 166 12Z" fill-rule="nonzero" stroke="rgb(0,205,27)" stroke-width="1" />
		</g>
		<path id="" d="M175.75 14.7949C176.027 15.0371 176.398 15.2363 176.863 15.3926C177.328 15.5488 177.77 15.627 178.188 15.627C179.461 15.627 180.098 15.1738 180.098 14.2676C180.098 14.0137 180.029 13.7852 179.893 13.582C179.756 13.3789 179.568 13.1992 179.33 13.043C179.092 12.8867 178.645 12.6465 177.988 12.3223C177.078 11.8691 176.479 11.4482 176.189 11.0596C175.9 10.6709 175.756 10.2266 175.756 9.72656C175.756 8.97266 176.059 8.375 176.664 7.93359C177.27 7.49219 178.033 7.27148 178.955 7.27148C179.857 7.27148 180.52 7.38086 180.941 7.59961L180.941 8.87695C180.395 8.49805 179.703 8.30859 178.867 8.30859C178.312 8.30859 177.86 8.4248 177.511 8.65723C177.161 8.88965 176.986 9.21289 176.986 9.62695C176.986 9.99414 177.107 10.293 177.35 10.5234C177.592 10.7539 178.117 11.0684 178.926 11.4668C179.816 11.8926 180.439 12.3184 180.795 12.7441C181.15 13.1699 181.328 13.6484 181.328 14.1797C181.328 14.9766 181.039 15.5879 180.461 16.0137C179.883 16.4395 179.08 16.6523 178.053 16.6523C177.693 16.6523 177.274 16.6025 176.796 16.5029C176.317 16.4033 175.969 16.2793 175.75 16.1309L175.75 14.7949ZM187.428 16.207C186.932 16.5039 186.334 16.6523 185.635 16.6523C184.697 16.6523 183.943 16.3516 183.373 15.75C182.803 15.1484 182.518 14.3691 182.518 13.4121C182.518 12.3496 182.825 11.4932 183.44 10.8428C184.056 10.1924 184.879 9.86719 185.91 9.86719C186.504 9.86719 187.012 9.97266 187.434 10.1836L187.434 11.3203C186.977 10.9844 186.469 10.8164 185.91 10.8164C185.254 10.8164 184.72 11.0439 184.308 11.499C183.896 11.9541 183.689 12.5605 183.689 13.3184C183.689 14.0645 183.884 14.6484 184.272 15.0703C184.661 15.4922 185.186 15.7031 185.846 15.7031C186.404 15.7031 186.932 15.5195 187.428 15.1523L187.428 16.207ZM192.443 11.1562C192.252 11.0195 191.988 10.9512 191.652 10.9512C191.207 10.9512 190.84 11.1592 190.551 11.5752C190.262 11.9912 190.117 12.5391 190.117 13.2188L190.117 16.5L188.969 16.5L188.969 10.0195L190.117 10.0195L190.117 11.3379L190.141 11.3379C190.469 10.3848 191.035 9.9082 191.84 9.9082C192.102 9.9082 192.303 9.9375 192.443 9.99609L192.443 11.1562ZM192.947 13.3301C192.947 12.2598 193.246 11.415 193.844 10.7959C194.441 10.1768 195.252 9.86719 196.275 9.86719C197.248 9.86719 198.011 10.165 198.563 10.7607C199.116 11.3564 199.393 12.1797 199.393 13.2305C199.393 14.2539 199.098 15.0801 198.508 15.709C197.918 16.3379 197.127 16.6523 196.135 16.6523C195.166 16.6523 194.393 16.3477 193.814 15.7383C193.236 15.1289 192.947 14.3262 192.947 13.3301ZM194.119 13.2949C194.119 14.041 194.308 14.6289 194.685 15.0586C195.062 15.4883 195.568 15.7031 196.205 15.7031C196.861 15.7031 197.361 15.4932 197.705 15.0732C198.049 14.6533 198.221 14.0508 198.221 13.2656C198.221 12.4766 198.049 11.8711 197.705 11.4492C197.361 11.0273 196.861 10.8164 196.205 10.8164C195.561 10.8164 195.052 11.0371 194.679 11.4785C194.306 11.9199 194.119 12.5254 194.119 13.2949ZM201.004 16.5L201.004 6.9082L202.152 6.9082L202.152 16.5L201.004 16.5ZM204.197 16.5L204.197 6.9082L205.346 6.9082L205.346 16.5L204.197 16.5Z" fill="rgb(51,51,51)" fill-rule="nonzero" />
	</g>
</svg>
