<svg viewBox="0 0 221 23.9999" xmlns="http://www.w3.org/2000/svg" xmlns:xlink="http://www.w3.org/1999/xlink" width="221.000000" height="23.999878" fill="none" customFrame="#000000">
	<defs>
		<clipPath id="clipPath_89">
			<rect width="16.000002" height="16.000002" x="10.000000" y="4.000000" fill="rgb(255,255,255)" />
		</clipPath>
		<clipPath id="clipPath_90">
			<rect width="57.000000" height="16.000000" x="30.000000" y="4.000000" rx="4.000000" fill="rgb(255,255,255)" />
		</clipPath>
		<clipPath id="clipPath_91">
			<rect width="16.000002" height="16.000002" x="34.000000" y="4.000000" fill="rgb(255,255,255)" />
		</clipPath>
		<clipPath id="clipPath_92">
			<rect width="56.000000" height="16.000000" x="91.000000" y="4.000000" rx="4.000000" fill="rgb(255,255,255)" />
		</clipPath>
		<clipPath id="clipPath_93">
			<rect width="16.000002" height="16.000002" x="95.000000" y="4.000000" fill="rgb(255,255,255)" />
		</clipPath>
		<clipPath id="clipPath_94">
			<rect width="60.000000" height="16.000000" x="151.000000" y="4.000000" rx="4.000000" fill="rgb(255,255,255)" />
		</clipPath>
		<clipPath id="clipPath_95">
			<rect width="16.000002" height="16.000002" x="155.000000" y="4.000000" fill="rgb(255,255,255)" />
		</clipPath>
	</defs>
	<rect id="类型=键盘, 状态=选中" width="221.000000" height="24.000000" x="0.000000" y="0.000000" />
	<g id="键盘 1" clip-path="url(#clipPath_89)" customFrame="url(#clipPath_89)">
		<rect id="键盘 1" width="16.000002" height="16.000002" x="10.000000" y="4.000000" />
		<rect id="矩形 7" width="13.333334" height="8.000001" x="11.333313" y="9.999878" rx="0.666667" fill="rgb(22,152,217)" />
		<rect id="矩形 7" width="13.333334" height="8.000001" x="11.333313" y="9.999878" rx="0.666667" stroke="rgb(22,152,217)" stroke-linejoin="round" stroke-width="1" />
		<circle id="椭圆 11" cx="14.666667" cy="12.000041" r="0.666666746" fill="rgb(255,255,255)" />
		<circle id="椭圆 11" cx="14.666667" cy="12.000041" r="0.166666746" stroke="rgb(255,255,255)" stroke-width="1" />
		<circle id="椭圆 12" cx="15.333354" cy="14.000041" r="0.666666985" fill="rgb(255,255,255)" />
		<circle id="椭圆 12" cx="15.333354" cy="14.000041" r="0.166666985" stroke="rgb(255,255,255)" stroke-width="1" />
		<circle id="椭圆 13" cx="13.333354" cy="14.000041" r="0.666666746" fill="rgb(255,255,255)" />
		<circle id="椭圆 13" cx="13.333354" cy="14.000041" r="0.166666746" stroke="rgb(255,255,255)" stroke-width="1" />
		<circle id="椭圆 14" cx="16.666666" cy="12.000041" r="0.666666508" fill="rgb(255,255,255)" />
		<circle id="椭圆 14" cx="16.666666" cy="12.000041" r="0.166666508" stroke="rgb(255,255,255)" stroke-width="1" />
		<circle id="椭圆 15" cx="17.333353" cy="14.000041" r="0.666666746" fill="rgb(255,255,255)" />
		<circle id="椭圆 15" cx="17.333353" cy="14.000041" r="0.166666746" stroke="rgb(255,255,255)" stroke-width="1" />
		<circle id="椭圆 16" cx="18.666666" cy="12.000041" r="0.666666508" fill="rgb(255,255,255)" />
		<circle id="椭圆 16" cx="18.666666" cy="12.000041" r="0.166666508" stroke="rgb(255,255,255)" stroke-width="1" />
		<circle id="椭圆 17" cx="19.333353" cy="14.000041" r="0.666666508" fill="rgb(255,255,255)" />
		<circle id="椭圆 17" cx="19.333353" cy="14.000041" r="0.166666508" stroke="rgb(255,255,255)" stroke-width="1" />
		<circle id="椭圆 18" cx="20.6666679" cy="12.000041" r="0.666666985" fill="rgb(255,255,255)" />
		<circle id="椭圆 18" cx="20.6666679" cy="12.000041" r="0.166666985" stroke="rgb(255,255,255)" stroke-width="1" />
		<circle id="椭圆 19" cx="21.3333549" cy="14.000041" r="0.666666985" fill="rgb(255,255,255)" />
		<circle id="椭圆 19" cx="21.3333549" cy="14.000041" r="0.166666985" stroke="rgb(255,255,255)" stroke-width="1" />
		<circle id="椭圆 20" cx="22.666666" cy="12.000041" r="0.666666508" fill="rgb(255,255,255)" />
		<circle id="椭圆 20" cx="22.666666" cy="12.000041" r="0.166666508" stroke="rgb(255,255,255)" stroke-width="1" />
		<path id="矢量 95" d="M15.6667 15.9999L20.3334 15.9999" stroke="rgb(255,255,255)" stroke-linecap="round" stroke-linejoin="round" stroke-width="1" />
		<path id="矢量 96" d="M18 9.99988L18 8.37488C18 8.19078 18.1492 8.04154 18.3333 8.04154L20 8.04154C20.1841 8.04154 20.3333 7.89231 20.3333 7.70821L20.3333 5.99988" fill-rule="nonzero" stroke="rgb(22,152,217)" stroke-linecap="round" stroke-linejoin="round" stroke-width="1" />
	</g>
	<g id="状态栏按键" clip-path="url(#clipPath_90)" customFrame="url(#clipPath_90)">
		<rect id="状态栏按键" width="57.000000" height="16.000000" x="30.000000" y="4.000000" rx="4.000000" fill="rgb(255,255,255)" fill-opacity="0" />
		<g id="点 1" clip-path="url(#clipPath_91)" customFrame="url(#clipPath_91)">
			<rect id="点 1" width="16.000002" height="16.000002" x="34.000000" y="4.000000" />
			<path id="矢量 11" d="M42 14.9999C43.6569 14.9999 45 13.6567 45 11.9999C45 10.343 43.6569 8.99988 42 8.99988C40.3431 8.99988 39 10.343 39 11.9999C39 13.6567 40.3431 14.9999 42 14.9999Z" fill="rgb(0,205,27)" fill-rule="nonzero" />
			<path id="矢量 11" d="M45 11.9999C45 10.343 43.6569 8.99988 42 8.99988C40.3431 8.99988 39 10.343 39 11.9999C39 13.6567 40.3431 14.9999 42 14.9999C43.6569 14.9999 45 13.6567 45 11.9999Z" fill-rule="nonzero" stroke="rgb(0,205,27)" stroke-width="1" />
		</g>
		<path id="" d="M62.584 16.4999L61.1953 16.4999L56.6309 9.43933C56.502 9.24011 56.3984 9.04285 56.3203 8.84753L56.2852 8.84753C56.3164 9.05066 56.332 9.47449 56.332 10.119L56.332 16.4999L55.1719 16.4999L55.1719 7.42371L56.6426 7.42371L61.084 14.3612C61.2949 14.6893 61.4199 14.8983 61.459 14.9882L61.4824 14.9882C61.4434 14.7303 61.4238 14.2889 61.4238 13.6639L61.4238 7.42371L62.584 7.42371L62.584 16.4999ZM70.1309 16.4999L68.9766 16.4999L68.9766 15.4803L68.9531 15.4803C68.5195 16.2616 67.8535 16.6522 66.9551 16.6522C65.4199 16.6522 64.6523 15.7343 64.6523 13.8983L64.6523 10.0194L65.7891 10.0194L65.7891 13.7284C65.7891 15.0448 66.293 15.703 67.3008 15.703C67.8008 15.703 68.2051 15.5184 68.5137 15.1493C68.8223 14.7802 68.9766 14.3143 68.9766 13.7518L68.9766 10.0194L70.1309 10.0194L70.1309 16.4999ZM81.5039 16.4999L80.3555 16.4999L80.3555 12.7792C80.3555 12.076 80.2461 11.5731 80.0273 11.2704C79.8086 10.9677 79.4492 10.8163 78.9492 10.8163C78.5273 10.8163 78.166 11.0135 77.8652 11.4081C77.5645 11.8026 77.4141 12.2694 77.4141 12.8085L77.4141 16.4999L76.2656 16.4999L76.2656 12.662C76.2656 11.4315 75.791 10.8163 74.8418 10.8163C74.4043 10.8163 74.042 11.0038 73.7549 11.3788C73.4678 11.7538 73.3242 12.2323 73.3242 12.8143L73.3242 16.4999L72.1758 16.4999L72.1758 10.0194L73.3242 10.0194L73.3242 11.0448L73.3477 11.0448C73.8086 10.2596 74.4824 9.86707 75.3691 9.86707C75.8027 9.86707 76.1855 9.98621 76.5176 10.2245C76.8496 10.4628 77.0801 10.785 77.209 11.1913C77.6895 10.3085 78.4082 9.86707 79.3652 9.86707C80.791 9.86707 81.5039 10.746 81.5039 12.5038L81.5039 16.4999Z" fill="rgb(51,51,51)" fill-rule="nonzero" />
	</g>
	<g id="状态栏按键" clip-path="url(#clipPath_92)" customFrame="url(#clipPath_92)">
		<rect id="状态栏按键" width="56.000000" height="16.000000" x="91.000000" y="4.000000" rx="4.000000" fill="rgb(255,255,255)" fill-opacity="0" />
		<g id="点 1" clip-path="url(#clipPath_93)" customFrame="url(#clipPath_93)">
			<rect id="点 1" width="16.000002" height="16.000002" x="95.000000" y="4.000000" />
			<path id="矢量 11" d="M103 14.9999C104.657 14.9999 106 13.6567 106 11.9999C106 10.343 104.657 8.99988 103 8.99988C101.343 8.99988 100 10.343 100 11.9999C100 13.6567 101.343 14.9999 103 14.9999Z" fill="rgb(205,205,205)" fill-rule="nonzero" />
			<path id="矢量 11" d="M106 11.9999C106 10.343 104.657 8.99988 103 8.99988C101.343 8.99988 100 10.343 100 11.9999C100 13.6567 101.343 14.9999 103 14.9999C104.657 14.9999 106 13.6567 106 11.9999Z" fill-rule="nonzero" stroke="rgb(205,205,205)" stroke-width="1" />
		</g>
		<path id="" d="M122.383 16.1249C121.715 16.4764 120.877 16.6522 119.869 16.6522C118.568 16.6522 117.529 16.2391 116.752 15.413C115.975 14.5868 115.586 13.494 115.586 12.1346C115.586 10.6737 116.023 9.49792 116.898 8.6073C117.773 7.71667 118.885 7.27136 120.232 7.27136C121.1 7.27136 121.816 7.39441 122.383 7.6405L122.383 8.86511C121.734 8.50574 121.021 8.32605 120.244 8.32605C119.232 8.32605 118.408 8.66296 117.771 9.33679C117.135 10.0106 116.816 10.9198 116.816 12.0643C116.816 13.1503 117.113 14.0126 117.707 14.6512C118.301 15.2899 119.078 15.6093 120.039 15.6093C120.938 15.6093 121.719 15.4061 122.383 14.9999L122.383 16.1249ZM124.205 10.4706C124.85 10.0682 125.594 9.86707 126.438 9.86707C128 9.86707 128.781 10.6874 128.781 12.328L128.781 16.4999L127.645 16.4999L127.645 15.4979L127.615 15.4979C127.166 16.2675 126.504 16.6522 125.629 16.6522C125 16.6522 124.5 16.4823 124.129 16.1425C123.758 15.8026 123.572 15.3436 123.572 14.7655C123.572 13.5546 124.289 12.8495 125.723 12.6503L127.645 12.3807C127.645 11.3221 127.207 10.7928 126.332 10.7928C125.555 10.7928 124.846 11.0546 124.205 11.578L124.205 10.4706ZM126.127 13.453C125.596 13.5233 125.229 13.6561 125.028 13.8514C124.827 14.0468 124.727 14.3202 124.727 14.6718C124.727 14.9803 124.836 15.2323 125.055 15.4276C125.273 15.6229 125.562 15.7206 125.922 15.7206C126.422 15.7206 126.834 15.5448 127.158 15.1932C127.482 14.8417 127.645 14.4003 127.645 13.869L127.645 13.2479L126.127 13.453ZM131.834 15.5858L131.834 19.4823L130.686 19.4823L130.686 10.0194L131.834 10.0194L131.834 11.1385L131.857 11.1385C132.365 10.2909 133.107 9.86707 134.084 9.86707C134.912 9.86707 135.562 10.1571 136.032 10.7372C136.503 11.3173 136.738 12.0956 136.738 13.0721C136.738 14.1503 136.472 15.0165 135.938 15.6708C135.405 16.3251 134.688 16.6522 133.785 16.6522C132.953 16.6522 132.311 16.2968 131.857 15.5858L131.834 15.5858ZM131.828 13.828C131.828 14.3553 131.998 14.7997 132.338 15.161C132.678 15.5223 133.104 15.703 133.615 15.703C134.225 15.703 134.701 15.4686 135.045 14.9999C135.389 14.5311 135.561 13.8827 135.561 13.0546C135.561 12.3553 135.4 11.8075 135.08 11.411C134.76 11.0145 134.322 10.8163 133.768 10.8163C133.201 10.8163 132.736 11.0175 132.373 11.4198C132.01 11.8221 131.828 12.3378 131.828 12.9667L131.828 13.828ZM137.986 15.0995C138.564 15.5175 139.188 15.7264 139.855 15.7264C140.75 15.7264 141.197 15.4335 141.197 14.8475C141.197 14.5975 141.1 14.3915 140.904 14.2294C140.709 14.0673 140.312 13.8749 139.715 13.6522C138.996 13.3632 138.529 13.077 138.314 12.7938C138.1 12.5106 137.992 12.1678 137.992 11.7655C137.992 11.1913 138.235 10.7313 138.722 10.3856C139.208 10.0399 139.807 9.86707 140.518 9.86707C141.068 9.86707 141.58 9.96277 142.053 10.1542L142.053 11.2616C141.568 10.9491 141.02 10.7928 140.406 10.7928C140.039 10.7928 139.74 10.8729 139.51 11.0331C139.279 11.1932 139.164 11.4042 139.164 11.6659C139.164 11.9237 139.247 12.1249 139.413 12.2694C139.579 12.4139 139.947 12.5995 140.518 12.826C141.24 13.0956 141.729 13.3749 141.982 13.6639C142.236 13.953 142.363 14.3104 142.363 14.7362C142.363 15.33 142.12 15.7977 141.634 16.1395C141.147 16.4813 140.518 16.6522 139.744 16.6522C139.072 16.6522 138.486 16.5253 137.986 16.2714L137.986 15.0995Z" fill="rgb(51,51,51)" fill-rule="nonzero" />
	</g>
	<g id="状态栏按键" clip-path="url(#clipPath_94)" customFrame="url(#clipPath_94)">
		<rect id="状态栏按键" width="60.000000" height="16.000000" x="151.000000" y="4.000000" rx="4.000000" fill="rgb(255,255,255)" fill-opacity="0" />
		<g id="点 1" clip-path="url(#clipPath_95)" customFrame="url(#clipPath_95)">
			<rect id="点 1" width="16.000002" height="16.000002" x="155.000000" y="4.000000" />
			<path id="矢量 11" d="M163 14.9999C164.657 14.9999 166 13.6567 166 11.9999C166 10.343 164.657 8.99988 163 8.99988C161.343 8.99988 160 10.343 160 11.9999C160 13.6567 161.343 14.9999 163 14.9999Z" fill="rgb(0,205,27)" fill-rule="nonzero" />
			<path id="矢量 11" d="M166 11.9999C166 10.343 164.657 8.99988 163 8.99988C161.343 8.99988 160 10.343 160 11.9999C160 13.6567 161.343 14.9999 163 14.9999C164.657 14.9999 166 13.6567 166 11.9999Z" fill-rule="nonzero" stroke="rgb(0,205,27)" stroke-width="1" />
		</g>
		<path id="" d="M175.75 14.7948C176.027 15.037 176.398 15.2362 176.863 15.3925C177.328 15.5487 177.77 15.6268 178.188 15.6268C179.461 15.6268 180.098 15.1737 180.098 14.2675C180.098 14.0135 180.029 13.785 179.893 13.5819C179.756 13.3788 179.568 13.1991 179.33 13.0428C179.092 12.8866 178.645 12.6464 177.988 12.3221C177.078 11.869 176.479 11.4481 176.189 11.0594C175.9 10.6708 175.756 10.2264 175.756 9.72644C175.756 8.97253 176.059 8.37488 176.664 7.93347C177.27 7.49207 178.033 7.27136 178.955 7.27136C179.857 7.27136 180.52 7.38074 180.941 7.59949L180.941 8.87683C180.395 8.49792 179.703 8.30847 178.867 8.30847C178.312 8.30847 177.86 8.42468 177.511 8.6571C177.161 8.88953 176.986 9.21277 176.986 9.62683C176.986 9.99402 177.107 10.2928 177.35 10.5233C177.592 10.7538 178.117 11.0682 178.926 11.4667C179.816 11.8925 180.439 12.3182 180.795 12.744C181.15 13.1698 181.328 13.6483 181.328 14.1796C181.328 14.9764 181.039 15.5878 180.461 16.0135C179.883 16.4393 179.08 16.6522 178.053 16.6522C177.693 16.6522 177.274 16.6024 176.796 16.5028C176.317 16.4032 175.969 16.2792 175.75 16.1307L175.75 14.7948ZM187.428 16.2069C186.932 16.5038 186.334 16.6522 185.635 16.6522C184.697 16.6522 183.943 16.3514 183.373 15.7499C182.803 15.1483 182.518 14.369 182.518 13.412C182.518 12.3495 182.825 11.493 183.44 10.8427C184.056 10.1923 184.879 9.86707 185.91 9.86707C186.504 9.86707 187.012 9.97253 187.434 10.1835L187.434 11.3202C186.977 10.9843 186.469 10.8163 185.91 10.8163C185.254 10.8163 184.72 11.0438 184.308 11.4989C183.896 11.954 183.689 12.5604 183.689 13.3182C183.689 14.0643 183.884 14.6483 184.272 15.0702C184.661 15.4921 185.186 15.703 185.846 15.703C186.404 15.703 186.932 15.5194 187.428 15.1522L187.428 16.2069ZM192.443 11.1561C192.252 11.0194 191.988 10.951 191.652 10.951C191.207 10.951 190.84 11.1591 190.551 11.5751C190.262 11.9911 190.117 12.5389 190.117 13.2186L190.117 16.4999L188.969 16.4999L188.969 10.0194L190.117 10.0194L190.117 11.3378L190.141 11.3378C190.469 10.3846 191.035 9.90808 191.84 9.90808C192.102 9.90808 192.303 9.93738 192.443 9.99597L192.443 11.1561ZM192.947 13.33C192.947 12.2596 193.246 11.4149 193.844 10.7958C194.441 10.1766 195.252 9.86707 196.275 9.86707C197.248 9.86707 198.011 10.1649 198.563 10.7606C199.116 11.3563 199.393 12.1796 199.393 13.2303C199.393 14.2538 199.098 15.08 198.508 15.7089C197.918 16.3378 197.127 16.6522 196.135 16.6522C195.166 16.6522 194.393 16.3475 193.814 15.7382C193.236 15.1288 192.947 14.326 192.947 13.33ZM194.119 13.2948C194.119 14.0409 194.308 14.6288 194.685 15.0585C195.062 15.4882 195.568 15.703 196.205 15.703C196.861 15.703 197.361 15.493 197.705 15.0731C198.049 14.6532 198.221 14.0507 198.221 13.2655C198.221 12.4764 198.049 11.871 197.705 11.4491C197.361 11.0272 196.861 10.8163 196.205 10.8163C195.561 10.8163 195.052 11.037 194.679 11.4784C194.306 11.9198 194.119 12.5253 194.119 13.2948ZM201.004 16.4999L201.004 6.90808L202.152 6.90808L202.152 16.4999L201.004 16.4999ZM204.197 16.4999L204.197 6.90808L205.346 6.90808L205.346 16.4999L204.197 16.4999Z" fill="rgb(51,51,51)" fill-rule="nonzero" />
	</g>
</svg>
