<svg viewBox="0 0 16 16" xmlns="http://www.w3.org/2000/svg" xmlns:xlink="http://www.w3.org/1999/xlink" width="16.000000" height="16.000000" fill="none">
	<rect id="从动装置 1" width="16.000002" height="16.000002" x="0.000000" y="0.000000" />
	<path id="矢量 12" d="M14.6666 9.6665L1.33331 9.6665L1.33331 13.9998L14.6666 13.9998L14.6666 9.6665Z" fill="currentColor" fill-rule="nonzero" />
	<path id="矢量 12" d="M1.33331 9.6665L1.33331 13.9998L14.6666 13.9998L14.6666 9.6665L1.33331 9.6665Z" fill-rule="nonzero" stroke="currentColor" stroke-linejoin="round" stroke-width="1" />
	<path id="矢量 13" d="M1.33331 9.66677L3.01277 1.6665L13.0068 1.6665L14.6666 9.66677" fill-rule="nonzero" stroke="currentColor" stroke-linejoin="round" stroke-width="1" />
	<path id="矢量 14" d="M6.33335 4C5.41289 4 4.66669 4.7462 4.66669 5.66667C4.66669 6.58713 5.41289 7.33333 6.33335 7.33333" fill-rule="nonzero" stroke="currentColor" stroke-linecap="round" stroke-width="1" />
	<path id="矢量 15" d="M9.66669 7.33333C10.5872 7.33333 11.3334 6.58713 11.3334 5.66667C11.3334 4.7462 10.5872 4 9.66669 4" fill-rule="nonzero" stroke="currentColor" stroke-linecap="round" stroke-width="1" />
	<path id="矢量 16" d="M6.66669 5.6665L9.33335 5.6665" stroke="currentColor" stroke-linecap="round" stroke-width="1" />
</svg>
