<svg viewBox="0 0 16 16" xmlns="http://www.w3.org/2000/svg" xmlns:xlink="http://www.w3.org/1999/xlink" width="16.000000" height="16.000000" fill="none">
	<rect id="命令键 1" width="16.000002" height="16.000002" x="0.000000" y="0.000000" />
	<path id="矢量 11" d="M4.96962 4.96962C4.96962 4.07769 4.96962 3.47162 4.96962 3.15144C4.96962 2.14728 4.15559 1.33325 3.15144 1.33325C2.14728 1.33325 1.33325 2.14728 1.33325 3.15144C1.33325 4.15559 2.14728 4.96962 3.15144 4.96962C3.50069 4.96962 4.10675 4.96962 4.96962 4.96962Z" fill-rule="nonzero" stroke="rgb(45,106,229)" stroke-linejoin="round" stroke-width="1" />
	<path id="矢量 12" d="M4.96962 11.0303L4.96962 12.8484C4.96962 13.8526 4.15559 14.6666 3.15144 14.6666C2.14728 14.6666 1.33325 13.8526 1.33325 12.8484C1.33325 11.8443 2.14728 11.0303 3.15144 11.0303L4.96962 11.0303Z" fill-rule="nonzero" stroke="rgb(45,106,229)" stroke-linejoin="round" stroke-width="1" />
	<rect id="矩形 1" width="6.060601" height="6.060601" x="4.969727" y="4.969727" stroke="rgb(45,106,229)" stroke-linecap="round" stroke-linejoin="round" stroke-width="1" />
	<path id="矢量 13" d="M11.0303 4.96962L11.0303 3.15144C11.0303 2.14728 11.8443 1.33325 12.8485 1.33325C13.8526 1.33325 14.6666 2.14728 14.6666 3.15144C14.6666 4.15559 13.8526 4.96962 12.8485 4.96962L11.0303 4.96962Z" fill-rule="nonzero" stroke="rgb(45,106,229)" stroke-linejoin="round" stroke-width="1" />
	<path id="矢量 14" d="M14.6666 12.8484C14.6666 13.8526 13.8526 14.6666 12.8485 14.6666C11.8443 14.6666 11.0303 13.8526 11.0303 12.8484L11.0303 11.0303L12.8485 11.0303C13.8526 11.0303 14.6666 11.8443 14.6666 12.8484Z" fill-rule="nonzero" stroke="rgb(45,106,229)" stroke-linejoin="round" stroke-width="1" />
</svg>
