<svg viewBox="0 0 16 16" xmlns="http://www.w3.org/2000/svg" xmlns:xlink="http://www.w3.org/1999/xlink" width="16.000000" height="16.000000" fill="none">
	<rect id="命令键 1" width="16.000002" height="16.000002" x="0.000000" y="0.000000" />
	<path id="矢量 11" d="M4.9697 4.96974C4.9697 4.07781 4.9697 3.47174 4.9697 3.15156C4.9697 2.1474 4.15566 1.33337 3.15151 1.33337C2.14736 1.33337 1.33333 2.1474 1.33333 3.15156C1.33333 4.15571 2.14736 4.96974 3.15151 4.96974C3.50076 4.96974 4.10683 4.96974 4.9697 4.96974Z" fill-rule="nonzero" stroke="currentColor" stroke-linejoin="round" stroke-width="1" />
	<path id="矢量 12" d="M4.9697 11.0303L4.9697 12.8484C4.9697 13.8526 4.15566 14.6666 3.15151 14.6666C2.14736 14.6666 1.33333 13.8526 1.33333 12.8484C1.33333 11.8443 2.14736 11.0303 3.15151 11.0303L4.9697 11.0303Z" fill-rule="nonzero" stroke="currentColor" stroke-linejoin="round" stroke-width="1" />
	<rect id="矩形 1" width="6.060601" height="6.060601" x="4.969727" y="4.969727" stroke="currentColor" stroke-linecap="round" stroke-linejoin="round" stroke-width="1" />
	<path id="矢量 13" d="M11.0303 4.96974L11.0303 3.15156C11.0303 2.1474 11.8443 1.33337 12.8485 1.33337C13.8526 1.33337 14.6666 2.1474 14.6666 3.15156C14.6666 4.15571 13.8526 4.96974 12.8485 4.96974L11.0303 4.96974Z" fill-rule="nonzero" stroke="currentColor" stroke-linejoin="round" stroke-width="1" />
	<path id="矢量 14" d="M14.6666 12.8484C14.6666 13.8526 13.8526 14.6666 12.8485 14.6666C11.8443 14.6666 11.0303 13.8526 11.0303 12.8484L11.0303 11.0303L12.8485 11.0303C13.8526 11.0303 14.6666 11.8443 14.6666 12.8484Z" fill-rule="nonzero" stroke="currentColor" stroke-linejoin="round" stroke-width="1" />
</svg>
