<svg viewBox="0 0 80 23.9999" xmlns="http://www.w3.org/2000/svg" xmlns:xlink="http://www.w3.org/1999/xlink" width="80.000000" height="23.999878" fill="none">
	<defs>
		<clipPath id="clipPath_96">
			<rect width="16.000002" height="16.000002" x="10.000000" y="4.000000" fill="rgb(255,255,255)" />
		</clipPath>
	</defs>
	<rect id="类型=鼠标, 状态=选中" width="80.000000" height="24.000000" x="0.000000" y="0.000000" fill="rgb(255,255,255)" fill-opacity="0" />
	<g id="鼠标 1" clip-path="url(#clipPath_96)" customFrame="url(#clipPath_96)">
		<rect id="鼠标 1" width="16.000002" height="16.000002" x="10.000000" y="4.000000" />
		<path id="矢量 12" d="M18 9.33337L14 9.33337L14 14.6667C14 16.8758 15.7909 18.6667 18 18.6667C20.2091 18.6667 22 16.8758 22 14.6667L22 9.33337L18 9.33337Z" fill="rgb(22,152,217)" fill-rule="evenodd" />
		<path id="矢量 12" d="M14 9.33337L14 14.6667C14 16.8758 15.7909 18.6667 18 18.6667C20.2091 18.6667 22 16.8758 22 14.6667L22 9.33337L18 9.33337L14 9.33337Z" fill-rule="evenodd" stroke="rgb(22,152,217)" stroke-linecap="round" stroke-linejoin="round" stroke-width="1" />
		<path id="矢量 13" d="M18 5.33337L18 9.33337L22 9.33337C22 7.12423 20.2091 5.33337 18 5.33337Z" fill-rule="nonzero" stroke="rgb(22,152,217)" stroke-linecap="round" stroke-linejoin="round" stroke-width="1" />
		<path id="矢量 14" d="M14 9.33337L18 9.33337L18 5.33337C15.7909 5.33337 14 7.12423 14 9.33337Z" fill-rule="nonzero" stroke="rgb(22,152,217)" stroke-linecap="round" stroke-linejoin="round" stroke-width="1" />
	</g>
	<path id="" d="M39.3809 16.4999L39.3809 10.4882C39.3809 9.99207 39.4102 9.39636 39.4688 8.70105L39.4395 8.70105C39.3379 9.13855 39.248 9.44324 39.1699 9.61511L36.1758 16.4999L35.5254 16.4999L32.5371 9.66785C32.4668 9.5116 32.377 9.18933 32.2676 8.70105L32.2324 8.70105C32.2715 9.12292 32.291 9.73621 32.291 10.5409L32.291 16.4999L31.1719 16.4999L31.1719 7.42371L32.7598 7.42371L35.4375 13.6464C35.6406 14.1229 35.7754 14.494 35.8418 14.7596L35.8828 14.7596C36.0859 14.201 36.2285 13.8221 36.3105 13.6229L39.0352 7.42371L40.5469 7.42371L40.5469 16.4999L39.3809 16.4999ZM42.3164 13.33C42.3164 12.2596 42.6152 11.4149 43.2129 10.7958C43.8105 10.1766 44.6211 9.86707 45.6445 9.86707C46.6172 9.86707 47.3799 10.1649 47.9326 10.7606C48.4854 11.3563 48.7617 12.1796 48.7617 13.2303C48.7617 14.2538 48.4668 15.08 47.877 15.7089C47.2871 16.3378 46.4961 16.6522 45.5039 16.6522C44.5352 16.6522 43.7617 16.3475 43.1836 15.7382C42.6055 15.1288 42.3164 14.326 42.3164 13.33ZM43.4883 13.2948C43.4883 14.0409 43.6768 14.6288 44.0537 15.0585C44.4307 15.4882 44.9375 15.703 45.5742 15.703C46.2305 15.703 46.7305 15.493 47.0742 15.0731C47.418 14.6532 47.5898 14.0507 47.5898 13.2655C47.5898 12.4764 47.418 11.871 47.0742 11.4491C46.7305 11.0272 46.2305 10.8163 45.5742 10.8163C44.9297 10.8163 44.4209 11.037 44.0479 11.4784C43.6748 11.9198 43.4883 12.5253 43.4883 13.2948ZM55.7285 16.4999L54.5742 16.4999L54.5742 15.4803L54.5508 15.4803C54.1172 16.2616 53.4512 16.6522 52.5527 16.6522C51.0176 16.6522 50.25 15.7343 50.25 13.8983L50.25 10.0194L51.3867 10.0194L51.3867 13.7284C51.3867 15.0448 51.8906 15.703 52.8984 15.703C53.3984 15.703 53.8027 15.5184 54.1113 15.1493C54.4199 14.7802 54.5742 14.3143 54.5742 13.7518L54.5742 10.0194L55.7285 10.0194L55.7285 16.4999ZM57.4102 15.0995C57.9883 15.5175 58.6113 15.7264 59.2793 15.7264C60.1738 15.7264 60.6211 15.4335 60.6211 14.8475C60.6211 14.5975 60.5234 14.3915 60.3281 14.2294C60.1328 14.0673 59.7363 13.8749 59.1387 13.6522C58.4199 13.3632 57.9531 13.077 57.7383 12.7938C57.5234 12.5106 57.416 12.1678 57.416 11.7655C57.416 11.1913 57.6592 10.7313 58.1455 10.3856C58.6318 10.0399 59.2305 9.86707 59.9414 9.86707C60.4922 9.86707 61.0039 9.96277 61.4766 10.1542L61.4766 11.2616C60.9922 10.9491 60.4434 10.7928 59.8301 10.7928C59.4629 10.7928 59.1641 10.8729 58.9336 11.0331C58.7031 11.1932 58.5879 11.4042 58.5879 11.6659C58.5879 11.9237 58.6709 12.1249 58.8369 12.2694C59.0029 12.4139 59.3711 12.5995 59.9414 12.826C60.6641 13.0956 61.1523 13.3749 61.4062 13.6639C61.6602 13.953 61.7871 14.3104 61.7871 14.7362C61.7871 15.33 61.5439 15.7977 61.0576 16.1395C60.5713 16.4813 59.9414 16.6522 59.168 16.6522C58.4961 16.6522 57.9102 16.5253 57.4102 16.2714L57.4102 15.0995ZM68.6074 13.5526L64.0723 13.5526C64.0918 14.244 64.2812 14.7782 64.6406 15.1552C65 15.5321 65.502 15.7206 66.1465 15.7206C66.873 15.7206 67.5391 15.4882 68.1445 15.0233L68.1445 16.0487C67.5742 16.451 66.8184 16.6522 65.877 16.6522C64.9395 16.6522 64.208 16.3553 63.6826 15.7616C63.1572 15.1678 62.8945 14.3436 62.8945 13.2889C62.8945 12.2968 63.1826 11.4784 63.7588 10.8339C64.335 10.1893 65.0508 9.86707 65.9062 9.86707C66.7539 9.86707 67.416 10.1395 67.8926 10.6844C68.3691 11.2294 68.6074 11.9921 68.6074 12.9725L68.6074 13.5526ZM67.459 12.6327C67.4551 12.0468 67.3164 11.5936 67.043 11.2733C66.7695 10.953 66.3848 10.7928 65.8887 10.7928C65.4316 10.7928 65.0361 10.9628 64.7021 11.3026C64.3682 11.6425 64.1582 12.0858 64.0723 12.6327L67.459 12.6327Z" fill="rgb(51,51,51)" fill-rule="nonzero" />
</svg>
