<svg viewBox="0 0 80 24" xmlns="http://www.w3.org/2000/svg" xmlns:xlink="http://www.w3.org/1999/xlink" width="80.000000" height="24.000000" fill="none">
	<defs>
		<clipPath id="clipPath_107">
			<rect width="16.000002" height="16.000002" x="10.000000" y="4.000000" fill="rgb(255,255,255)" />
		</clipPath>
	</defs>
	<rect id="类型=鼠标, 状态=按下" width="80.000000" height="24.000000" x="0.000000" y="0.000000" fill="rgb(230,230,230)" />
	<g id="鼠标 1" clip-path="url(#clipPath_107)" customFrame="url(#clipPath_107)">
		<rect id="鼠标 1" width="16.000002" height="16.000002" x="10.000000" y="4.000000" />
		<path id="矢量 12" d="M18 9.33337L14 9.33337L14 14.6667C14 16.8758 15.7909 18.6667 18 18.6667C20.2091 18.6667 22 16.8758 22 14.6667L22 9.33337L18 9.33337Z" fill="rgb(51,51,51)" fill-rule="evenodd" />
		<path id="矢量 12" d="M14 9.33337L14 14.6667C14 16.8758 15.7909 18.6667 18 18.6667C20.2091 18.6667 22 16.8758 22 14.6667L22 9.33337L18 9.33337L14 9.33337Z" fill-rule="evenodd" stroke="rgb(51,51,51)" stroke-linecap="round" stroke-linejoin="round" stroke-width="1" />
		<path id="矢量 13" d="M18 5.33337L18 9.33337L22 9.33337C22 7.12423 20.2091 5.33337 18 5.33337Z" fill-rule="nonzero" stroke="rgb(51,51,51)" stroke-linecap="round" stroke-linejoin="round" stroke-width="1" />
		<path id="矢量 14" d="M14 9.33337L18 9.33337L18 5.33337C15.7909 5.33337 14 7.12423 14 9.33337Z" fill-rule="nonzero" stroke="rgb(51,51,51)" stroke-linecap="round" stroke-linejoin="round" stroke-width="1" />
	</g>
	<path id="" d="M39.3809 16.5L39.3809 10.4883C39.3809 9.99219 39.4102 9.39648 39.4688 8.70117L39.4395 8.70117C39.3379 9.13867 39.248 9.44336 39.1699 9.61523L36.1758 16.5L35.5254 16.5L32.5371 9.66797C32.4668 9.51172 32.377 9.18945 32.2676 8.70117L32.2324 8.70117C32.2715 9.12305 32.291 9.73633 32.291 10.541L32.291 16.5L31.1719 16.5L31.1719 7.42383L32.7598 7.42383L35.4375 13.6465C35.6406 14.123 35.7754 14.4941 35.8418 14.7598L35.8828 14.7598C36.0859 14.2012 36.2285 13.8223 36.3105 13.623L39.0352 7.42383L40.5469 7.42383L40.5469 16.5L39.3809 16.5ZM42.3164 13.3301C42.3164 12.2598 42.6152 11.415 43.2129 10.7959C43.8105 10.1768 44.6211 9.86719 45.6445 9.86719C46.6172 9.86719 47.3799 10.165 47.9326 10.7607C48.4854 11.3564 48.7617 12.1797 48.7617 13.2305C48.7617 14.2539 48.4668 15.0801 47.877 15.709C47.2871 16.3379 46.4961 16.6523 45.5039 16.6523C44.5352 16.6523 43.7617 16.3477 43.1836 15.7383C42.6055 15.1289 42.3164 14.3262 42.3164 13.3301ZM43.4883 13.2949C43.4883 14.041 43.6768 14.6289 44.0537 15.0586C44.4307 15.4883 44.9375 15.7031 45.5742 15.7031C46.2305 15.7031 46.7305 15.4932 47.0742 15.0732C47.418 14.6533 47.5898 14.0508 47.5898 13.2656C47.5898 12.4766 47.418 11.8711 47.0742 11.4492C46.7305 11.0273 46.2305 10.8164 45.5742 10.8164C44.9297 10.8164 44.4209 11.0371 44.0479 11.4785C43.6748 11.9199 43.4883 12.5254 43.4883 13.2949ZM55.7285 16.5L54.5742 16.5L54.5742 15.4805L54.5508 15.4805C54.1172 16.2617 53.4512 16.6523 52.5527 16.6523C51.0176 16.6523 50.25 15.7344 50.25 13.8984L50.25 10.0195L51.3867 10.0195L51.3867 13.7285C51.3867 15.0449 51.8906 15.7031 52.8984 15.7031C53.3984 15.7031 53.8027 15.5186 54.1113 15.1494C54.4199 14.7803 54.5742 14.3145 54.5742 13.752L54.5742 10.0195L55.7285 10.0195L55.7285 16.5ZM57.4102 15.0996C57.9883 15.5176 58.6113 15.7266 59.2793 15.7266C60.1738 15.7266 60.6211 15.4336 60.6211 14.8477C60.6211 14.5977 60.5234 14.3916 60.3281 14.2295C60.1328 14.0674 59.7363 13.875 59.1387 13.6523C58.4199 13.3633 57.9531 13.0771 57.7383 12.7939C57.5234 12.5107 57.416 12.168 57.416 11.7656C57.416 11.1914 57.6592 10.7314 58.1455 10.3857C58.6318 10.04 59.2305 9.86719 59.9414 9.86719C60.4922 9.86719 61.0039 9.96289 61.4766 10.1543L61.4766 11.2617C60.9922 10.9492 60.4434 10.793 59.8301 10.793C59.4629 10.793 59.1641 10.873 58.9336 11.0332C58.7031 11.1934 58.5879 11.4043 58.5879 11.666C58.5879 11.9238 58.6709 12.125 58.8369 12.2695C59.0029 12.4141 59.3711 12.5996 59.9414 12.8262C60.6641 13.0957 61.1523 13.375 61.4062 13.6641C61.6602 13.9531 61.7871 14.3105 61.7871 14.7363C61.7871 15.3301 61.5439 15.7979 61.0576 16.1396C60.5713 16.4814 59.9414 16.6523 59.168 16.6523C58.4961 16.6523 57.9102 16.5254 57.4102 16.2715L57.4102 15.0996ZM68.6074 13.5527L64.0723 13.5527C64.0918 14.2441 64.2812 14.7783 64.6406 15.1553C65 15.5322 65.502 15.7207 66.1465 15.7207C66.873 15.7207 67.5391 15.4883 68.1445 15.0234L68.1445 16.0488C67.5742 16.4512 66.8184 16.6523 65.877 16.6523C64.9395 16.6523 64.208 16.3555 63.6826 15.7617C63.1572 15.168 62.8945 14.3438 62.8945 13.2891C62.8945 12.2969 63.1826 11.4785 63.7588 10.834C64.335 10.1895 65.0508 9.86719 65.9062 9.86719C66.7539 9.86719 67.416 10.1396 67.8926 10.6846C68.3691 11.2295 68.6074 11.9922 68.6074 12.9727L68.6074 13.5527ZM67.459 12.6328C67.4551 12.0469 67.3164 11.5938 67.043 11.2734C66.7695 10.9531 66.3848 10.793 65.8887 10.793C65.4316 10.793 65.0361 10.9629 64.7021 11.3027C64.3682 11.6426 64.1582 12.0859 64.0723 12.6328L67.459 12.6328Z" fill="rgb(51,51,51)" fill-rule="nonzero" />
</svg>
