<svg viewBox="0 0 66 24" xmlns="http://www.w3.org/2000/svg" xmlns:xlink="http://www.w3.org/1999/xlink" width="66.000000" height="24.000000" fill="none">
	<defs>
		<clipPath id="clipPath_102">
			<rect width="16.000002" height="16.000002" x="10.000000" y="4.000000" fill="rgb(255,255,255)" />
		</clipPath>
	</defs>
	<rect id="类型=MTP, 状态=按下" width="66.000000" height="24.000000" x="0.000000" y="0.000000" fill="rgb(230,230,230)" />
	<g id="数据接口 3" clip-path="url(#clipPath_102)" customFrame="url(#clipPath_102)">
		<rect id="数据接口 3" width="16.000002" height="16.000002" x="10.000000" y="4.000000" />
		<path id="矢量 12" d="M24 11L12 11L12 18L24 18L24 11Z" fill="rgb(51,51,51)" fill-rule="nonzero" />
		<path id="矢量 12" d="M12 11L12 18L24 18L24 11L12 11Z" fill-rule="nonzero" stroke="rgb(51,51,51)" stroke-linejoin="round" stroke-width="1" />
		<path id="矢量 13" d="M14.6667 11L14.6667 6L21.3334 6L21.3334 11" fill-rule="nonzero" stroke="rgb(51,51,51)" stroke-linecap="round" stroke-linejoin="round" stroke-width="1" />
		<path id="矢量 14" d="M16.6667 8L16.6667 8.66667" stroke="rgb(51,51,51)" stroke-linecap="round" stroke-linejoin="round" stroke-width="1" />
		<path id="矢量 15" d="M19.3333 8L19.3333 8.66667" stroke="rgb(51,51,51)" stroke-linecap="round" stroke-linejoin="round" stroke-width="1" />
	</g>
	<path id="" d="M39.3809 16.5L39.3809 10.4883C39.3809 9.99219 39.4102 9.39648 39.4688 8.70117L39.4395 8.70117C39.3379 9.13867 39.248 9.44336 39.1699 9.61523L36.1758 16.5L35.5254 16.5L32.5371 9.66797C32.4668 9.51172 32.377 9.18945 32.2676 8.70117L32.2324 8.70117C32.2715 9.12305 32.291 9.73633 32.291 10.541L32.291 16.5L31.1719 16.5L31.1719 7.42383L32.7598 7.42383L35.4375 13.6465C35.6406 14.123 35.7754 14.4941 35.8418 14.7598L35.8828 14.7598C36.0859 14.2012 36.2285 13.8223 36.3105 13.623L39.0352 7.42383L40.5469 7.42383L40.5469 16.5L39.3809 16.5ZM48.3809 8.4668L45.7617 8.4668L45.7617 16.5L44.584 16.5L44.584 8.4668L41.9766 8.4668L41.9766 7.42383L48.3809 7.42383L48.3809 8.4668ZM50.9473 13.1074L50.9473 16.5L49.7754 16.5L49.7754 7.42383L52.3535 7.42383C53.334 7.42383 54.0947 7.66016 54.6357 8.13281C55.1768 8.60547 55.4473 9.28125 55.4473 10.1602C55.4473 11.0508 55.1309 11.7725 54.498 12.3252C53.8652 12.8779 53.0742 13.1387 52.125 13.1074L50.9473 13.1074ZM50.9473 8.45508L50.9473 12.0762L52.0312 12.0762C52.7461 12.0762 53.2891 11.915 53.6602 11.5928C54.0312 11.2705 54.2168 10.8086 54.2168 10.207C54.2168 9.03906 53.5254 8.45508 52.1426 8.45508L50.9473 8.45508Z" fill="rgb(51,51,51)" fill-rule="nonzero" />
</svg>
