<svg viewBox="0 0 16 16" xmlns="http://www.w3.org/2000/svg" xmlns:xlink="http://www.w3.org/1999/xlink" width="16.000000" height="16.000000" fill="none">
	<rect id="地球仪 1" width="16.000002" height="16.000002" x="0.000000" y="0.000000" />
	<path id="矢量 34" d="M14.6667 7.99992C14.6667 4.31802 11.6819 1.33325 8.00001 1.33325C4.31811 1.33325 1.33334 4.31802 1.33334 7.99992C1.33334 11.6818 4.31811 14.6666 8.00001 14.6666C11.6819 14.6666 14.6667 11.6818 14.6667 7.99992Z" fill-rule="evenodd" stroke="currentColor" stroke-linecap="round" stroke-linejoin="round" stroke-width="1" />
	<path id="矢量 35" d="M1.33334 8L14.6667 8" stroke="currentColor" stroke-linecap="round" stroke-linejoin="round" stroke-width="1" />
	<path id="矢量 36" d="M10.6667 7.99992C10.6667 4.31802 9.47278 1.33325 8.00001 1.33325C6.52724 1.33325 5.33334 4.31802 5.33334 7.99992C5.33334 11.6818 6.52724 14.6666 8.00001 14.6666C9.47278 14.6666 10.6667 11.6818 10.6667 7.99992Z" fill-rule="evenodd" stroke="currentColor" stroke-linecap="round" stroke-linejoin="round" stroke-width="1" />
	<path id="矢量 37" d="M3.28598 3.38062C4.49241 4.58705 6.15908 5.33325 8.00001 5.33325C9.84098 5.33325 11.5076 4.58705 12.7141 3.38062" fill-rule="nonzero" stroke="currentColor" stroke-linecap="round" stroke-linejoin="round" stroke-width="1" />
	<path id="矢量 38" d="M12.7141 12.6194C11.5076 11.4129 9.84098 10.6667 8.00001 10.6667C6.15908 10.6667 4.49241 11.4129 3.28598 12.6194" fill-rule="nonzero" stroke="currentColor" stroke-linecap="round" stroke-linejoin="round" stroke-width="1" />
</svg>
