<svg viewBox="0 0 16 16" xmlns="http://www.w3.org/2000/svg" xmlns:xlink="http://www.w3.org/1999/xlink" width="16.000000" height="16.000000" fill="none">
	<rect id="开关 1" width="16.000002" height="16.000002" x="0.000000" y="0.000000" />
	<path id="矢量 7" d="M4.83335 2.66675C4.61355 2.79225 4.40209 2.93042 4.20002 3.08025C3.85419 3.33665 3.53582 3.62721 3.25002 3.94682C2.26461 5.04885 1.66669 6.49645 1.66669 8.08191C1.66669 11.5345 4.50222 14.3334 8.00002 14.3334C11.4978 14.3334 14.3334 11.5345 14.3334 8.08191C14.3334 6.49645 13.7354 5.04885 12.75 3.94682C12.4642 3.62721 12.1459 3.33665 11.8 3.08025C11.598 2.93042 11.3865 2.79225 11.1667 2.66675" fill-rule="nonzero" stroke="currentColor" stroke-linecap="round" stroke-linejoin="round" stroke-width="1.5" />
	<path id="矢量 8" d="M8 1.33325L8 7.99992" stroke="currentColor" stroke-linecap="round" stroke-linejoin="round" stroke-width="1.5" />
</svg>
