<svg viewBox="0 0 16 16" xmlns="http://www.w3.org/2000/svg" xmlns:xlink="http://www.w3.org/1999/xlink" width="16.000000" height="16.000000" fill="none">
	<rect id="设置 1" width="16.000002" height="16.000002" x="0.000000" y="0.000000" />
	<path id="矢量 5" d="M6.09461 14.3904C4.97758 14.0578 3.98328 13.4404 3.19597 12.6223C3.48968 12.2742 3.66668 11.8244 3.66668 11.3333C3.66668 10.2288 2.77125 9.33333 1.66668 9.33333C1.59986 9.33333 1.53381 9.33663 1.46867 9.34303C1.37994 8.90919 1.33334 8.46006 1.33334 7.99999C1.33334 7.30313 1.44027 6.63123 1.63861 5.99979C1.64795 5.99993 1.6573 5.99999 1.66668 5.99999C2.77125 5.99999 3.66668 5.10456 3.66668 3.99999C3.66668 3.68289 3.59288 3.38306 3.46154 3.11666C4.23251 2.39979 5.17351 1.8633 6.21738 1.57434C6.54814 2.22269 7.22224 2.66667 8.00001 2.66667C8.77778 2.66667 9.45188 2.22269 9.78264 1.57434C10.8265 1.8633 11.7675 2.39979 12.5385 3.11666C12.4071 3.38306 12.3333 3.68289 12.3333 3.99999C12.3333 5.10456 13.2288 5.99999 14.3333 5.99999C14.3427 5.99999 14.3521 5.99993 14.3614 5.99979C14.5597 6.63123 14.6667 7.30313 14.6667 7.99999C14.6667 8.46006 14.6201 8.90919 14.5313 9.34303C14.4662 9.33663 14.4002 9.33333 14.3333 9.33333C13.2288 9.33333 12.3333 10.2288 12.3333 11.3333C12.3333 11.8244 12.5103 12.2742 12.804 12.6223C12.0167 13.4404 11.0224 14.0578 9.90541 14.3904C9.64761 13.584 8.89201 13 8.00001 13C7.10801 13 6.35241 13.584 6.09461 14.3904Z" fill="rgb(51,51,51)" fill-rule="nonzero" />
	<path id="矢量 5" d="M3.19597 12.6223C3.48968 12.2742 3.66668 11.8244 3.66668 11.3333C3.66668 10.2288 2.77125 9.33333 1.66668 9.33333C1.59986 9.33333 1.53381 9.33663 1.46867 9.34303C1.37994 8.90919 1.33334 8.46006 1.33334 7.99999C1.33334 7.30313 1.44027 6.63123 1.63861 5.99979C1.64795 5.99993 1.6573 5.99999 1.66668 5.99999C2.77125 5.99999 3.66668 5.10456 3.66668 3.99999C3.66668 3.68289 3.59288 3.38306 3.46154 3.11666C4.23251 2.39979 5.17351 1.8633 6.21738 1.57434C6.54814 2.22269 7.22224 2.66667 8.00001 2.66667C8.77778 2.66667 9.45188 2.22269 9.78264 1.57434C10.8265 1.8633 11.7675 2.39979 12.5385 3.11666C12.4071 3.38306 12.3333 3.68289 12.3333 3.99999C12.3333 5.10456 13.2288 5.99999 14.3333 5.99999C14.3427 5.99999 14.3521 5.99993 14.3614 5.99979C14.5597 6.63123 14.6667 7.30313 14.6667 7.99999C14.6667 8.46006 14.6201 8.90919 14.5313 9.34303C14.4662 9.33663 14.4002 9.33333 14.3333 9.33333C13.2288 9.33333 12.3333 10.2288 12.3333 11.3333C12.3333 11.8244 12.5103 12.2742 12.804 12.6223C12.0167 13.4404 11.0224 14.0578 9.90541 14.3904C9.64761 13.584 8.89201 13 8.00001 13C7.10801 13 6.35241 13.584 6.09461 14.3904C4.97758 14.0578 3.98328 13.4404 3.19597 12.6223Z" fill-rule="nonzero" stroke="rgb(51,51,51)" stroke-linejoin="round" stroke-width="1" />
	<path id="矢量 6" d="M7.99999 10.3333C9.28866 10.3333 10.3333 9.28863 10.3333 7.99996C10.3333 6.71129 9.28866 5.66663 7.99999 5.66663C6.71132 5.66663 5.66666 6.71129 5.66666 7.99996C5.66666 9.28863 6.71132 10.3333 7.99999 10.3333Z" fill="rgb(255,255,255)" fill-rule="nonzero" />
	<path id="矢量 6" d="M10.3333 7.99996C10.3333 6.71129 9.28866 5.66663 7.99999 5.66663C6.71132 5.66663 5.66666 6.71129 5.66666 7.99996C5.66666 9.28863 6.71132 10.3333 7.99999 10.3333C9.28866 10.3333 10.3333 9.28863 10.3333 7.99996Z" fill-rule="nonzero" stroke="rgb(255,255,255)" stroke-linejoin="round" stroke-width="1" />
</svg>
