<svg viewBox="0 0 16 16" xmlns="http://www.w3.org/2000/svg" xmlns:xlink="http://www.w3.org/1999/xlink" width="16.000000" height="16.000000" fill="none">
	<rect id="设置 1" width="16.000002" height="16.000002" x="0.000000" y="0.000000" />
	<path id="矢量 5" d="M6.09458 14.3904C4.97755 14.0578 3.98325 13.4404 3.19594 12.6223C3.48965 12.2742 3.66665 11.8244 3.66665 11.3333C3.66665 10.2288 2.77122 9.33333 1.66665 9.33333C1.59983 9.33333 1.53378 9.33663 1.46864 9.34303C1.37991 8.90919 1.33331 8.46006 1.33331 7.99999C1.33331 7.30313 1.44024 6.63123 1.63858 5.99979C1.64792 5.99993 1.65727 5.99999 1.66665 5.99999C2.77122 5.99999 3.66665 5.10456 3.66665 3.99999C3.66665 3.68289 3.59285 3.38306 3.46151 3.11666C4.23248 2.39979 5.17348 1.8633 6.21735 1.57434C6.54811 2.22269 7.22221 2.66667 7.99998 2.66667C8.77775 2.66667 9.45185 2.22269 9.78261 1.57434C10.8265 1.8633 11.7675 2.39979 12.5384 3.11666C12.4071 3.38306 12.3333 3.68289 12.3333 3.99999C12.3333 5.10456 13.2287 5.99999 14.3333 5.99999C14.3427 5.99999 14.352 5.99993 14.3614 5.99979C14.5597 6.63123 14.6666 7.30313 14.6666 7.99999C14.6666 8.46006 14.62 8.90919 14.5313 9.34303C14.4662 9.33663 14.4001 9.33333 14.3333 9.33333C13.2287 9.33333 12.3333 10.2288 12.3333 11.3333C12.3333 11.8244 12.5103 12.2742 12.804 12.6223C12.0167 13.4404 11.0224 14.0578 9.90538 14.3904C9.64758 13.584 8.89198 13 7.99998 13C7.10798 13 6.35238 13.584 6.09458 14.3904Z" fill="currentColor" fill-rule="nonzero" />
	<path id="矢量 5" d="M3.19594 12.6223C3.48965 12.2742 3.66665 11.8244 3.66665 11.3333C3.66665 10.2288 2.77122 9.33333 1.66665 9.33333C1.59983 9.33333 1.53378 9.33663 1.46864 9.34303C1.37991 8.90919 1.33331 8.46006 1.33331 7.99999C1.33331 7.30313 1.44024 6.63123 1.63858 5.99979C1.64792 5.99993 1.65727 5.99999 1.66665 5.99999C2.77122 5.99999 3.66665 5.10456 3.66665 3.99999C3.66665 3.68289 3.59285 3.38306 3.46151 3.11666C4.23248 2.39979 5.17348 1.8633 6.21735 1.57434C6.54811 2.22269 7.22221 2.66667 7.99998 2.66667C8.77775 2.66667 9.45185 2.22269 9.78261 1.57434C10.8265 1.8633 11.7675 2.39979 12.5384 3.11666C12.4071 3.38306 12.3333 3.68289 12.3333 3.99999C12.3333 5.10456 13.2287 5.99999 14.3333 5.99999C14.3427 5.99999 14.352 5.99993 14.3614 5.99979C14.5597 6.63123 14.6666 7.30313 14.6666 7.99999C14.6666 8.46006 14.62 8.90919 14.5313 9.34303C14.4662 9.33663 14.4001 9.33333 14.3333 9.33333C13.2287 9.33333 12.3333 10.2288 12.3333 11.3333C12.3333 11.8244 12.5103 12.2742 12.804 12.6223C12.0167 13.4404 11.0224 14.0578 9.90538 14.3904C9.64758 13.584 8.89198 13 7.99998 13C7.10798 13 6.35238 13.584 6.09458 14.3904C4.97755 14.0578 3.98325 13.4404 3.19594 12.6223Z" fill-rule="nonzero" stroke="currentColor" stroke-linejoin="round" stroke-width="1" />
	<path id="矢量 6" d="M7.99996 10.3333C9.28863 10.3333 10.3333 9.28863 10.3333 7.99996C10.3333 6.71129 9.28863 5.66663 7.99996 5.66663C6.71129 5.66663 5.66663 6.71129 5.66663 7.99996C5.66663 9.28863 6.71129 10.3333 7.99996 10.3333Z" fill="rgb(26,26,26)" fill-rule="nonzero" />
	<path id="矢量 6" d="M10.3333 7.99996C10.3333 6.71129 9.28863 5.66663 7.99996 5.66663C6.71129 5.66663 5.66663 6.71129 5.66663 7.99996C5.66663 9.28863 6.71129 10.3333 7.99996 10.3333C9.28863 10.3333 10.3333 9.28863 10.3333 7.99996Z" fill-rule="nonzero" stroke="rgb(26,26,26)" stroke-linejoin="round" stroke-width="1" />
</svg>
