<svg viewBox="0 0 126 24" xmlns="http://www.w3.org/2000/svg" xmlns:xlink="http://www.w3.org/1999/xlink" width="126.000000" height="24.000000" fill="none">
	<defs>
		<clipPath id="clipPath_101">
			<rect width="16.000002" height="16.000002" x="10.000000" y="4.000000" fill="rgb(255,255,255)" />
		</clipPath>
	</defs>
	<rect id="类型=Shared Folders, 状态=按下" width="126.000000" height="24.000000" x="0.000000" y="0.000000" fill="rgb(230,230,230)" />
	<g id="转换文件夹 1" clip-path="url(#clipPath_101)" customFrame="url(#clipPath_101)">
		<rect id="转换文件夹 1" width="16.000002" height="16.000002" x="10.000000" y="4.000000" />
		<path id="矢量 12" d="M11.6667 6.66667C11.6667 6.29848 11.9652 6 12.3334 6L16.3334 6L18.0001 8L23.6667 8C24.035 8 24.3334 8.29847 24.3334 8.66667L24.3334 17.3333C24.3334 17.7015 24.035 18 23.6667 18L12.3334 18C11.9652 18 11.6667 17.7015 11.6667 17.3333L11.6667 6.66667Z" fill="rgb(51,51,51)" fill-rule="nonzero" />
		<path id="矢量 12" d="M12.3334 6L16.3334 6L18.0001 8L23.6667 8C24.035 8 24.3334 8.29847 24.3334 8.66667L24.3334 17.3333C24.3334 17.7015 24.035 18 23.6667 18L12.3334 18C11.9652 18 11.6667 17.7015 11.6667 17.3333L11.6667 6.66667C11.6667 6.29848 11.9652 6 12.3334 6Z" fill-rule="nonzero" stroke="rgb(51,51,51)" stroke-linejoin="round" stroke-width="1" />
		<path id="矢量 13" d="M15.6667 12L20.3334 12" stroke="rgb(255,255,255)" stroke-linecap="round" stroke-linejoin="round" stroke-width="1" />
		<path id="矢量 14" d="M15.6667 14L20.3334 14" stroke="rgb(255,255,255)" stroke-linecap="round" stroke-linejoin="round" stroke-width="1" />
		<path id="矢量 15" d="M20.3334 12L18.6667 10.3334" stroke="rgb(255,255,255)" stroke-linecap="round" stroke-linejoin="round" stroke-width="1" />
		<path id="矢量 16" d="M17.3334 15.6667L15.6667 14" stroke="rgb(255,255,255)" stroke-linecap="round" stroke-linejoin="round" stroke-width="1" />
	</g>
	<path id="" d="M30.75 14.7949C31.0273 15.0371 31.3984 15.2363 31.8633 15.3926C32.3281 15.5488 32.7695 15.627 33.1875 15.627C34.4609 15.627 35.0977 15.1738 35.0977 14.2676C35.0977 14.0137 35.0293 13.7852 34.8926 13.582C34.7559 13.3789 34.5684 13.1992 34.3301 13.043C34.0918 12.8867 33.6445 12.6465 32.9883 12.3223C32.0781 11.8691 31.4785 11.4482 31.1895 11.0596C30.9004 10.6709 30.7559 10.2266 30.7559 9.72656C30.7559 8.97266 31.0586 8.375 31.6641 7.93359C32.2695 7.49219 33.0332 7.27148 33.9551 7.27148C34.8574 7.27148 35.5195 7.38086 35.9414 7.59961L35.9414 8.87695C35.3945 8.49805 34.7031 8.30859 33.8672 8.30859C33.3125 8.30859 32.8604 8.4248 32.5107 8.65723C32.1611 8.88965 31.9863 9.21289 31.9863 9.62695C31.9863 9.99414 32.1074 10.293 32.3496 10.5234C32.5918 10.7539 33.1172 11.0684 33.9258 11.4668C34.8164 11.8926 35.4395 12.3184 35.7949 12.7441C36.1504 13.1699 36.3281 13.6484 36.3281 14.1797C36.3281 14.9766 36.0391 15.5879 35.4609 16.0137C34.8828 16.4395 34.0801 16.6523 33.0527 16.6523C32.6934 16.6523 32.2744 16.6025 31.7959 16.5029C31.3174 16.4033 30.9688 16.2793 30.75 16.1309L30.75 14.7949ZM43.4238 16.5L42.2812 16.5L42.2812 12.7734C42.2812 11.4688 41.7969 10.8164 40.8281 10.8164C40.332 10.8164 39.9199 11.0068 39.5918 11.3877C39.2637 11.7686 39.0996 12.248 39.0996 12.8262L39.0996 16.5L37.9512 16.5L37.9512 6.9082L39.0996 6.9082L39.0996 11.0859L39.123 11.0859C39.6191 10.2734 40.3242 9.86719 41.2383 9.86719C42.6953 9.86719 43.4238 10.748 43.4238 12.5098L43.4238 16.5ZM45.4922 10.4707C46.1367 10.0684 46.8809 9.86719 47.7246 9.86719C49.2871 9.86719 50.0684 10.6875 50.0684 12.3281L50.0684 16.5L48.9316 16.5L48.9316 15.498L48.9023 15.498C48.4531 16.2676 47.791 16.6523 46.916 16.6523C46.2871 16.6523 45.7871 16.4824 45.416 16.1426C45.0449 15.8027 44.8594 15.3438 44.8594 14.7656C44.8594 13.5547 45.5762 12.8496 47.0098 12.6504L48.9316 12.3809C48.9316 11.3223 48.4941 10.793 47.6191 10.793C46.8418 10.793 46.1328 11.0547 45.4922 11.5781L45.4922 10.4707ZM47.4141 13.4531C46.8828 13.5234 46.5166 13.6562 46.3154 13.8516C46.1143 14.0469 46.0137 14.3203 46.0137 14.6719C46.0137 14.9805 46.123 15.2324 46.3418 15.4277C46.5605 15.623 46.8496 15.7207 47.209 15.7207C47.709 15.7207 48.1211 15.5449 48.4453 15.1934C48.7695 14.8418 48.9316 14.4004 48.9316 13.8691L48.9316 13.248L47.4141 13.4531ZM55.4473 11.1562C55.2559 11.0195 54.9922 10.9512 54.6562 10.9512C54.2109 10.9512 53.8438 11.1592 53.5547 11.5752C53.2656 11.9912 53.1211 12.5391 53.1211 13.2188L53.1211 16.5L51.9727 16.5L51.9727 10.0195L53.1211 10.0195L53.1211 11.3379L53.1445 11.3379C53.4727 10.3848 54.0391 9.9082 54.8438 9.9082C55.1055 9.9082 55.3066 9.9375 55.4473 9.99609L55.4473 11.1562ZM61.6641 13.5527L57.1289 13.5527C57.1484 14.2441 57.3379 14.7783 57.6973 15.1553C58.0566 15.5322 58.5586 15.7207 59.2031 15.7207C59.9297 15.7207 60.5957 15.4883 61.2012 15.0234L61.2012 16.0488C60.6309 16.4512 59.875 16.6523 58.9336 16.6523C57.9961 16.6523 57.2646 16.3555 56.7393 15.7617C56.2139 15.168 55.9512 14.3438 55.9512 13.2891C55.9512 12.2969 56.2393 11.4785 56.8154 10.834C57.3916 10.1895 58.1074 9.86719 58.9629 9.86719C59.8105 9.86719 60.4727 10.1396 60.9492 10.6846C61.4258 11.2295 61.6641 11.9922 61.6641 12.9727L61.6641 13.5527ZM60.5156 12.6328C60.5117 12.0469 60.373 11.5938 60.0996 11.2734C59.8262 10.9531 59.4414 10.793 58.9453 10.793C58.4883 10.793 58.0928 10.9629 57.7588 11.3027C57.4248 11.6426 57.2148 12.0859 57.1289 12.6328L60.5156 12.6328ZM68.8184 16.5L67.6699 16.5L67.6699 15.4219L67.6465 15.4219C67.1738 16.2422 66.4395 16.6523 65.4434 16.6523C64.623 16.6523 63.9707 16.3604 63.4863 15.7764C63.002 15.1924 62.7598 14.4043 62.7598 13.4121C62.7598 12.3418 63.0332 11.4834 63.5801 10.8369C64.127 10.1904 64.8418 9.86719 65.7246 9.86719C66.6074 9.86719 67.248 10.2109 67.6465 10.8984L67.6699 10.8984L67.6699 6.9082L68.8184 6.9082L68.8184 16.5ZM67.6758 12.6445C67.6758 12.125 67.5049 11.6904 67.1631 11.3408C66.8213 10.9912 66.4004 10.8164 65.9004 10.8164C65.291 10.8164 64.8105 11.0439 64.459 11.499C64.1074 11.9541 63.9316 12.5742 63.9316 13.3594C63.9316 14.082 64.1006 14.6533 64.4385 15.0732C64.7764 15.4932 65.2266 15.7031 65.7891 15.7031C66.3438 15.7031 66.7969 15.4971 67.1484 15.085C67.5 14.6729 67.6758 14.1602 67.6758 13.5469L67.6758 12.6445ZM79.2422 8.4668L75.7383 8.4668L75.7383 11.502L78.9844 11.502L78.9844 12.5332L75.7383 12.5332L75.7383 16.5L74.5664 16.5L74.5664 7.42383L79.2422 7.42383L79.2422 8.4668ZM80.3613 13.3301C80.3613 12.2598 80.6602 11.415 81.2578 10.7959C81.8555 10.1768 82.666 9.86719 83.6895 9.86719C84.6621 9.86719 85.4248 10.165 85.9775 10.7607C86.5303 11.3564 86.8066 12.1797 86.8066 13.2305C86.8066 14.2539 86.5117 15.0801 85.9219 15.709C85.332 16.3379 84.541 16.6523 83.5488 16.6523C82.5801 16.6523 81.8066 16.3477 81.2285 15.7383C80.6504 15.1289 80.3613 14.3262 80.3613 13.3301ZM81.5332 13.2949C81.5332 14.041 81.7217 14.6289 82.0986 15.0586C82.4756 15.4883 82.9824 15.7031 83.6191 15.7031C84.2754 15.7031 84.7754 15.4932 85.1191 15.0732C85.4629 14.6533 85.6348 14.0508 85.6348 13.2656C85.6348 12.4766 85.4629 11.8711 85.1191 11.4492C84.7754 11.0273 84.2754 10.8164 83.6191 10.8164C82.9746 10.8164 82.4658 11.0371 82.0928 11.4785C81.7197 11.9199 81.5332 12.5254 81.5332 13.2949ZM88.418 16.5L88.418 6.9082L89.5664 6.9082L89.5664 16.5L88.418 16.5ZM97.2422 16.5L96.0938 16.5L96.0938 15.4219L96.0703 15.4219C95.5977 16.2422 94.8633 16.6523 93.8672 16.6523C93.0469 16.6523 92.3945 16.3604 91.9102 15.7764C91.4258 15.1924 91.1836 14.4043 91.1836 13.4121C91.1836 12.3418 91.457 11.4834 92.0039 10.8369C92.5508 10.1904 93.2656 9.86719 94.1484 9.86719C95.0312 9.86719 95.6719 10.2109 96.0703 10.8984L96.0938 10.8984L96.0938 6.9082L97.2422 6.9082L97.2422 16.5ZM96.0996 12.6445C96.0996 12.125 95.9287 11.6904 95.5869 11.3408C95.2451 10.9912 94.8242 10.8164 94.3242 10.8164C93.7148 10.8164 93.2344 11.0439 92.8828 11.499C92.5312 11.9541 92.3555 12.5742 92.3555 13.3594C92.3555 14.082 92.5244 14.6533 92.8623 15.0732C93.2002 15.4932 93.6504 15.7031 94.2129 15.7031C94.7676 15.7031 95.2207 15.4971 95.5723 15.085C95.9238 14.6729 96.0996 14.1602 96.0996 13.5469L96.0996 12.6445ZM104.572 13.5527L100.037 13.5527C100.057 14.2441 100.246 14.7783 100.605 15.1553C100.965 15.5322 101.467 15.7207 102.111 15.7207C102.838 15.7207 103.504 15.4883 104.109 15.0234L104.109 16.0488C103.539 16.4512 102.783 16.6523 101.842 16.6523C100.904 16.6523 100.173 16.3555 99.6475 15.7617C99.1221 15.168 98.8594 14.3438 98.8594 13.2891C98.8594 12.2969 99.1475 11.4785 99.7236 10.834C100.3 10.1895 101.016 9.86719 101.871 9.86719C102.719 9.86719 103.381 10.1396 103.857 10.6846C104.334 11.2295 104.572 11.9922 104.572 12.9727L104.572 13.5527ZM103.424 12.6328C103.42 12.0469 103.281 11.5938 103.008 11.2734C102.734 10.9531 102.35 10.793 101.854 10.793C101.396 10.793 101.001 10.9629 100.667 11.3027C100.333 11.6426 100.123 12.0859 100.037 12.6328L103.424 12.6328ZM109.576 11.1562C109.385 11.0195 109.121 10.9512 108.785 10.9512C108.34 10.9512 107.973 11.1592 107.684 11.5752C107.395 11.9912 107.25 12.5391 107.25 13.2188L107.25 16.5L106.102 16.5L106.102 10.0195L107.25 10.0195L107.25 11.3379L107.273 11.3379C107.602 10.3848 108.168 9.9082 108.973 9.9082C109.234 9.9082 109.436 9.9375 109.576 9.99609L109.576 11.1562ZM110.408 15.0996C110.986 15.5176 111.609 15.7266 112.277 15.7266C113.172 15.7266 113.619 15.4336 113.619 14.8477C113.619 14.5977 113.521 14.3916 113.326 14.2295C113.131 14.0674 112.734 13.875 112.137 13.6523C111.418 13.3633 110.951 13.0771 110.736 12.7939C110.521 12.5107 110.414 12.168 110.414 11.7656C110.414 11.1914 110.657 10.7314 111.144 10.3857C111.63 10.04 112.229 9.86719 112.939 9.86719C113.49 9.86719 114.002 9.96289 114.475 10.1543L114.475 11.2617C113.99 10.9492 113.441 10.793 112.828 10.793C112.461 10.793 112.162 10.873 111.932 11.0332C111.701 11.1934 111.586 11.4043 111.586 11.666C111.586 11.9238 111.669 12.125 111.835 12.2695C112.001 12.4141 112.369 12.5996 112.939 12.8262C113.662 13.0957 114.15 13.375 114.404 13.6641C114.658 13.9531 114.785 14.3105 114.785 14.7363C114.785 15.3301 114.542 15.7979 114.056 16.1396C113.569 16.4814 112.939 16.6523 112.166 16.6523C111.494 16.6523 110.908 16.5254 110.408 16.2715L110.408 15.0996Z" fill="rgb(51,51,51)" fill-rule="nonzero" />
</svg>
