<svg viewBox="0 0 16 16" xmlns="http://www.w3.org/2000/svg" xmlns:xlink="http://www.w3.org/1999/xlink" width="16.000000" height="16.000000" fill="none">
	<rect id="转换文件夹 1" width="16.000002" height="16.000002" x="0.000000" y="0.000000" />
	<path id="矢量 12" d="M1.66602 2.66667C1.66602 2.29848 1.96449 2 2.33268 2L6.33268 2L7.99935 4L13.666 4C14.0342 4 14.3327 4.29847 14.3327 4.66667L14.3327 13.3333C14.3327 13.7015 14.0342 14 13.666 14L2.33268 14C1.96449 14 1.66602 13.7015 1.66602 13.3333L1.66602 2.66667Z" fill="rgb(51,51,51)" fill-rule="nonzero" />
	<path id="矢量 12" d="M2.33268 2L6.33268 2L7.99935 4L13.666 4C14.0342 4 14.3327 4.29847 14.3327 4.66667L14.3327 13.3333C14.3327 13.7015 14.0342 14 13.666 14L2.33268 14C1.96449 14 1.66602 13.7015 1.66602 13.3333L1.66602 2.66667C1.66602 2.29848 1.96449 2 2.33268 2Z" fill-rule="nonzero" stroke="rgb(51,51,51)" stroke-linejoin="round" stroke-width="1" />
	<path id="矢量 13" d="M5.66602 8L10.3327 8" stroke="rgb(255,255,255)" stroke-linecap="round" stroke-linejoin="round" stroke-width="1" />
	<path id="矢量 14" d="M5.66602 10L10.3327 10" stroke="rgb(255,255,255)" stroke-linecap="round" stroke-linejoin="round" stroke-width="1" />
	<path id="矢量 15" d="M10.3327 8.00016L8.66602 6.3335" stroke="rgb(255,255,255)" stroke-linecap="round" stroke-linejoin="round" stroke-width="1" />
	<path id="矢量 16" d="M7.33268 11.6667L5.66602 10" stroke="rgb(255,255,255)" stroke-linecap="round" stroke-linejoin="round" stroke-width="1" />
</svg>
