<svg viewBox="0 0 66 24" xmlns="http://www.w3.org/2000/svg" xmlns:xlink="http://www.w3.org/1999/xlink" width="66.000000" height="24.000000" fill="none">
	<defs>
		<clipPath id="clipPath_103">
			<rect width="16.000002" height="16.000002" x="10.000000" y="4.000000" fill="rgb(255,255,255)" />
		</clipPath>
	</defs>
	<rect id="类型=UAC, 状态=按下" width="66.000000" height="24.000000" x="0.000000" y="0.000000" fill="rgb(230,230,230)" />
	<g id="数据接口 3" clip-path="url(#clipPath_103)" customFrame="url(#clipPath_103)">
		<rect id="数据接口 3" width="16.000002" height="16.000002" x="10.000000" y="4.000000" />
		<path id="矢量 12" d="M24 11L12 11L12 18L24 18L24 11Z" fill="rgb(51,51,51)" fill-rule="nonzero" />
		<path id="矢量 12" d="M12 11L12 18L24 18L24 11L12 11Z" fill-rule="nonzero" stroke="rgb(51,51,51)" stroke-linejoin="round" stroke-width="1" />
		<path id="矢量 13" d="M14.6666 11L14.6666 6L21.3333 6L21.3333 11" fill-rule="nonzero" stroke="rgb(51,51,51)" stroke-linecap="round" stroke-linejoin="round" stroke-width="1" />
		<path id="矢量 14" d="M16.6666 8L16.6666 8.66667" stroke="rgb(51,51,51)" stroke-linecap="round" stroke-linejoin="round" stroke-width="1" />
		<path id="矢量 15" d="M19.3334 8L19.3334 8.66667" stroke="rgb(51,51,51)" stroke-linecap="round" stroke-linejoin="round" stroke-width="1" />
	</g>
	<path id="" d="M37.8984 12.8027C37.8984 15.3691 36.7344 16.6523 34.4062 16.6523C32.1758 16.6523 31.0605 15.4141 31.0605 12.9375L31.0605 7.42383L32.2324 7.42383L32.2324 12.8848C32.2324 14.7012 32.9941 15.6094 34.5176 15.6094C35.9902 15.6094 36.7266 14.7305 36.7266 12.9727L36.7266 7.42383L37.8984 7.42383L37.8984 12.8027ZM47.0039 16.5L45.709 16.5L44.7832 14.0156L41.0039 14.0156L40.1309 16.5L38.8359 16.5L42.293 7.42383L43.5469 7.42383L47.0039 16.5ZM44.4199 12.9902L43.0488 9.2168C43.0059 9.0957 42.959 8.88477 42.9082 8.58398L42.8789 8.58398C42.8359 8.85742 42.7871 9.06836 42.7324 9.2168L41.373 12.9902L44.4199 12.9902ZM54.3574 16.125C53.6895 16.4766 52.8516 16.6523 51.8438 16.6523C50.543 16.6523 49.5039 16.2393 48.7266 15.4131C47.9492 14.5869 47.5605 13.4941 47.5605 12.1348C47.5605 10.6738 47.998 9.49805 48.873 8.60742C49.748 7.7168 50.8594 7.27148 52.207 7.27148C53.0742 7.27148 53.791 7.39453 54.3574 7.64062L54.3574 8.86523C53.709 8.50586 52.9961 8.32617 52.2188 8.32617C51.207 8.32617 50.3828 8.66309 49.7461 9.33691C49.1094 10.0107 48.791 10.9199 48.791 12.0645C48.791 13.1504 49.0879 14.0127 49.6816 14.6514C50.2754 15.29 51.0527 15.6094 52.0137 15.6094C52.9121 15.6094 53.6934 15.4062 54.3574 15L54.3574 16.125Z" fill="rgb(51,51,51)" fill-rule="nonzero" />
</svg>
