<svg viewBox="0 0 66 23.9999" xmlns="http://www.w3.org/2000/svg" xmlns:xlink="http://www.w3.org/1999/xlink" width="66.000000" height="23.999878" fill="none">
	<defs>
		<clipPath id="clipPath_98">
			<rect width="16.000002" height="16.000002" x="10.000000" y="4.000000" fill="rgb(255,255,255)" />
		</clipPath>
	</defs>
	<rect id="类型=UAC, 状态=选中" width="66.000000" height="24.000000" x="0.000000" y="0.000000" />
	<g id="数据接口 3" clip-path="url(#clipPath_98)" customFrame="url(#clipPath_98)">
		<rect id="数据接口 3" width="16.000002" height="16.000002" x="10.000000" y="4.000000" />
		<path id="矢量 12" d="M24 10.9999L12 10.9999L12 17.9999L24 17.9999L24 10.9999Z" fill="rgb(22,152,217)" fill-rule="nonzero" />
		<path id="矢量 12" d="M12 10.9999L12 17.9999L24 17.9999L24 10.9999L12 10.9999Z" fill-rule="nonzero" stroke="rgb(22,152,217)" stroke-linejoin="round" stroke-width="1" />
		<path id="矢量 13" d="M14.6666 10.9999L14.6666 5.99988L21.3333 5.99988L21.3333 10.9999" fill-rule="nonzero" stroke="rgb(22,152,217)" stroke-linecap="round" stroke-linejoin="round" stroke-width="1" />
		<path id="矢量 14" d="M16.6666 7.99988L16.6666 8.66654" stroke="rgb(22,152,217)" stroke-linecap="round" stroke-linejoin="round" stroke-width="1" />
		<path id="矢量 15" d="M19.3334 7.99988L19.3334 8.66654" stroke="rgb(22,152,217)" stroke-linecap="round" stroke-linejoin="round" stroke-width="1" />
	</g>
	<path id="" d="M37.8984 12.8026C37.8984 15.369 36.7344 16.6522 34.4062 16.6522C32.1758 16.6522 31.0605 15.4139 31.0605 12.9374L31.0605 7.42371L32.2324 7.42371L32.2324 12.8846C32.2324 14.701 32.9941 15.6093 34.5176 15.6093C35.9902 15.6093 36.7266 14.7303 36.7266 12.9725L36.7266 7.42371L37.8984 7.42371L37.8984 12.8026ZM47.0039 16.4999L45.709 16.4999L44.7832 14.0155L41.0039 14.0155L40.1309 16.4999L38.8359 16.4999L42.293 7.42371L43.5469 7.42371L47.0039 16.4999ZM44.4199 12.9901L43.0488 9.21667C43.0059 9.09558 42.959 8.88464 42.9082 8.58386L42.8789 8.58386C42.8359 8.8573 42.7871 9.06824 42.7324 9.21667L41.373 12.9901L44.4199 12.9901ZM54.3574 16.1249C53.6895 16.4764 52.8516 16.6522 51.8438 16.6522C50.543 16.6522 49.5039 16.2391 48.7266 15.413C47.9492 14.5868 47.5605 13.494 47.5605 12.1346C47.5605 10.6737 47.998 9.49792 48.873 8.6073C49.748 7.71667 50.8594 7.27136 52.207 7.27136C53.0742 7.27136 53.791 7.39441 54.3574 7.6405L54.3574 8.86511C53.709 8.50574 52.9961 8.32605 52.2188 8.32605C51.207 8.32605 50.3828 8.66296 49.7461 9.33679C49.1094 10.0106 48.791 10.9198 48.791 12.0643C48.791 13.1503 49.0879 14.0126 49.6816 14.6512C50.2754 15.2899 51.0527 15.6093 52.0137 15.6093C52.9121 15.6093 53.6934 15.4061 54.3574 14.9999L54.3574 16.1249Z" fill="rgb(51,51,51)" fill-rule="nonzero" />
</svg>
