<svg viewBox="0 0 24 24" xmlns="http://www.w3.org/2000/svg" xmlns:xlink="http://www.w3.org/1999/xlink" width="24.000000" height="24.000000" fill="none">
	<rect id="收件上载 2" width="24.000000" height="24.000000" x="0.000000" y="0.000000" />
	<path id="矢量 65" d="M2 15L4.5 3L19.5 3L22 15" fill-rule="nonzero" stroke="currentColor" stroke-linecap="round" stroke-linejoin="round" stroke-width="1.5" />
	<path id="矢量 66" d="M2 15L7.45455 15L8.36365 18L15.6363 18L16.5455 15L22 15L22 21.5L2 21.5L2 15Z" fill="currentColor" fill-rule="nonzero" />
	<path id="矢量 66" d="M7.45455 15L8.36365 18L15.6363 18L16.5455 15L22 15L22 21.5L2 21.5L2 15L7.45455 15Z" fill-rule="nonzero" stroke="currentColor" stroke-linejoin="round" stroke-width="1.5" />
	<path id="矢量 67" d="M9 10L12 7L15 10" fill-rule="nonzero" stroke="currentColor" stroke-linecap="round" stroke-linejoin="round" stroke-width="1.5" />
	<path id="矢量 68" d="M12 13L12 7" stroke="currentColor" stroke-linecap="round" stroke-linejoin="round" stroke-width="1.5" />
</svg>
