<svg viewBox="0 0 16 16" xmlns="http://www.w3.org/2000/svg" xmlns:xlink="http://www.w3.org/1999/xlink" width="16.000000" height="16.000000" fill="none">
	<rect id="数据接口 2" width="16.000002" height="16.000002" x="0.000000" y="0.000000" />
	<path id="矢量 11" d="M4.00033 7.33317C4.73669 7.33317 5.33366 6.7362 5.33366 5.99984C5.33366 5.26347 4.73669 4.6665 4.00033 4.6665C3.26395 4.6665 2.66699 5.26347 2.66699 5.99984C2.66699 6.7362 3.26395 7.33317 4.00033 7.33317Z" fill="rgb(205,205,205)" fill-rule="nonzero" />
	<path id="矢量 11" d="M5.33366 5.99984C5.33366 5.26347 4.73669 4.6665 4.00033 4.6665C3.26395 4.6665 2.66699 5.26347 2.66699 5.99984C2.66699 6.7362 3.26395 7.33317 4.00033 7.33317C4.73669 7.33317 5.33366 6.7362 5.33366 5.99984Z" fill-rule="nonzero" stroke="rgb(205,205,205)" stroke-linejoin="round" stroke-width="1" />
	<path id="矢量 12" d="M12.0003 9.33317C12.7367 9.33317 13.3337 8.7362 13.3337 7.99984C13.3337 7.26347 12.7367 6.6665 12.0003 6.6665C11.264 6.6665 10.667 7.26347 10.667 7.99984C10.667 8.7362 11.264 9.33317 12.0003 9.33317Z" fill="rgb(205,205,205)" fill-rule="nonzero" />
	<path id="矢量 12" d="M13.3337 7.99984C13.3337 7.26347 12.7367 6.6665 12.0003 6.6665C11.264 6.6665 10.667 7.26347 10.667 7.99984C10.667 8.7362 11.264 9.33317 12.0003 9.33317C12.7367 9.33317 13.3337 8.7362 13.3337 7.99984Z" fill-rule="nonzero" stroke="rgb(205,205,205)" stroke-linejoin="round" stroke-width="1" />
	<path id="矢量 13" d="M6.33301 3.00016L7.99967 1.3335L9.66634 3.00016" fill-rule="nonzero" stroke="rgb(205,205,205)" stroke-linecap="round" stroke-linejoin="round" stroke-width="1" />
	<path id="矢量 14" d="M8.33333 13.0002L4 9.42123L4 7.3335" fill-rule="nonzero" stroke="rgb(205,205,205)" stroke-linecap="round" stroke-linejoin="round" stroke-width="1" />
	<path id="矢量 15" d="M12 9.3335L12 10.93L8 13.6668" fill-rule="nonzero" stroke="rgb(205,205,205)" stroke-linecap="round" stroke-linejoin="round" stroke-width="1" />
	<path id="矢量 16" d="M8 1.3335L8 14.3335" stroke="rgb(205,205,205)" stroke-linecap="round" stroke-linejoin="round" stroke-width="1" />
	<path id="矢量 17" d="M7 14.6665L9 14.6665" stroke="rgb(205,205,205)" stroke-linecap="round" stroke-linejoin="round" stroke-width="1" />
</svg>
