<svg viewBox="0 0 16 16" xmlns="http://www.w3.org/2000/svg" xmlns:xlink="http://www.w3.org/1999/xlink" width="16.000000" height="16.000000" fill="none">
	<rect id="数据接口 2" width="16.000002" height="16.000002" x="0.000000" y="0.000000" />
	<path id="矢量 11" d="M4.00002 7.33329C4.73639 7.33329 5.33335 6.73633 5.33335 5.99996C5.33335 5.26359 4.73639 4.66663 4.00002 4.66663C3.26364 4.66663 2.66669 5.26359 2.66669 5.99996C2.66669 6.73633 3.26364 7.33329 4.00002 7.33329Z" fill="rgb(0,205,27)" fill-rule="nonzero" />
	<path id="矢量 11" d="M5.33335 5.99996C5.33335 5.26359 4.73639 4.66663 4.00002 4.66663C3.26364 4.66663 2.66669 5.26359 2.66669 5.99996C2.66669 6.73633 3.26364 7.33329 4.00002 7.33329C4.73639 7.33329 5.33335 6.73633 5.33335 5.99996Z" fill-rule="nonzero" stroke="rgb(0,205,27)" stroke-linejoin="round" stroke-width="1" />
	<path id="矢量 12" d="M12 9.33329C12.7364 9.33329 13.3334 8.73633 13.3334 7.99996C13.3334 7.26359 12.7364 6.66663 12 6.66663C11.2637 6.66663 10.6667 7.26359 10.6667 7.99996C10.6667 8.73633 11.2637 9.33329 12 9.33329Z" fill="rgb(0,205,27)" fill-rule="nonzero" />
	<path id="矢量 12" d="M13.3334 7.99996C13.3334 7.26359 12.7364 6.66663 12 6.66663C11.2637 6.66663 10.6667 7.26359 10.6667 7.99996C10.6667 8.73633 11.2637 9.33329 12 9.33329C12.7364 9.33329 13.3334 8.73633 13.3334 7.99996Z" fill-rule="nonzero" stroke="rgb(0,205,27)" stroke-linejoin="round" stroke-width="1" />
	<path id="矢量 13" d="M6.33331 3.00004L7.99998 1.33337L9.66665 3.00004" fill-rule="nonzero" stroke="rgb(0,205,27)" stroke-linecap="round" stroke-linejoin="round" stroke-width="1" />
	<path id="矢量 14" d="M8.33333 13L4 9.42111L4 7.33337" fill-rule="nonzero" stroke="rgb(0,205,27)" stroke-linecap="round" stroke-linejoin="round" stroke-width="1" />
	<path id="矢量 15" d="M12 9.33337L12 10.9299L8 13.6667" fill-rule="nonzero" stroke="rgb(0,205,27)" stroke-linecap="round" stroke-linejoin="round" stroke-width="1" />
	<path id="矢量 16" d="M8 1.33337L8 14.3334" stroke="rgb(0,205,27)" stroke-linecap="round" stroke-linejoin="round" stroke-width="1" />
	<path id="矢量 17" d="M7 14.6666L9 14.6666" stroke="rgb(0,205,27)" stroke-linecap="round" stroke-linejoin="round" stroke-width="1" />
</svg>
