<svg viewBox="0 0 16 16" xmlns="http://www.w3.org/2000/svg" xmlns:xlink="http://www.w3.org/1999/xlink" width="16.000000" height="16.000000" fill="none">
	<rect id="信息 1" width="16.000002" height="16.000002" x="0.000000" y="0.000000" />
	<path id="矢量 34" d="M12.714 12.714C13.9205 11.5075 14.6667 9.84085 14.6667 7.99992C14.6667 6.15899 13.9205 4.49232 12.714 3.28587C11.5076 2.07945 9.84094 1.33325 8.00001 1.33325C6.15908 1.33325 4.49241 2.07945 3.28596 3.28587C2.07954 4.49232 1.33334 6.15899 1.33334 7.99992C1.33334 9.84085 2.07954 11.5075 3.28596 12.714C4.49241 13.9204 6.15908 14.6666 8.00001 14.6666C9.84094 14.6666 11.5076 13.9204 12.714 12.714Z" fill-rule="nonzero" stroke="currentColor" stroke-linejoin="round" stroke-width="1" />
	<path id="矢量 35" d="M7.99999 3.66675C8.46022 3.66675 8.83332 4.03985 8.83332 4.50008C8.83332 4.96031 8.46022 5.33342 7.99999 5.33342C7.53976 5.33342 7.16666 4.96031 7.16666 4.50008C7.16666 4.03985 7.53976 3.66675 7.99999 3.66675Z" fill="currentColor" fill-rule="evenodd" />
	<path id="矢量 36" d="M8.16667 11.3334L8.16667 6.66675L7.83333 6.66675L7.5 6.66675" fill-rule="nonzero" stroke="currentColor" stroke-linecap="round" stroke-linejoin="round" stroke-width="1" />
	<path id="矢量 37" d="M7 11.3333L9.33333 11.3333" stroke="currentColor" stroke-linecap="round" stroke-linejoin="round" stroke-width="1" />
</svg>
