<svg viewBox="0 0 144 24" xmlns="http://www.w3.org/2000/svg" xmlns:xlink="http://www.w3.org/1999/xlink" width="144.000000" height="24.000000" fill="none">
	<defs>
		<clipPath id="clipPath_100">
			<rect width="16.000002" height="16.000002" x="10.000000" y="4.000000" fill="rgb(255,255,255)" />
		</clipPath>
	</defs>
	<rect id="类型=Video, 状态=按下" width="144.000000" height="24.000000" x="0.000000" y="0.000000" fill="rgb(230,230,230)" />
	<g id="电脑 1" clip-path="url(#clipPath_100)" customFrame="url(#clipPath_100)">
		<rect id="电脑 1" width="16.000002" height="16.000002" x="10.000000" y="4.000000" />
		<rect id="矩形 5" width="3.333334" height="3.000000" x="16.333374" y="14.666626" stroke="rgb(51,51,51)" stroke-linecap="round" stroke-linejoin="round" stroke-width="1" />
		<rect id="矩形 6" width="12.666668" height="8.000001" x="11.666626" y="6.666626" rx="0.666667" fill="rgb(51,51,51)" />
		<rect id="矩形 6" width="12.666668" height="8.000001" x="11.666626" y="6.666626" rx="0.666667" stroke="rgb(51,51,51)" stroke-width="1" />
		<path id="矢量 80" d="M17.3334 13L18.6667 13" stroke="rgb(255,255,255)" stroke-linecap="round" stroke-linejoin="round" stroke-width="1" />
		<path id="矢量 81" d="M14.6666 17.6666L21.3333 17.6666" stroke="rgb(51,51,51)" stroke-linecap="round" stroke-linejoin="round" stroke-width="1" />
	</g>
	<path id="" d="M33.3398 16.5L33.3398 8.73633C33.1602 8.91602 32.8564 9.11719 32.4287 9.33984C32.001 9.5625 31.6055 9.71875 31.2422 9.80859L31.2422 8.68359C31.7227 8.55078 32.2363 8.33887 32.7832 8.04785C33.3301 7.75684 33.75 7.48242 34.043 7.22461L34.4766 7.22461L34.4766 16.5L33.3398 16.5ZM38.1211 15.2695C38.6211 15.5586 39.1602 15.7031 39.7383 15.7031C40.5508 15.7031 41.1807 15.3828 41.6279 14.7422C42.0752 14.1016 42.2988 13.1914 42.2988 12.0117L42.2871 12.0176L42.2754 12.0117C41.877 12.7695 41.207 13.1484 40.2656 13.1484C39.5039 13.1484 38.873 12.8867 38.373 12.3633C37.873 11.8398 37.623 11.1602 37.623 10.3242C37.623 9.43359 37.8965 8.70215 38.4434 8.12988C38.9902 7.55762 39.6992 7.27148 40.5703 7.27148C41.4727 7.27148 42.1777 7.62598 42.6855 8.33496C43.1934 9.04395 43.4473 10.0762 43.4473 11.4316C43.4473 13.1074 43.1191 14.3965 42.4629 15.2988C41.8066 16.2012 40.8984 16.6523 39.7383 16.6523C39.1016 16.6523 38.5625 16.5488 38.1211 16.3418L38.1211 15.2695ZM38.7832 10.1777C38.7832 10.7871 38.9395 11.2705 39.252 11.6279C39.5645 11.9854 39.9961 12.1641 40.5469 12.1641C41.0234 12.1641 41.4238 12.001 41.748 11.6748C42.0723 11.3486 42.2344 10.9531 42.2344 10.4883C42.2344 9.83594 42.0732 9.2959 41.751 8.86816C41.4287 8.44043 41.0039 8.22656 40.4766 8.22656C39.9883 8.22656 39.584 8.41211 39.2637 8.7832C38.9434 9.1543 38.7832 9.61914 38.7832 10.1777ZM49.0723 9.80273C49.0723 9.31445 48.918 8.93066 48.6094 8.65137C48.3008 8.37207 47.8809 8.23242 47.3496 8.23242C46.9746 8.23242 46.5957 8.32812 46.2129 8.51953C45.8301 8.71094 45.4727 8.98438 45.1406 9.33984L45.1406 8.22656C45.4375 7.91797 45.7744 7.68164 46.1514 7.51758C46.5283 7.35352 46.9707 7.27148 47.4785 7.27148C48.2988 7.27148 48.959 7.49121 49.459 7.93066C49.959 8.37012 50.209 8.96484 50.209 9.71484C50.209 10.3828 50.0557 10.9609 49.749 11.4492C49.4424 11.9375 48.918 12.4375 48.1758 12.9492C47.418 13.4727 46.9111 13.8477 46.6553 14.0742C46.3994 14.3008 46.2207 14.5176 46.1191 14.7246C46.0176 14.9316 45.9668 15.1836 45.9668 15.4805L50.4785 15.4805L50.4785 16.5L44.7715 16.5L44.7715 16.0488C44.7715 15.5254 44.8428 15.0811 44.9854 14.7158C45.1279 14.3506 45.3633 13.9951 45.6914 13.6494C46.0195 13.3037 46.5312 12.8887 47.2266 12.4043C47.9375 11.9043 48.4229 11.4658 48.6826 11.0889C48.9424 10.7119 49.0723 10.2832 49.0723 9.80273ZM51.6387 12.1406C51.6387 10.5391 51.9043 9.32715 52.4355 8.50488C52.9668 7.68262 53.7363 7.27148 54.7441 7.27148C56.666 7.27148 57.627 8.82227 57.627 11.9238C57.627 13.4551 57.3564 14.626 56.8154 15.4365C56.2744 16.2471 55.5156 16.6523 54.5391 16.6523C53.6172 16.6523 52.9033 16.2676 52.3975 15.498C51.8916 14.7285 51.6387 13.6094 51.6387 12.1406ZM52.8105 12.0879C52.8105 14.498 53.4219 15.7031 54.6445 15.7031C55.8477 15.7031 56.4492 14.4785 56.4492 12.0293C56.4492 9.49414 55.8594 8.22656 54.6797 8.22656C53.4336 8.22656 52.8105 9.51367 52.8105 12.0879ZM65.3789 14.8711L64.7461 15.5039L62.5957 13.3535L60.457 15.5039L59.8242 14.8711L61.9805 12.7324L59.8242 10.582L60.457 9.95508L62.5957 12.1055L64.752 9.95508L65.3789 10.5879L63.2285 12.7324L65.3789 14.8711ZM70.3887 16.5L70.3887 8.73633C70.209 8.91602 69.9053 9.11719 69.4775 9.33984C69.0498 9.5625 68.6543 9.71875 68.291 9.80859L68.291 8.68359C68.7715 8.55078 69.2852 8.33887 69.832 8.04785C70.3789 7.75684 70.7988 7.48242 71.0918 7.22461L71.5254 7.22461L71.5254 16.5L70.3887 16.5ZM74.6133 12.1406C74.6133 10.5391 74.8789 9.32715 75.4102 8.50488C75.9414 7.68262 76.7109 7.27148 77.7188 7.27148C79.6406 7.27148 80.6016 8.82227 80.6016 11.9238C80.6016 13.4551 80.3311 14.626 79.79 15.4365C79.249 16.2471 78.4902 16.6523 77.5137 16.6523C76.5918 16.6523 75.8779 16.2676 75.3721 15.498C74.8662 14.7285 74.6133 13.6094 74.6133 12.1406ZM75.7852 12.0879C75.7852 14.498 76.3965 15.7031 77.6191 15.7031C78.8223 15.7031 79.4238 14.4785 79.4238 12.0293C79.4238 9.49414 78.834 8.22656 77.6543 8.22656C76.4082 8.22656 75.7852 9.51367 75.7852 12.0879ZM81.6973 13.9688C81.6973 13.4453 81.8535 12.9629 82.166 12.5215C82.4785 12.0801 82.8809 11.7656 83.373 11.5781C82.9785 11.3555 82.666 11.0703 82.4355 10.7227C82.2051 10.375 82.0898 9.99805 82.0898 9.5918C82.0898 9.16211 82.2002 8.76953 82.4209 8.41406C82.6416 8.05859 82.9482 7.7793 83.3408 7.57617C83.7334 7.37305 84.166 7.27148 84.6387 7.27148C85.1152 7.27148 85.5508 7.37207 85.9453 7.57324C86.3398 7.77441 86.6465 8.05273 86.8652 8.4082C87.084 8.76367 87.1934 9.1582 87.1934 9.5918C87.1934 9.99023 87.0811 10.3643 86.8564 10.7139C86.6318 11.0635 86.3203 11.3516 85.9219 11.5781C86.4141 11.7695 86.8145 12.0859 87.123 12.5273C87.4316 12.9688 87.5859 13.4492 87.5859 13.9688C87.5859 14.4844 87.4629 14.9463 87.2168 15.3545C86.9707 15.7627 86.6211 16.0801 86.168 16.3066C85.7148 16.5332 85.2051 16.6465 84.6387 16.6465C84.0762 16.6465 83.5703 16.5332 83.1211 16.3066C82.6719 16.0801 82.3223 15.7617 82.0723 15.3516C81.8223 14.9414 81.6973 14.4805 81.6973 13.9688ZM82.8223 13.916C82.8223 14.4551 82.9883 14.8867 83.3203 15.2109C83.6523 15.5352 84.0938 15.6973 84.6445 15.6973C85.1836 15.6973 85.624 15.5322 85.9658 15.2021C86.3076 14.8721 86.4785 14.4434 86.4785 13.916C86.4785 13.416 86.3057 12.9951 85.96 12.6533C85.6143 12.3115 85.1758 12.1406 84.6445 12.1406C84.1172 12.1406 83.6816 12.3076 83.3379 12.6416C82.9941 12.9756 82.8223 13.4004 82.8223 13.916ZM83.1504 9.68555C83.1504 10.0918 83.2949 10.4404 83.584 10.7314C83.873 11.0225 84.2266 11.168 84.6445 11.168C85.0547 11.168 85.4092 11.0215 85.708 10.7285C86.0068 10.4355 86.1562 10.0879 86.1562 9.68555C86.1562 9.27539 86.0127 8.92773 85.7256 8.64258C85.4385 8.35742 85.0781 8.21484 84.6445 8.21484C84.2148 8.21484 83.8584 8.35449 83.5752 8.63379C83.292 8.91309 83.1504 9.26367 83.1504 9.68555ZM88.6875 12.1406C88.6875 10.5391 88.9531 9.32715 89.4844 8.50488C90.0156 7.68262 90.7852 7.27148 91.793 7.27148C93.7148 7.27148 94.6758 8.82227 94.6758 11.9238C94.6758 13.4551 94.4053 14.626 93.8643 15.4365C93.3232 16.2471 92.5645 16.6523 91.5879 16.6523C90.666 16.6523 89.9521 16.2676 89.4463 15.498C88.9404 14.7285 88.6875 13.6094 88.6875 12.1406ZM89.8594 12.0879C89.8594 14.498 90.4707 15.7031 91.6934 15.7031C92.8965 15.7031 93.498 14.4785 93.498 12.0293C93.498 9.49414 92.9082 8.22656 91.7285 8.22656C90.4824 8.22656 89.8594 9.51367 89.8594 12.0879ZM107.748 7.42383L107.748 13.418L109.107 13.418L109.107 14.3672L107.748 14.3672L107.748 16.5L106.635 16.5L106.635 14.3672L102.398 14.3672L102.398 13.4707C103.152 12.623 103.91 11.6465 104.672 10.541C105.434 9.43555 106.062 8.39648 106.559 7.42383L107.748 7.42383ZM103.688 13.418L106.635 13.418L106.635 9.09375C106.229 9.82422 105.793 10.5322 105.328 11.2178C104.863 11.9033 104.316 12.6367 103.688 13.418ZM109.863 12.1406C109.863 10.5391 110.129 9.32715 110.66 8.50488C111.191 7.68262 111.961 7.27148 112.969 7.27148C114.891 7.27148 115.852 8.82227 115.852 11.9238C115.852 13.4551 115.581 14.626 115.04 15.4365C114.499 16.2471 113.74 16.6523 112.764 16.6523C111.842 16.6523 111.128 16.2676 110.622 15.498C110.116 14.7285 109.863 13.6094 109.863 12.1406ZM111.035 12.0879C111.035 14.498 111.646 15.7031 112.869 15.7031C114.072 15.7031 114.674 14.4785 114.674 12.0293C114.674 9.49414 114.084 8.22656 112.904 8.22656C111.658 8.22656 111.035 9.51367 111.035 12.0879ZM120.721 7.88672C120.506 7.77344 120.273 7.7168 120.023 7.7168C119.305 7.7168 118.945 8.16211 118.945 9.05273L118.945 10.0195L120.463 10.0195L120.463 10.9688L118.945 10.9688L118.945 16.5L117.809 16.5L117.809 10.9688L116.701 10.9688L116.701 10.0195L117.809 10.0195L117.809 9C117.809 8.30469 118.009 7.75879 118.409 7.3623C118.81 6.96582 119.318 6.76758 119.936 6.76758C120.264 6.76758 120.525 6.80469 120.721 6.87891L120.721 7.88672ZM122.707 15.5859L122.707 19.4824L121.559 19.4824L121.559 10.0195L122.707 10.0195L122.707 11.1387L122.73 11.1387C123.238 10.291 123.98 9.86719 124.957 9.86719C125.785 9.86719 126.435 10.1572 126.905 10.7373C127.376 11.3174 127.611 12.0957 127.611 13.0723C127.611 14.1504 127.345 15.0166 126.812 15.6709C126.278 16.3252 125.561 16.6523 124.658 16.6523C123.826 16.6523 123.184 16.2969 122.73 15.5859L122.707 15.5859ZM122.701 13.8281C122.701 14.3555 122.871 14.7998 123.211 15.1611C123.551 15.5225 123.977 15.7031 124.488 15.7031C125.098 15.7031 125.574 15.4688 125.918 15C126.262 14.5312 126.434 13.8828 126.434 13.0547C126.434 12.3555 126.273 11.8076 125.953 11.4111C125.633 11.0146 125.195 10.8164 124.641 10.8164C124.074 10.8164 123.609 11.0176 123.246 11.4199C122.883 11.8223 122.701 12.3379 122.701 12.9668L122.701 13.8281ZM128.859 15.0996C129.438 15.5176 130.061 15.7266 130.729 15.7266C131.623 15.7266 132.07 15.4336 132.07 14.8477C132.07 14.5977 131.973 14.3916 131.777 14.2295C131.582 14.0674 131.186 13.875 130.588 13.6523C129.869 13.3633 129.402 13.0771 129.188 12.7939C128.973 12.5107 128.865 12.168 128.865 11.7656C128.865 11.1914 129.108 10.7314 129.595 10.3857C130.081 10.04 130.68 9.86719 131.391 9.86719C131.941 9.86719 132.453 9.96289 132.926 10.1543L132.926 11.2617C132.441 10.9492 131.893 10.793 131.279 10.793C130.912 10.793 130.613 10.873 130.383 11.0332C130.152 11.1934 130.037 11.4043 130.037 11.666C130.037 11.9238 130.12 12.125 130.286 12.2695C130.452 12.4141 130.82 12.5996 131.391 12.8262C132.113 13.0957 132.602 13.375 132.855 13.6641C133.109 13.9531 133.236 14.3105 133.236 14.7363C133.236 15.3301 132.993 15.7979 132.507 16.1396C132.021 16.4814 131.391 16.6523 130.617 16.6523C129.945 16.6523 129.359 16.5254 128.859 16.2715L128.859 15.0996Z" fill="rgb(51,51,51)" fill-rule="nonzero" />
</svg>
