<svg viewBox="0 0 144 23.9999" xmlns="http://www.w3.org/2000/svg" xmlns:xlink="http://www.w3.org/1999/xlink" width="144.000000" height="23.999878" fill="none">
	<defs>
		<clipPath id="clipPath_99">
			<rect width="16.000002" height="16.000002" x="10.000000" y="4.000000" fill="rgb(255,255,255)" />
		</clipPath>
	</defs>
	<rect id="类型=Video, 状态=选中" width="144.000000" height="24.000000" x="0.000000" y="0.000000" fill="rgb(255,255,255)" fill-opacity="0" />
	<g id="电脑 1" clip-path="url(#clipPath_99)" customFrame="url(#clipPath_99)">
		<rect id="电脑 1" width="16.000002" height="16.000002" x="10.000000" y="4.000000" />
		<rect id="矩形 5" width="3.333334" height="3.000000" x="16.333374" y="14.666626" stroke="rgb(22,152,217)" stroke-linecap="round" stroke-linejoin="round" stroke-width="1" />
		<rect id="矩形 6" width="12.666668" height="8.000001" x="11.666626" y="6.666626" rx="0.666667" fill="rgb(22,152,217)" />
		<rect id="矩形 6" width="12.666668" height="8.000001" x="11.666626" y="6.666626" rx="0.666667" stroke="rgb(22,152,217)" stroke-width="1" />
		<path id="矢量 80" d="M17.3334 12.9999L18.6667 12.9999" stroke="rgb(255,255,255)" stroke-linecap="round" stroke-linejoin="round" stroke-width="1" />
		<path id="矢量 81" d="M14.6666 17.6666L21.3333 17.6666" stroke="rgb(22,152,217)" stroke-linecap="round" stroke-linejoin="round" stroke-width="1" />
	</g>
	<path id="" d="M33.3398 16.4999L33.3398 8.73621C33.1602 8.91589 32.8564 9.11707 32.4287 9.33972C32.001 9.56238 31.6055 9.71863 31.2422 9.80847L31.2422 8.68347C31.7227 8.55066 32.2363 8.33875 32.7832 8.04773C33.3301 7.75671 33.75 7.4823 34.043 7.22449L34.4766 7.22449L34.4766 16.4999L33.3398 16.4999ZM38.1211 15.2694C38.6211 15.5585 39.1602 15.703 39.7383 15.703C40.5508 15.703 41.1807 15.3827 41.6279 14.7421C42.0752 14.1014 42.2988 13.1913 42.2988 12.0116L42.2871 12.0175L42.2754 12.0116C41.877 12.7694 41.207 13.1483 40.2656 13.1483C39.5039 13.1483 38.873 12.8866 38.373 12.3632C37.873 11.8397 37.623 11.16 37.623 10.3241C37.623 9.43347 37.8965 8.70203 38.4434 8.12976C38.9902 7.5575 39.6992 7.27136 40.5703 7.27136C41.4727 7.27136 42.1777 7.62585 42.6855 8.33484C43.1934 9.04382 43.4473 10.076 43.4473 11.4315C43.4473 13.1073 43.1191 14.3964 42.4629 15.2987C41.8066 16.201 40.8984 16.6522 39.7383 16.6522C39.1016 16.6522 38.5625 16.5487 38.1211 16.3417L38.1211 15.2694ZM38.7832 10.1776C38.7832 10.787 38.9395 11.2704 39.252 11.6278C39.5645 11.9852 39.9961 12.1639 40.5469 12.1639C41.0234 12.1639 41.4238 12.0009 41.748 11.6747C42.0723 11.3485 42.2344 10.953 42.2344 10.4882C42.2344 9.83582 42.0732 9.29578 41.751 8.86804C41.4287 8.44031 41.0039 8.22644 40.4766 8.22644C39.9883 8.22644 39.584 8.41199 39.2637 8.78308C38.9434 9.15417 38.7832 9.61902 38.7832 10.1776ZM49.0723 9.80261C49.0723 9.31433 48.918 8.93054 48.6094 8.65125C48.3008 8.37195 47.8809 8.2323 47.3496 8.2323C46.9746 8.2323 46.5957 8.328 46.2129 8.51941C45.8301 8.71082 45.4727 8.98425 45.1406 9.33972L45.1406 8.22644C45.4375 7.91785 45.7744 7.68152 46.1514 7.51746C46.5283 7.35339 46.9707 7.27136 47.4785 7.27136C48.2988 7.27136 48.959 7.49109 49.459 7.93054C49.959 8.37 50.209 8.96472 50.209 9.71472C50.209 10.3827 50.0557 10.9608 49.749 11.4491C49.4424 11.9374 48.918 12.4374 48.1758 12.9491C47.418 13.4725 46.9111 13.8475 46.6553 14.0741C46.3994 14.3007 46.2207 14.5175 46.1191 14.7245C46.0176 14.9315 45.9668 15.1835 45.9668 15.4803L50.4785 15.4803L50.4785 16.4999L44.7715 16.4999L44.7715 16.0487C44.7715 15.5253 44.8428 15.0809 44.9854 14.7157C45.1279 14.3505 45.3633 13.995 45.6914 13.6493C46.0195 13.3036 46.5312 12.8885 47.2266 12.4042C47.9375 11.9042 48.4229 11.4657 48.6826 11.0887C48.9424 10.7118 49.0723 10.2831 49.0723 9.80261ZM51.6387 12.1405C51.6387 10.5389 51.9043 9.32703 52.4355 8.50476C52.9668 7.6825 53.7363 7.27136 54.7441 7.27136C56.666 7.27136 57.627 8.82214 57.627 11.9237C57.627 13.455 57.3564 14.6259 56.8154 15.4364C56.2744 16.2469 55.5156 16.6522 54.5391 16.6522C53.6172 16.6522 52.9033 16.2675 52.3975 15.4979C51.8916 14.7284 51.6387 13.6093 51.6387 12.1405ZM52.8105 12.0878C52.8105 14.4979 53.4219 15.703 54.6445 15.703C55.8477 15.703 56.4492 14.4784 56.4492 12.0292C56.4492 9.49402 55.8594 8.22644 54.6797 8.22644C53.4336 8.22644 52.8105 9.51355 52.8105 12.0878ZM65.3789 14.871L64.7461 15.5038L62.5957 13.3534L60.457 15.5038L59.8242 14.871L61.9805 12.7323L59.8242 10.5819L60.457 9.95496L62.5957 12.1053L64.752 9.95496L65.3789 10.5878L63.2285 12.7323L65.3789 14.871ZM70.3887 16.4999L70.3887 8.73621C70.209 8.91589 69.9053 9.11707 69.4775 9.33972C69.0498 9.56238 68.6543 9.71863 68.291 9.80847L68.291 8.68347C68.7715 8.55066 69.2852 8.33875 69.832 8.04773C70.3789 7.75671 70.7988 7.4823 71.0918 7.22449L71.5254 7.22449L71.5254 16.4999L70.3887 16.4999ZM74.6133 12.1405C74.6133 10.5389 74.8789 9.32703 75.4102 8.50476C75.9414 7.6825 76.7109 7.27136 77.7188 7.27136C79.6406 7.27136 80.6016 8.82214 80.6016 11.9237C80.6016 13.455 80.3311 14.6259 79.79 15.4364C79.249 16.2469 78.4902 16.6522 77.5137 16.6522C76.5918 16.6522 75.8779 16.2675 75.3721 15.4979C74.8662 14.7284 74.6133 13.6093 74.6133 12.1405ZM75.7852 12.0878C75.7852 14.4979 76.3965 15.703 77.6191 15.703C78.8223 15.703 79.4238 14.4784 79.4238 12.0292C79.4238 9.49402 78.834 8.22644 77.6543 8.22644C76.4082 8.22644 75.7852 9.51355 75.7852 12.0878ZM81.6973 13.9686C81.6973 13.4452 81.8535 12.9628 82.166 12.5214C82.4785 12.08 82.8809 11.7655 83.373 11.578C82.9785 11.3553 82.666 11.0702 82.4355 10.7225C82.2051 10.3749 82.0898 9.99792 82.0898 9.59167C82.0898 9.16199 82.2002 8.76941 82.4209 8.41394C82.6416 8.05847 82.9482 7.77917 83.3408 7.57605C83.7334 7.37292 84.166 7.27136 84.6387 7.27136C85.1152 7.27136 85.5508 7.37195 85.9453 7.57312C86.3398 7.77429 86.6465 8.05261 86.8652 8.40808C87.084 8.76355 87.1934 9.15808 87.1934 9.59167C87.1934 9.99011 87.0811 10.3641 86.8564 10.7137C86.6318 11.0634 86.3203 11.3514 85.9219 11.578C86.4141 11.7694 86.8145 12.0858 87.123 12.5272C87.4316 12.9686 87.5859 13.4491 87.5859 13.9686C87.5859 14.4843 87.4629 14.9462 87.2168 15.3544C86.9707 15.7626 86.6211 16.08 86.168 16.3065C85.7148 16.5331 85.2051 16.6464 84.6387 16.6464C84.0762 16.6464 83.5703 16.5331 83.1211 16.3065C82.6719 16.08 82.3223 15.7616 82.0723 15.3514C81.8223 14.9413 81.6973 14.4803 81.6973 13.9686ZM82.8223 13.9159C82.8223 14.455 82.9883 14.8866 83.3203 15.2108C83.6523 15.535 84.0938 15.6971 84.6445 15.6971C85.1836 15.6971 85.624 15.5321 85.9658 15.202C86.3076 14.8719 86.4785 14.4432 86.4785 13.9159C86.4785 13.4159 86.3057 12.995 85.96 12.6532C85.6143 12.3114 85.1758 12.1405 84.6445 12.1405C84.1172 12.1405 83.6816 12.3075 83.3379 12.6415C82.9941 12.9755 82.8223 13.4003 82.8223 13.9159ZM83.1504 9.68542C83.1504 10.0917 83.2949 10.4403 83.584 10.7313C83.873 11.0223 84.2266 11.1678 84.6445 11.1678C85.0547 11.1678 85.4092 11.0214 85.708 10.7284C86.0068 10.4354 86.1562 10.0878 86.1562 9.68542C86.1562 9.27527 86.0127 8.92761 85.7256 8.64246C85.4385 8.3573 85.0781 8.21472 84.6445 8.21472C84.2148 8.21472 83.8584 8.35437 83.5752 8.63367C83.292 8.91296 83.1504 9.26355 83.1504 9.68542ZM88.6875 12.1405C88.6875 10.5389 88.9531 9.32703 89.4844 8.50476C90.0156 7.6825 90.7852 7.27136 91.793 7.27136C93.7148 7.27136 94.6758 8.82214 94.6758 11.9237C94.6758 13.455 94.4053 14.6259 93.8643 15.4364C93.3232 16.2469 92.5645 16.6522 91.5879 16.6522C90.666 16.6522 89.9521 16.2675 89.4463 15.4979C88.9404 14.7284 88.6875 13.6093 88.6875 12.1405ZM89.8594 12.0878C89.8594 14.4979 90.4707 15.703 91.6934 15.703C92.8965 15.703 93.498 14.4784 93.498 12.0292C93.498 9.49402 92.9082 8.22644 91.7285 8.22644C90.4824 8.22644 89.8594 9.51355 89.8594 12.0878ZM107.748 7.42371L107.748 13.4178L109.107 13.4178L109.107 14.3671L107.748 14.3671L107.748 16.4999L106.635 16.4999L106.635 14.3671L102.398 14.3671L102.398 13.4706C103.152 12.6229 103.91 11.6464 104.672 10.5409C105.434 9.43542 106.062 8.39636 106.559 7.42371L107.748 7.42371ZM103.688 13.4178L106.635 13.4178L106.635 9.09363C106.229 9.8241 105.793 10.5321 105.328 11.2177C104.863 11.9032 104.316 12.6366 103.688 13.4178ZM109.863 12.1405C109.863 10.5389 110.129 9.32703 110.66 8.50476C111.191 7.6825 111.961 7.27136 112.969 7.27136C114.891 7.27136 115.852 8.82214 115.852 11.9237C115.852 13.455 115.581 14.6259 115.04 15.4364C114.499 16.2469 113.74 16.6522 112.764 16.6522C111.842 16.6522 111.128 16.2675 110.622 15.4979C110.116 14.7284 109.863 13.6093 109.863 12.1405ZM111.035 12.0878C111.035 14.4979 111.646 15.703 112.869 15.703C114.072 15.703 114.674 14.4784 114.674 12.0292C114.674 9.49402 114.084 8.22644 112.904 8.22644C111.658 8.22644 111.035 9.51355 111.035 12.0878ZM120.721 7.8866C120.506 7.77332 120.273 7.71667 120.023 7.71667C119.305 7.71667 118.945 8.16199 118.945 9.05261L118.945 10.0194L120.463 10.0194L120.463 10.9686L118.945 10.9686L118.945 16.4999L117.809 16.4999L117.809 10.9686L116.701 10.9686L116.701 10.0194L117.809 10.0194L117.809 8.99988C117.809 8.30457 118.009 7.75867 118.409 7.36218C118.81 6.9657 119.318 6.76746 119.936 6.76746C120.264 6.76746 120.525 6.80457 120.721 6.87878L120.721 7.8866ZM122.707 15.5858L122.707 19.4823L121.559 19.4823L121.559 10.0194L122.707 10.0194L122.707 11.1385L122.73 11.1385C123.238 10.2909 123.98 9.86707 124.957 9.86707C125.785 9.86707 126.435 10.1571 126.905 10.7372C127.376 11.3173 127.611 12.0956 127.611 13.0721C127.611 14.1503 127.345 15.0165 126.812 15.6708C126.278 16.3251 125.561 16.6522 124.658 16.6522C123.826 16.6522 123.184 16.2968 122.73 15.5858L122.707 15.5858ZM122.701 13.828C122.701 14.3553 122.871 14.7997 123.211 15.161C123.551 15.5223 123.977 15.703 124.488 15.703C125.098 15.703 125.574 15.4686 125.918 14.9999C126.262 14.5311 126.434 13.8827 126.434 13.0546C126.434 12.3553 126.273 11.8075 125.953 11.411C125.633 11.0145 125.195 10.8163 124.641 10.8163C124.074 10.8163 123.609 11.0175 123.246 11.4198C122.883 11.8221 122.701 12.3378 122.701 12.9667L122.701 13.828ZM128.859 15.0995C129.438 15.5175 130.061 15.7264 130.729 15.7264C131.623 15.7264 132.07 15.4335 132.07 14.8475C132.07 14.5975 131.973 14.3915 131.777 14.2294C131.582 14.0673 131.186 13.8749 130.588 13.6522C129.869 13.3632 129.402 13.077 129.188 12.7938C128.973 12.5106 128.865 12.1678 128.865 11.7655C128.865 11.1913 129.108 10.7313 129.595 10.3856C130.081 10.0399 130.68 9.86707 131.391 9.86707C131.941 9.86707 132.453 9.96277 132.926 10.1542L132.926 11.2616C132.441 10.9491 131.893 10.7928 131.279 10.7928C130.912 10.7928 130.613 10.8729 130.383 11.0331C130.152 11.1932 130.037 11.4042 130.037 11.6659C130.037 11.9237 130.12 12.1249 130.286 12.2694C130.452 12.4139 130.82 12.5995 131.391 12.826C132.113 13.0956 132.602 13.3749 132.855 13.6639C133.109 13.953 133.236 14.3104 133.236 14.7362C133.236 15.33 132.993 15.7977 132.507 16.1395C132.021 16.4813 131.391 16.6522 130.617 16.6522C129.945 16.6522 129.359 16.5253 128.859 16.2714L128.859 15.0995Z" fill="rgb(51,51,51)" fill-rule="nonzero" />
</svg>
