<svg viewBox="0 0 118 23.9999" xmlns="http://www.w3.org/2000/svg" xmlns:xlink="http://www.w3.org/1999/xlink" width="118.000000" height="23.999878" fill="none">
	<defs>
		<clipPath id="clipPath_97">
			<rect width="16.000002" height="16.000002" x="10.000000" y="4.000000" fill="rgb(255,255,255)" />
		</clipPath>
	</defs>
	<rect id="类型=虚拟存储, 状态=选中" width="118.000000" height="24.000000" x="0.000000" y="0.000000" fill="rgb(255,255,255)" fill-opacity="0" />
	<g id="从动装置 1" clip-path="url(#clipPath_97)" customFrame="url(#clipPath_97)">
		<rect id="从动装置 1" width="16.000002" height="16.000002" x="10.000000" y="4.000000" />
		<path id="矢量 12" d="M24.6666 13.6666L11.3333 13.6666L11.3333 18L24.6666 18L24.6666 13.6666Z" fill="rgb(22,152,217)" fill-rule="nonzero" />
		<path id="矢量 12" d="M11.3333 13.6666L11.3333 18L24.6666 18L24.6666 13.6666L11.3333 13.6666Z" fill-rule="nonzero" stroke="rgb(22,152,217)" stroke-linejoin="round" stroke-width="1" />
		<path id="矢量 13" d="M11.3333 13.6666L13.0127 5.66638L23.0068 5.66638L24.6666 13.6666" fill-rule="nonzero" stroke="rgb(22,152,217)" stroke-linejoin="round" stroke-width="1" />
		<path id="矢量 14" d="M16.3334 7.99988C15.4129 7.99988 14.6667 8.74608 14.6667 9.66654C14.6667 10.587 15.4129 11.3332 16.3334 11.3332" fill-rule="nonzero" stroke="rgb(22,152,217)" stroke-linecap="round" stroke-width="1" />
		<path id="矢量 15" d="M19.6666 11.3332C20.5871 11.3332 21.3333 10.587 21.3333 9.66654C21.3333 8.74608 20.5871 7.99988 19.6666 7.99988" fill-rule="nonzero" stroke="rgb(22,152,217)" stroke-linecap="round" stroke-width="1" />
		<path id="矢量 16" d="M16.6667 9.66663L19.3334 9.66663" stroke="rgb(22,152,217)" stroke-linecap="round" stroke-width="1" />
	</g>
	<path id="" d="M38.0098 7.42371L34.6758 16.4999L33.375 16.4999L30.1055 7.42371L31.4062 7.42371L33.8496 14.5194C33.9316 14.7538 33.9922 15.0253 34.0312 15.3339L34.0605 15.3339C34.0918 15.0643 34.1602 14.7889 34.2656 14.5077L36.7559 7.42371L38.0098 7.42371ZM39 7.73425C39 7.53113 39.0693 7.36023 39.208 7.22156C39.3467 7.08289 39.5176 7.01355 39.7207 7.01355C39.9277 7.01355 40.1025 7.08191 40.2451 7.21863C40.3877 7.35535 40.459 7.52722 40.459 7.73425C40.459 7.93738 40.3877 8.10632 40.2451 8.24109C40.1025 8.37585 39.9277 8.44324 39.7207 8.44324C39.5137 8.44324 39.3418 8.37585 39.2051 8.24109C39.0684 8.10632 39 7.93738 39 7.73425ZM39.1348 16.4999L39.1348 10.0194L40.2832 10.0194L40.2832 16.4999L39.1348 16.4999ZM45.8086 11.1561C45.6172 11.0194 45.3535 10.951 45.0176 10.951C44.5723 10.951 44.2051 11.1591 43.916 11.5751C43.627 11.9911 43.4824 12.5389 43.4824 13.2186L43.4824 16.4999L42.334 16.4999L42.334 10.0194L43.4824 10.0194L43.4824 11.3378L43.5059 11.3378C43.834 10.3846 44.4004 9.90808 45.2051 9.90808C45.4668 9.90808 45.668 9.93738 45.8086 9.99597L45.8086 11.1561ZM50.4023 16.4354C50.1523 16.5721 49.8145 16.6405 49.3887 16.6405C48.2285 16.6405 47.6484 15.9979 47.6484 14.7128L47.6484 10.9686L46.5352 10.9686L46.5352 10.0194L47.6484 10.0194L47.6484 8.46082L48.791 8.09753L48.791 10.0194L50.4023 10.0194L50.4023 10.9686L48.791 10.9686L48.791 14.5077C48.791 14.9335 48.8633 15.2382 49.0078 15.4218C49.1523 15.6053 49.3926 15.6971 49.7285 15.6971C49.9863 15.6971 50.2109 15.6249 50.4023 15.4803L50.4023 16.4354ZM57.1113 16.4999L55.957 16.4999L55.957 15.4803L55.9336 15.4803C55.5 16.2616 54.834 16.6522 53.9355 16.6522C52.4004 16.6522 51.6328 15.7343 51.6328 13.8983L51.6328 10.0194L52.7695 10.0194L52.7695 13.7284C52.7695 15.0448 53.2734 15.703 54.2812 15.703C54.7812 15.703 55.1855 15.5184 55.4941 15.1493C55.8027 14.7802 55.957 14.3143 55.957 13.7518L55.957 10.0194L57.1113 10.0194L57.1113 16.4999ZM59.3086 10.4706C59.9531 10.0682 60.6973 9.86707 61.541 9.86707C63.1035 9.86707 63.8848 10.6874 63.8848 12.328L63.8848 16.4999L62.748 16.4999L62.748 15.4979L62.7188 15.4979C62.2695 16.2675 61.6074 16.6522 60.7324 16.6522C60.1035 16.6522 59.6035 16.4823 59.2324 16.1425C58.8613 15.8026 58.6758 15.3436 58.6758 14.7655C58.6758 13.5546 59.3926 12.8495 60.8262 12.6503L62.748 12.3807C62.748 11.3221 62.3105 10.7928 61.4355 10.7928C60.6582 10.7928 59.9492 11.0546 59.3086 11.578L59.3086 10.4706ZM61.2305 13.453C60.6992 13.5233 60.333 13.6561 60.1318 13.8514C59.9307 14.0468 59.8301 14.3202 59.8301 14.6718C59.8301 14.9803 59.9395 15.2323 60.1582 15.4276C60.377 15.6229 60.666 15.7206 61.0254 15.7206C61.5254 15.7206 61.9375 15.5448 62.2617 15.1932C62.5859 14.8417 62.748 14.4003 62.748 13.869L62.748 13.2479L61.2305 13.453ZM65.7832 16.4999L65.7832 6.90808L66.9316 6.90808L66.9316 16.4999L65.7832 16.4999ZM80.8887 16.4999L80.8887 10.4882C80.8887 9.99207 80.918 9.39636 80.9766 8.70105L80.9473 8.70105C80.8457 9.13855 80.7559 9.44324 80.6777 9.61511L77.6836 16.4999L77.0332 16.4999L74.0449 9.66785C73.9746 9.5116 73.8848 9.18933 73.7754 8.70105L73.7402 8.70105C73.7793 9.12292 73.7988 9.73621 73.7988 10.5409L73.7988 16.4999L72.6797 16.4999L72.6797 7.42371L74.2676 7.42371L76.9453 13.6464C77.1484 14.1229 77.2832 14.494 77.3496 14.7596L77.3906 14.7596C77.5938 14.201 77.7363 13.8221 77.8184 13.6229L80.543 7.42371L82.0547 7.42371L82.0547 16.4999L80.8887 16.4999ZM89.5371 13.5526L85.002 13.5526C85.0215 14.244 85.2109 14.7782 85.5703 15.1552C85.9297 15.5321 86.4316 15.7206 87.0762 15.7206C87.8027 15.7206 88.4688 15.4882 89.0742 15.0233L89.0742 16.0487C88.5039 16.451 87.748 16.6522 86.8066 16.6522C85.8691 16.6522 85.1377 16.3553 84.6123 15.7616C84.0869 15.1678 83.8242 14.3436 83.8242 13.2889C83.8242 12.2968 84.1123 11.4784 84.6885 10.8339C85.2646 10.1893 85.9805 9.86707 86.8359 9.86707C87.6836 9.86707 88.3457 10.1395 88.8223 10.6844C89.2988 11.2294 89.5371 11.9921 89.5371 12.9725L89.5371 13.5526ZM88.3887 12.6327C88.3848 12.0468 88.2461 11.5936 87.9727 11.2733C87.6992 10.953 87.3145 10.7928 86.8184 10.7928C86.3613 10.7928 85.9658 10.9628 85.6318 11.3026C85.2979 11.6425 85.0879 12.0858 85.002 12.6327L88.3887 12.6327ZM96.6914 16.4999L95.543 16.4999L95.543 15.4218L95.5195 15.4218C95.0469 16.2421 94.3125 16.6522 93.3164 16.6522C92.4961 16.6522 91.8438 16.3602 91.3594 15.7762C90.875 15.1923 90.6328 14.4042 90.6328 13.412C90.6328 12.3417 90.9062 11.4833 91.4531 10.8368C92 10.1903 92.7148 9.86707 93.5977 9.86707C94.4805 9.86707 95.1211 10.2108 95.5195 10.8983L95.543 10.8983L95.543 6.90808L96.6914 6.90808L96.6914 16.4999ZM95.5488 12.6444C95.5488 12.1249 95.3779 11.6903 95.0361 11.3407C94.6943 10.9911 94.2734 10.8163 93.7734 10.8163C93.1641 10.8163 92.6836 11.0438 92.332 11.4989C91.9805 11.954 91.8047 12.5741 91.8047 13.3593C91.8047 14.0819 91.9736 14.6532 92.3115 15.0731C92.6494 15.493 93.0996 15.703 93.6621 15.703C94.2168 15.703 94.6699 15.4969 95.0215 15.0848C95.373 14.6727 95.5488 14.16 95.5488 13.5468L95.5488 12.6444ZM98.6016 7.73425C98.6016 7.53113 98.6709 7.36023 98.8096 7.22156C98.9482 7.08289 99.1191 7.01355 99.3223 7.01355C99.5293 7.01355 99.7041 7.08191 99.8467 7.21863C99.9893 7.35535 100.061 7.52722 100.061 7.73425C100.061 7.93738 99.9893 8.10632 99.8467 8.24109C99.7041 8.37585 99.5293 8.44324 99.3223 8.44324C99.1152 8.44324 98.9434 8.37585 98.8066 8.24109C98.6699 8.10632 98.6016 7.93738 98.6016 7.73425ZM98.7363 16.4999L98.7363 10.0194L99.8848 10.0194L99.8848 16.4999L98.7363 16.4999ZM102.088 10.4706C102.732 10.0682 103.477 9.86707 104.32 9.86707C105.883 9.86707 106.664 10.6874 106.664 12.328L106.664 16.4999L105.527 16.4999L105.527 15.4979L105.498 15.4979C105.049 16.2675 104.387 16.6522 103.512 16.6522C102.883 16.6522 102.383 16.4823 102.012 16.1425C101.641 15.8026 101.455 15.3436 101.455 14.7655C101.455 13.5546 102.172 12.8495 103.605 12.6503L105.527 12.3807C105.527 11.3221 105.09 10.7928 104.215 10.7928C103.438 10.7928 102.729 11.0546 102.088 11.578L102.088 10.4706ZM104.01 13.453C103.479 13.5233 103.112 13.6561 102.911 13.8514C102.71 14.0468 102.609 14.3202 102.609 14.6718C102.609 14.9803 102.719 15.2323 102.938 15.4276C103.156 15.6229 103.445 15.7206 103.805 15.7206C104.305 15.7206 104.717 15.5448 105.041 15.1932C105.365 14.8417 105.527 14.4003 105.527 13.869L105.527 13.2479L104.01 13.453Z" fill="rgb(51,51,51)" fill-rule="nonzero" />
</svg>
