<svg viewBox="0 0 118 24" xmlns="http://www.w3.org/2000/svg" xmlns:xlink="http://www.w3.org/1999/xlink" width="118.000000" height="24.000000" fill="none">
	<defs>
		<clipPath id="clipPath_106">
			<rect width="16.000002" height="16.000002" x="10.000000" y="4.000000" fill="rgb(255,255,255)" />
		</clipPath>
	</defs>
	<rect id="类型=虚拟存储, 状态=按下" width="118.000000" height="24.000000" x="0.000000" y="0.000000" fill="rgb(230,230,230)" />
	<g id="从动装置 1" clip-path="url(#clipPath_106)" customFrame="url(#clipPath_106)">
		<rect id="从动装置 1" width="16.000002" height="16.000002" x="10.000000" y="4.000000" />
		<path id="矢量 12" d="M24.6666 13.6666L11.3333 13.6666L11.3333 18L24.6666 18L24.6666 13.6666Z" fill="rgb(51,51,51)" fill-rule="nonzero" />
		<path id="矢量 12" d="M11.3333 13.6666L11.3333 18L24.6666 18L24.6666 13.6666L11.3333 13.6666Z" fill-rule="nonzero" stroke="rgb(51,51,51)" stroke-linejoin="round" stroke-width="1" />
		<path id="矢量 13" d="M11.3333 13.6666L13.0127 5.66638L23.0068 5.66638L24.6666 13.6666" fill-rule="nonzero" stroke="rgb(51,51,51)" stroke-linejoin="round" stroke-width="1" />
		<path id="矢量 14" d="M16.3334 8C15.4129 8 14.6667 8.7462 14.6667 9.66667C14.6667 10.5871 15.4129 11.3333 16.3334 11.3333" fill-rule="nonzero" stroke="rgb(51,51,51)" stroke-linecap="round" stroke-width="1" />
		<path id="矢量 15" d="M19.6666 11.3333C20.5871 11.3333 21.3333 10.5871 21.3333 9.66667C21.3333 8.7462 20.5871 8 19.6666 8" fill-rule="nonzero" stroke="rgb(51,51,51)" stroke-linecap="round" stroke-width="1" />
		<path id="矢量 16" d="M16.6667 9.66663L19.3334 9.66663" stroke="rgb(51,51,51)" stroke-linecap="round" stroke-width="1" />
	</g>
	<path id="" d="M38.0098 7.42383L34.6758 16.5L33.375 16.5L30.1055 7.42383L31.4062 7.42383L33.8496 14.5195C33.9316 14.7539 33.9922 15.0254 34.0312 15.334L34.0605 15.334C34.0918 15.0645 34.1602 14.7891 34.2656 14.5078L36.7559 7.42383L38.0098 7.42383ZM39 7.73438C39 7.53125 39.0693 7.36035 39.208 7.22168C39.3467 7.08301 39.5176 7.01367 39.7207 7.01367C39.9277 7.01367 40.1025 7.08203 40.2451 7.21875C40.3877 7.35547 40.459 7.52734 40.459 7.73438C40.459 7.9375 40.3877 8.10645 40.2451 8.24121C40.1025 8.37598 39.9277 8.44336 39.7207 8.44336C39.5137 8.44336 39.3418 8.37598 39.2051 8.24121C39.0684 8.10645 39 7.9375 39 7.73438ZM39.1348 16.5L39.1348 10.0195L40.2832 10.0195L40.2832 16.5L39.1348 16.5ZM45.8086 11.1562C45.6172 11.0195 45.3535 10.9512 45.0176 10.9512C44.5723 10.9512 44.2051 11.1592 43.916 11.5752C43.627 11.9912 43.4824 12.5391 43.4824 13.2188L43.4824 16.5L42.334 16.5L42.334 10.0195L43.4824 10.0195L43.4824 11.3379L43.5059 11.3379C43.834 10.3848 44.4004 9.9082 45.2051 9.9082C45.4668 9.9082 45.668 9.9375 45.8086 9.99609L45.8086 11.1562ZM50.4023 16.4355C50.1523 16.5723 49.8145 16.6406 49.3887 16.6406C48.2285 16.6406 47.6484 15.998 47.6484 14.7129L47.6484 10.9688L46.5352 10.9688L46.5352 10.0195L47.6484 10.0195L47.6484 8.46094L48.791 8.09766L48.791 10.0195L50.4023 10.0195L50.4023 10.9688L48.791 10.9688L48.791 14.5078C48.791 14.9336 48.8633 15.2383 49.0078 15.4219C49.1523 15.6055 49.3926 15.6973 49.7285 15.6973C49.9863 15.6973 50.2109 15.625 50.4023 15.4805L50.4023 16.4355ZM57.1113 16.5L55.957 16.5L55.957 15.4805L55.9336 15.4805C55.5 16.2617 54.834 16.6523 53.9355 16.6523C52.4004 16.6523 51.6328 15.7344 51.6328 13.8984L51.6328 10.0195L52.7695 10.0195L52.7695 13.7285C52.7695 15.0449 53.2734 15.7031 54.2812 15.7031C54.7812 15.7031 55.1855 15.5186 55.4941 15.1494C55.8027 14.7803 55.957 14.3145 55.957 13.752L55.957 10.0195L57.1113 10.0195L57.1113 16.5ZM59.3086 10.4707C59.9531 10.0684 60.6973 9.86719 61.541 9.86719C63.1035 9.86719 63.8848 10.6875 63.8848 12.3281L63.8848 16.5L62.748 16.5L62.748 15.498L62.7188 15.498C62.2695 16.2676 61.6074 16.6523 60.7324 16.6523C60.1035 16.6523 59.6035 16.4824 59.2324 16.1426C58.8613 15.8027 58.6758 15.3438 58.6758 14.7656C58.6758 13.5547 59.3926 12.8496 60.8262 12.6504L62.748 12.3809C62.748 11.3223 62.3105 10.793 61.4355 10.793C60.6582 10.793 59.9492 11.0547 59.3086 11.5781L59.3086 10.4707ZM61.2305 13.4531C60.6992 13.5234 60.333 13.6562 60.1318 13.8516C59.9307 14.0469 59.8301 14.3203 59.8301 14.6719C59.8301 14.9805 59.9395 15.2324 60.1582 15.4277C60.377 15.623 60.666 15.7207 61.0254 15.7207C61.5254 15.7207 61.9375 15.5449 62.2617 15.1934C62.5859 14.8418 62.748 14.4004 62.748 13.8691L62.748 13.248L61.2305 13.4531ZM65.7832 16.5L65.7832 6.9082L66.9316 6.9082L66.9316 16.5L65.7832 16.5ZM80.8887 16.5L80.8887 10.4883C80.8887 9.99219 80.918 9.39648 80.9766 8.70117L80.9473 8.70117C80.8457 9.13867 80.7559 9.44336 80.6777 9.61523L77.6836 16.5L77.0332 16.5L74.0449 9.66797C73.9746 9.51172 73.8848 9.18945 73.7754 8.70117L73.7402 8.70117C73.7793 9.12305 73.7988 9.73633 73.7988 10.541L73.7988 16.5L72.6797 16.5L72.6797 7.42383L74.2676 7.42383L76.9453 13.6465C77.1484 14.123 77.2832 14.4941 77.3496 14.7598L77.3906 14.7598C77.5938 14.2012 77.7363 13.8223 77.8184 13.623L80.543 7.42383L82.0547 7.42383L82.0547 16.5L80.8887 16.5ZM89.5371 13.5527L85.002 13.5527C85.0215 14.2441 85.2109 14.7783 85.5703 15.1553C85.9297 15.5322 86.4316 15.7207 87.0762 15.7207C87.8027 15.7207 88.4688 15.4883 89.0742 15.0234L89.0742 16.0488C88.5039 16.4512 87.748 16.6523 86.8066 16.6523C85.8691 16.6523 85.1377 16.3555 84.6123 15.7617C84.0869 15.168 83.8242 14.3438 83.8242 13.2891C83.8242 12.2969 84.1123 11.4785 84.6885 10.834C85.2646 10.1895 85.9805 9.86719 86.8359 9.86719C87.6836 9.86719 88.3457 10.1396 88.8223 10.6846C89.2988 11.2295 89.5371 11.9922 89.5371 12.9727L89.5371 13.5527ZM88.3887 12.6328C88.3848 12.0469 88.2461 11.5938 87.9727 11.2734C87.6992 10.9531 87.3145 10.793 86.8184 10.793C86.3613 10.793 85.9658 10.9629 85.6318 11.3027C85.2979 11.6426 85.0879 12.0859 85.002 12.6328L88.3887 12.6328ZM96.6914 16.5L95.543 16.5L95.543 15.4219L95.5195 15.4219C95.0469 16.2422 94.3125 16.6523 93.3164 16.6523C92.4961 16.6523 91.8438 16.3604 91.3594 15.7764C90.875 15.1924 90.6328 14.4043 90.6328 13.4121C90.6328 12.3418 90.9062 11.4834 91.4531 10.8369C92 10.1904 92.7148 9.86719 93.5977 9.86719C94.4805 9.86719 95.1211 10.2109 95.5195 10.8984L95.543 10.8984L95.543 6.9082L96.6914 6.9082L96.6914 16.5ZM95.5488 12.6445C95.5488 12.125 95.3779 11.6904 95.0361 11.3408C94.6943 10.9912 94.2734 10.8164 93.7734 10.8164C93.1641 10.8164 92.6836 11.0439 92.332 11.499C91.9805 11.9541 91.8047 12.5742 91.8047 13.3594C91.8047 14.082 91.9736 14.6533 92.3115 15.0732C92.6494 15.4932 93.0996 15.7031 93.6621 15.7031C94.2168 15.7031 94.6699 15.4971 95.0215 15.085C95.373 14.6729 95.5488 14.1602 95.5488 13.5469L95.5488 12.6445ZM98.6016 7.73438C98.6016 7.53125 98.6709 7.36035 98.8096 7.22168C98.9482 7.08301 99.1191 7.01367 99.3223 7.01367C99.5293 7.01367 99.7041 7.08203 99.8467 7.21875C99.9893 7.35547 100.061 7.52734 100.061 7.73438C100.061 7.9375 99.9893 8.10645 99.8467 8.24121C99.7041 8.37598 99.5293 8.44336 99.3223 8.44336C99.1152 8.44336 98.9434 8.37598 98.8066 8.24121C98.6699 8.10645 98.6016 7.9375 98.6016 7.73438ZM98.7363 16.5L98.7363 10.0195L99.8848 10.0195L99.8848 16.5L98.7363 16.5ZM102.088 10.4707C102.732 10.0684 103.477 9.86719 104.32 9.86719C105.883 9.86719 106.664 10.6875 106.664 12.3281L106.664 16.5L105.527 16.5L105.527 15.498L105.498 15.498C105.049 16.2676 104.387 16.6523 103.512 16.6523C102.883 16.6523 102.383 16.4824 102.012 16.1426C101.641 15.8027 101.455 15.3438 101.455 14.7656C101.455 13.5547 102.172 12.8496 103.605 12.6504L105.527 12.3809C105.527 11.3223 105.09 10.793 104.215 10.793C103.438 10.793 102.729 11.0547 102.088 11.5781L102.088 10.4707ZM104.01 13.4531C103.479 13.5234 103.112 13.6562 102.911 13.8516C102.71 14.0469 102.609 14.3203 102.609 14.6719C102.609 14.9805 102.719 15.2324 102.938 15.4277C103.156 15.623 103.445 15.7207 103.805 15.7207C104.305 15.7207 104.717 15.5449 105.041 15.1934C105.365 14.8418 105.527 14.4004 105.527 13.8691L105.527 13.248L104.01 13.4531Z" fill="rgb(51,51,51)" fill-rule="nonzero" />
</svg>
