<svg xmlns="http://www.w3.org/2000/svg" xmlns:xlink="http://www.w3.org/1999/xlink" width="318.195" height="48.512" viewBox="0 0 318.195 48.512">
  <defs>
    <clipPath id="clip-path">
      <rect id="사각형_1" data-name="사각형 1" width="318.195" height="48.512" transform="translate(0 0)" fill="none"/>
    </clipPath>
  </defs>
  <g id="그룹_4" data-name="그룹 4" transform="translate(0 0)">
    <g id="그룹_3" data-name="그룹 3" clip-path="url(#clip-path)">
      <path id="패스_15" data-name="패스 15" d="M28.637,24.73l-.082-.064a4.675,4.675,0,0,0-5.792.273l-.088.07a7.643,7.643,0,0,1-5.093,1.567,8.26,8.26,0,0,1-4.335-1.113,7.545,7.545,0,0,1-2.9-3.067,9.8,9.8,0,0,1-1.069-4.641,9.108,9.108,0,0,1,2.243-6.528A7.457,7.457,0,0,1,17.3,8.876a8,8,0,0,1,3.131.567,7.22,7.22,0,0,1,2.448,1.779,4.718,4.718,0,0,0,3.6,1.645,4.007,4.007,0,0,0,2.348-.719A4.273,4.273,0,0,0,30.89,8.515a3.958,3.958,0,0,0-1.022-2.688A16,16,0,0,0,17.3.057,17.69,17.69,0,0,0,8.4,2.326,16.047,16.047,0,0,0,2.191,8.692,18.764,18.764,0,0,0,0,17.755a18.128,18.128,0,0,0,2.259,8.966A16.515,16.515,0,0,0,8.571,33.1a17.926,17.926,0,0,0,9.011,2.3,16.38,16.38,0,0,0,11.572-4.362,3.98,3.98,0,0,0,1.221-2.843,4.448,4.448,0,0,0-1.738-3.46" fill="#004895"/>
      <path id="패스_16" data-name="패스 16" d="M57.415,2.324A17.922,17.922,0,0,0,48.435.057a18.193,18.193,0,0,0-9.06,2.265,16.153,16.153,0,0,0-6.294,6.326,18.493,18.493,0,0,0-2.228,9.107A18.382,18.382,0,0,0,33.08,26.8a16.168,16.168,0,0,0,6.295,6.331,18.23,18.23,0,0,0,9.06,2.261,18.066,18.066,0,0,0,9.036-2.264A16.235,16.235,0,0,0,63.732,26.8a18.378,18.378,0,0,0,2.23-9.048A18.322,18.322,0,0,0,63.7,8.639a16.446,16.446,0,0,0-6.283-6.315M55.618,22.4a7.569,7.569,0,0,1-2.9,3.067,8.78,8.78,0,0,1-8.557,0,7.767,7.767,0,0,1-2.941-3.084,9.463,9.463,0,0,1-1.087-4.624,9.636,9.636,0,0,1,1.092-4.664,7.73,7.73,0,0,1,2.936-3.1,8.787,8.787,0,0,1,8.557,0,7.534,7.534,0,0,1,2.9,3.088,9.988,9.988,0,0,1,1.074,4.679A9.824,9.824,0,0,1,55.618,22.4" fill="#004895"/>
      <path id="패스_17" data-name="패스 17" d="M102.155,0a15.212,15.212,0,0,0-6.481,1.371,13.984,13.984,0,0,0-3.4,2.218,11.827,11.827,0,0,0-3.06-2.221A13.294,13.294,0,0,0,83.166,0a13.7,13.7,0,0,0-5.139.961A13.08,13.08,0,0,0,75.96,2.016a4.81,4.81,0,0,0-.357-.387,4.952,4.952,0,0,0-6.692.029,4.649,4.649,0,0,0-1.39,3.436V30.473a4.806,4.806,0,0,0,8.188,3.359,4.732,4.732,0,0,0,1.314-3.359V14.389A5.575,5.575,0,0,1,78.44,10.4a4.628,4.628,0,0,1,3.584-1.467,4.376,4.376,0,0,1,3.323,1.234,5.6,5.6,0,0,1,1.221,3.994V30.473a4.806,4.806,0,0,0,8.188,3.359,4.733,4.733,0,0,0,1.315-3.359V14.389A5.579,5.579,0,0,1,97.488,10.4a4.551,4.551,0,0,1,3.527-1.466,4.376,4.376,0,0,1,3.324,1.236,5.6,5.6,0,0,1,1.22,3.992V30.473a4.807,4.807,0,0,0,8.187,3.361,4.738,4.738,0,0,0,1.315-3.361V14.16c0-4.343-1.194-7.818-3.549-10.327A12.3,12.3,0,0,0,102.155,0" fill="#004895"/>
      <path id="패스_18" data-name="패스 18" d="M144.047,2.383A17.684,17.684,0,0,0,135.118.057,17.886,17.886,0,0,0,128.9,1.142l.005-.013c-.052.02-.1.047-.153.068a17.179,17.179,0,0,0-2.426,1.142,4.479,4.479,0,0,0-.571-.715,4.979,4.979,0,0,0-6.771-.022,4.643,4.643,0,0,0-1.392,3.435V43.761a4.65,4.65,0,0,0,1.39,3.434,4.738,4.738,0,0,0,8.113-3.434V32.56a15.843,15.843,0,0,0,9.164,2.835,15.794,15.794,0,0,0,8.407-2.327,16.278,16.278,0,0,0,5.911-6.383,18.938,18.938,0,0,0,2.124-8.93,17.965,17.965,0,0,0-2.292-8.979,16.9,16.9,0,0,0-6.361-6.393m-1.732,19.926a8.2,8.2,0,0,1-2.99,3.137,8.4,8.4,0,0,1-8.416,0,8,8,0,0,1-2.954-3.121,9.362,9.362,0,0,1-1.088-4.57,9.523,9.523,0,0,1,1.093-4.6,8.215,8.215,0,0,1,11.365-3.145,8.166,8.166,0,0,1,2.985,3.158,9.324,9.324,0,0,1,1.114,4.592,9.167,9.167,0,0,1-1.109,4.554" fill="#004895"/>
      <path id="패스_19" data-name="패스 19" d="M181.824.23a4.734,4.734,0,0,0-3.362,1.315,4.65,4.65,0,0,0-1.387,3.434V21.062a4.661,4.661,0,0,1-.8,2.681,5.845,5.845,0,0,1-2.366,2,7.825,7.825,0,0,1-3.547.78,7.326,7.326,0,0,1-5.317-1.857c-1.282-1.224-1.907-3.074-1.907-5.653V4.979a4.752,4.752,0,1,0-9.5,0v14.03a18.33,18.33,0,0,0,1.988,8.773,13.94,13.94,0,0,0,5.644,5.735,16.446,16.446,0,0,0,7.955,1.934,16.273,16.273,0,0,0,6.04-1.128,15.1,15.1,0,0,0,2.551-1.3,4.563,4.563,0,0,0,.628.776,4.911,4.911,0,0,0,6.82-.022,4.729,4.729,0,0,0,1.315-3.361V4.979a4.71,4.71,0,0,0-1.339-3.413A4.707,4.707,0,0,0,181.824.23" fill="#004895"/>
      <path id="패스_20" data-name="패스 20" d="M212.277,26.119H201.489l13.858-18.38a4.776,4.776,0,0,0,.883-2.932A4.2,4.2,0,0,0,211.707.284H192.26a4.2,4.2,0,0,0-4.524,4.523,4.2,4.2,0,0,0,4.524,4.524H203.1L189.188,27.713a4.769,4.769,0,0,0-.881,2.928,4.2,4.2,0,0,0,4.525,4.523h19.445a4.194,4.194,0,0,0,4.521-4.523,4.2,4.2,0,0,0-4.521-4.522" fill="#004895"/>
      <path id="패스_21" data-name="패스 21" d="M240.932,2.324A17.921,17.921,0,0,0,231.953.057a18.19,18.19,0,0,0-9.06,2.265A16.156,16.156,0,0,0,216.6,8.648a18.526,18.526,0,0,0-2.228,9.107A18.41,18.41,0,0,0,216.6,26.8a16.188,16.188,0,0,0,6.295,6.331,19.223,19.223,0,0,0,18.1,0A16.241,16.241,0,0,0,247.25,26.8a18.394,18.394,0,0,0,2.229-9.048,18.343,18.343,0,0,0-2.261-9.116,16.426,16.426,0,0,0-6.286-6.315m-1.8,20.072a7.567,7.567,0,0,1-2.9,3.067,8.778,8.778,0,0,1-8.556,0,7.762,7.762,0,0,1-2.939-3.084,9.448,9.448,0,0,1-1.09-4.624,9.636,9.636,0,0,1,1.093-4.664,7.741,7.741,0,0,1,2.935-3.1,8.789,8.789,0,0,1,8.558,0,7.54,7.54,0,0,1,2.9,3.088,9.988,9.988,0,0,1,1.073,4.679,9.8,9.8,0,0,1-1.07,4.641" fill="#004895"/>
      <path id="패스_22" data-name="패스 22" d="M276.348,1.938a17.059,17.059,0,0,0-14-.809,15.159,15.159,0,0,0-2.521,1.285,4.314,4.314,0,0,0-.63-.789A4.978,4.978,0,0,0,252.43,1.6a4.642,4.642,0,0,0-1.391,3.436V30.473a4.806,4.806,0,0,0,8.186,3.361,4.731,4.731,0,0,0,1.316-3.361V14.389a4.664,4.664,0,0,1,.8-2.678,5.9,5.9,0,0,1,2.367-2,7.867,7.867,0,0,1,3.549-.78,7.322,7.322,0,0,1,5.314,1.858c1.286,1.226,1.911,3.078,1.911,5.652V30.473a4.752,4.752,0,1,0,9.5,0V16.442a18.359,18.359,0,0,0-1.99-8.774,13.939,13.939,0,0,0-5.644-5.73" fill="#004895"/>
      <path id="패스_23" data-name="패스 23" d="M316.888,20.367A4.231,4.231,0,0,0,318.2,17.24a19.758,19.758,0,0,0-1.9-8.8,14.666,14.666,0,0,0-5.6-6.179A16.2,16.2,0,0,0,302.156.057a17.531,17.531,0,0,0-8.877,2.271,16.094,16.094,0,0,0-6.174,6.364,18.758,18.758,0,0,0-2.191,9.063,17.847,17.847,0,0,0,2.33,9.078,16.578,16.578,0,0,0,6.5,6.311A19.232,19.232,0,0,0,309.1,34.326a17.586,17.586,0,0,0,5.337-2.78,3.88,3.88,0,0,0,1.648-3.182,4.538,4.538,0,0,0-4.579-4.354,4.746,4.746,0,0,0-3,1,8.945,8.945,0,0,1-2.527,1.262,9.755,9.755,0,0,1-9.133-1.507,8,8,0,0,1-2.386-3.176h19.269a4.451,4.451,0,0,0,3.155-1.226m-22.332-7.023a7.75,7.75,0,0,1,2.057-2.874,8.021,8.021,0,0,1,5.543-1.822,6.55,6.55,0,0,1,4.813,1.756,7.4,7.4,0,0,1,1.832,2.94Z" fill="#004895"/>
    </g>
  </g>
</svg>
